G04 #@! TF.GenerationSoftware,KiCad,Pcbnew,(5.1.5)-3*
G04 #@! TF.CreationDate,2022-04-14T12:46:43+02:00*
G04 #@! TF.ProjectId,PMod_ADDAC,504d6f64-5f41-4444-9441-432e6b696361,rev?*
G04 #@! TF.SameCoordinates,Original*
G04 #@! TF.FileFunction,Copper,L2,Bot*
G04 #@! TF.FilePolarity,Positive*
%FSLAX46Y46*%
G04 Gerber Fmt 4.6, Leading zero omitted, Abs format (unit mm)*
G04 Created by KiCad (PCBNEW (5.1.5)-3) date 2022-04-14 12:46:43*
%MOMM*%
%LPD*%
G04 APERTURE LIST*
%ADD10O,1.400000X1.400000*%
%ADD11C,1.400000*%
%ADD12O,2.200000X2.200000*%
%ADD13R,2.200000X2.200000*%
%ADD14O,1.600000X1.600000*%
%ADD15R,1.600000X1.600000*%
%ADD16O,1.700000X1.700000*%
%ADD17R,1.700000X1.700000*%
%ADD18C,1.600000*%
%ADD19C,1.260000*%
%ADD20C,2.130000*%
%ADD21R,1.930000X1.830000*%
%ADD22C,0.800000*%
%ADD23C,0.250000*%
%ADD24C,0.254000*%
G04 APERTURE END LIST*
D10*
X67564000Y-95372000D03*
D11*
X67564000Y-93472000D03*
D12*
X103124000Y-87884000D03*
D13*
X92964000Y-87884000D03*
D14*
X70612000Y-85344000D03*
D15*
X70612000Y-92964000D03*
D10*
X77216000Y-93604000D03*
D11*
X77216000Y-95504000D03*
D16*
X85344000Y-94488000D03*
X87884000Y-94488000D03*
X85344000Y-97028000D03*
X87884000Y-97028000D03*
X85344000Y-99568000D03*
X87884000Y-99568000D03*
X85344000Y-102108000D03*
X87884000Y-102108000D03*
X85344000Y-104648000D03*
X87884000Y-104648000D03*
X85344000Y-107188000D03*
D17*
X87884000Y-107188000D03*
D18*
X80050000Y-69850000D03*
D15*
X82550000Y-69850000D03*
D18*
X90130000Y-69850000D03*
D15*
X87630000Y-69850000D03*
D18*
X97750000Y-69850000D03*
D15*
X95250000Y-69850000D03*
D10*
X85090000Y-63622000D03*
D11*
X85090000Y-61722000D03*
D10*
X92202000Y-61600000D03*
D11*
X92202000Y-63500000D03*
D10*
X99568000Y-61600000D03*
D11*
X99568000Y-63500000D03*
D16*
X78740000Y-80772000D03*
X78740000Y-83312000D03*
D17*
X78740000Y-85852000D03*
D19*
X47371000Y-106045000D03*
X44831000Y-103505000D03*
X47371000Y-100965000D03*
X64008000Y-110236000D03*
X66548000Y-107696000D03*
X69088000Y-110236000D03*
D20*
X117348000Y-121696000D03*
D21*
X117348000Y-133096000D03*
D20*
X117348000Y-129996000D03*
X53848000Y-121950000D03*
D21*
X53848000Y-133350000D03*
D20*
X53848000Y-130250000D03*
D16*
X79375000Y-57785000D03*
X79375000Y-55245000D03*
X81915000Y-57785000D03*
X81915000Y-55245000D03*
X84455000Y-57785000D03*
X84455000Y-55245000D03*
X86995000Y-57785000D03*
X86995000Y-55245000D03*
X89535000Y-57785000D03*
X89535000Y-55245000D03*
X92075000Y-57785000D03*
X92075000Y-55245000D03*
X94615000Y-57785000D03*
X94615000Y-55245000D03*
X97155000Y-57785000D03*
D17*
X97155000Y-55245000D03*
D16*
X69596000Y-55372000D03*
D17*
X69596000Y-57912000D03*
D18*
X103632000Y-103712000D03*
X103632000Y-108712000D03*
X82216000Y-113284000D03*
X77216000Y-113284000D03*
D22*
X89902041Y-102121959D03*
X93472000Y-115316000D03*
X89897388Y-103142612D03*
X90932000Y-115316000D03*
X98552000Y-120904000D03*
X98552000Y-126492000D03*
X89911347Y-100080653D03*
X98552000Y-115316000D03*
X96012000Y-120904000D03*
X96012000Y-126492000D03*
X89906694Y-101101306D03*
X96012000Y-115316000D03*
X77724000Y-60960000D03*
X87376000Y-60452000D03*
X65532000Y-103124000D03*
X52832000Y-106172000D03*
X51308000Y-113792000D03*
X109728000Y-98552000D03*
X106172000Y-103124000D03*
X106680000Y-114300000D03*
X121920000Y-114808000D03*
X87376000Y-113792000D03*
X89408000Y-129540000D03*
X86868000Y-124968000D03*
X74676000Y-123952000D03*
X79248000Y-115824000D03*
X78740000Y-101600000D03*
X75692000Y-104648000D03*
X42164000Y-110236000D03*
X100584000Y-118364000D03*
X88392000Y-118364000D03*
X100584000Y-119888000D03*
X88392000Y-119888000D03*
X73660000Y-103124000D03*
X75692000Y-108204000D03*
X93472000Y-120904000D03*
X93472000Y-126492000D03*
X90932000Y-120904000D03*
X90932000Y-126492000D03*
X98044000Y-91440000D03*
X98552000Y-94488000D03*
X73660000Y-76200000D03*
X72136000Y-94488000D03*
X98751108Y-90732892D03*
X97025000Y-86868000D03*
X72136000Y-117348000D03*
X80264000Y-117856000D03*
X74168000Y-89408000D03*
X75401000Y-101092000D03*
X74168000Y-98044000D03*
X74168000Y-106172000D03*
X72136000Y-96012000D03*
X65532000Y-96012000D03*
X108914500Y-105969500D03*
D23*
X89902041Y-102121959D02*
X93472000Y-105691918D01*
X93472000Y-105691918D02*
X93472000Y-115316000D01*
X89897388Y-103142612D02*
X90932000Y-104177224D01*
X90932000Y-104177224D02*
X90932000Y-115316000D01*
X98552000Y-125476000D02*
X98552000Y-125984000D01*
X98552000Y-120904000D02*
X98552000Y-125476000D01*
X98552000Y-125984000D02*
X98552000Y-126492000D01*
X89911347Y-100080653D02*
X94986694Y-105156000D01*
X94986694Y-105156000D02*
X94996000Y-105156000D01*
X94996000Y-105156000D02*
X98552000Y-108712000D01*
X98552000Y-108712000D02*
X98552000Y-115316000D01*
X96012000Y-120904000D02*
X96012000Y-125984000D01*
X96012000Y-125984000D02*
X96012000Y-126492000D01*
X89906694Y-101101306D02*
X96012000Y-107206612D01*
X96012000Y-107206612D02*
X96012000Y-115316000D01*
X77724000Y-60452000D02*
X77724000Y-60960000D01*
X109728000Y-98552000D02*
X111252000Y-98552000D01*
X106680000Y-114300000D02*
X106680000Y-114808000D01*
X86868000Y-124968000D02*
X86360000Y-124460000D01*
X86360000Y-124460000D02*
X77216000Y-124460000D01*
X77216000Y-124460000D02*
X76708000Y-123952000D01*
X76708000Y-123952000D02*
X77216000Y-123952000D01*
X100584000Y-118364000D02*
X88392000Y-118364000D01*
X100584000Y-119888000D02*
X88392000Y-119888000D01*
X76416001Y-112484001D02*
X77216000Y-113284000D01*
X73260001Y-109328001D02*
X76416001Y-112484001D01*
X73260001Y-103523999D02*
X73260001Y-109328001D01*
X73660000Y-103124000D02*
X73260001Y-103523999D01*
X82550000Y-88270000D02*
X77216000Y-93604000D01*
X82550000Y-69850000D02*
X82550000Y-88270000D01*
X69717999Y-110865999D02*
X69088000Y-110236000D01*
X73261001Y-114409001D02*
X69717999Y-110865999D01*
X77756001Y-114409001D02*
X73261001Y-114409001D01*
X78341001Y-113824001D02*
X77756001Y-114409001D01*
X78341001Y-110853001D02*
X78341001Y-113824001D01*
X75692000Y-108204000D02*
X78341001Y-110853001D01*
X93472000Y-120904000D02*
X93472000Y-125984000D01*
X93472000Y-125984000D02*
X93472000Y-126492000D01*
X90932000Y-120904000D02*
X90932000Y-125984000D01*
X90932000Y-125984000D02*
X90932000Y-126492000D01*
X98044000Y-91440000D02*
X98552000Y-91948000D01*
X98552000Y-91948000D02*
X98552000Y-94488000D01*
X73660000Y-76200000D02*
X73260001Y-76599999D01*
X73260001Y-76599999D02*
X73260001Y-90532001D01*
X73260001Y-90532001D02*
X73260001Y-93363999D01*
X73260001Y-93363999D02*
X72136000Y-94488000D01*
X98751108Y-90732892D02*
X97025000Y-89006784D01*
X97025000Y-89006784D02*
X97025000Y-86868000D01*
X72136000Y-117348000D02*
X79756000Y-117348000D01*
X79756000Y-117348000D02*
X80264000Y-117856000D01*
X74168000Y-89408000D02*
X75401000Y-90641000D01*
X75401000Y-90641000D02*
X75401000Y-101092000D01*
X74168000Y-98044000D02*
X74676000Y-98552000D01*
X74676000Y-98552000D02*
X74676000Y-105664000D01*
X74676000Y-105664000D02*
X74168000Y-106172000D01*
X65931999Y-96411999D02*
X65532000Y-96012000D01*
X72136000Y-96012000D02*
X71736001Y-96411999D01*
X71736001Y-96411999D02*
X65931999Y-96411999D01*
X103632000Y-108712000D02*
X106172000Y-108712000D01*
X106172000Y-108712000D02*
X108914500Y-105969500D01*
D24*
G36*
X135001000Y-138557000D02*
G01*
X39242330Y-138557000D01*
X39217647Y-133891872D01*
X41453000Y-133891872D01*
X41453000Y-134332128D01*
X41538890Y-134763925D01*
X41707369Y-135170669D01*
X41951962Y-135536729D01*
X42263271Y-135848038D01*
X42629331Y-136092631D01*
X43036075Y-136261110D01*
X43467872Y-136347000D01*
X43908128Y-136347000D01*
X44339925Y-136261110D01*
X44746669Y-136092631D01*
X45112729Y-135848038D01*
X45424038Y-135536729D01*
X45668631Y-135170669D01*
X45837110Y-134763925D01*
X45923000Y-134332128D01*
X45923000Y-134265000D01*
X52244928Y-134265000D01*
X52257188Y-134389482D01*
X52293498Y-134509180D01*
X52352463Y-134619494D01*
X52431815Y-134716185D01*
X52528506Y-134795537D01*
X52638820Y-134854502D01*
X52758518Y-134890812D01*
X52883000Y-134903072D01*
X53562250Y-134900000D01*
X53721000Y-134741250D01*
X53721000Y-133477000D01*
X53975000Y-133477000D01*
X53975000Y-134741250D01*
X54133750Y-134900000D01*
X54813000Y-134903072D01*
X54937482Y-134890812D01*
X55057180Y-134854502D01*
X55167494Y-134795537D01*
X55264185Y-134716185D01*
X55343537Y-134619494D01*
X55402502Y-134509180D01*
X55438812Y-134389482D01*
X55451072Y-134265000D01*
X55449832Y-134011000D01*
X115744928Y-134011000D01*
X115757188Y-134135482D01*
X115793498Y-134255180D01*
X115852463Y-134365494D01*
X115931815Y-134462185D01*
X116028506Y-134541537D01*
X116138820Y-134600502D01*
X116258518Y-134636812D01*
X116383000Y-134649072D01*
X117062250Y-134646000D01*
X117221000Y-134487250D01*
X117221000Y-133223000D01*
X117475000Y-133223000D01*
X117475000Y-134487250D01*
X117633750Y-134646000D01*
X118313000Y-134649072D01*
X118437482Y-134636812D01*
X118557180Y-134600502D01*
X118667494Y-134541537D01*
X118764185Y-134462185D01*
X118815323Y-134399872D01*
X128829000Y-134399872D01*
X128829000Y-134840128D01*
X128914890Y-135271925D01*
X129083369Y-135678669D01*
X129327962Y-136044729D01*
X129639271Y-136356038D01*
X130005331Y-136600631D01*
X130412075Y-136769110D01*
X130843872Y-136855000D01*
X131284128Y-136855000D01*
X131715925Y-136769110D01*
X132122669Y-136600631D01*
X132488729Y-136356038D01*
X132800038Y-136044729D01*
X133044631Y-135678669D01*
X133213110Y-135271925D01*
X133299000Y-134840128D01*
X133299000Y-134399872D01*
X133213110Y-133968075D01*
X133044631Y-133561331D01*
X132800038Y-133195271D01*
X132488729Y-132883962D01*
X132122669Y-132639369D01*
X131715925Y-132470890D01*
X131284128Y-132385000D01*
X130843872Y-132385000D01*
X130412075Y-132470890D01*
X130005331Y-132639369D01*
X129639271Y-132883962D01*
X129327962Y-133195271D01*
X129083369Y-133561331D01*
X128914890Y-133968075D01*
X128829000Y-134399872D01*
X118815323Y-134399872D01*
X118843537Y-134365494D01*
X118902502Y-134255180D01*
X118938812Y-134135482D01*
X118951072Y-134011000D01*
X118948000Y-133381750D01*
X118789250Y-133223000D01*
X117475000Y-133223000D01*
X117221000Y-133223000D01*
X115906750Y-133223000D01*
X115748000Y-133381750D01*
X115744928Y-134011000D01*
X55449832Y-134011000D01*
X55448000Y-133635750D01*
X55289250Y-133477000D01*
X53975000Y-133477000D01*
X53721000Y-133477000D01*
X52406750Y-133477000D01*
X52248000Y-133635750D01*
X52244928Y-134265000D01*
X45923000Y-134265000D01*
X45923000Y-133891872D01*
X45837110Y-133460075D01*
X45668631Y-133053331D01*
X45424038Y-132687271D01*
X45112729Y-132375962D01*
X44746669Y-132131369D01*
X44339925Y-131962890D01*
X43908128Y-131877000D01*
X43467872Y-131877000D01*
X43036075Y-131962890D01*
X42629331Y-132131369D01*
X42263271Y-132375962D01*
X41951962Y-132687271D01*
X41707369Y-133053331D01*
X41538890Y-133460075D01*
X41453000Y-133891872D01*
X39217647Y-133891872D01*
X39197493Y-130082565D01*
X52148000Y-130082565D01*
X52148000Y-130417435D01*
X52213330Y-130745872D01*
X52341479Y-131055252D01*
X52527523Y-131333687D01*
X52764313Y-131570477D01*
X53042748Y-131756521D01*
X53143140Y-131798105D01*
X52883000Y-131796928D01*
X52758518Y-131809188D01*
X52638820Y-131845498D01*
X52528506Y-131904463D01*
X52431815Y-131983815D01*
X52352463Y-132080506D01*
X52293498Y-132190820D01*
X52257188Y-132310518D01*
X52244928Y-132435000D01*
X52248000Y-133064250D01*
X52406750Y-133223000D01*
X53721000Y-133223000D01*
X53721000Y-133203000D01*
X53975000Y-133203000D01*
X53975000Y-133223000D01*
X55289250Y-133223000D01*
X55448000Y-133064250D01*
X55451072Y-132435000D01*
X55438812Y-132310518D01*
X55402502Y-132190820D01*
X55343537Y-132080506D01*
X55264185Y-131983815D01*
X55167494Y-131904463D01*
X55057180Y-131845498D01*
X54937482Y-131809188D01*
X54813000Y-131796928D01*
X54552860Y-131798105D01*
X54653252Y-131756521D01*
X54931687Y-131570477D01*
X55168477Y-131333687D01*
X55354521Y-131055252D01*
X55482670Y-130745872D01*
X55548000Y-130417435D01*
X55548000Y-130082565D01*
X55497477Y-129828565D01*
X115648000Y-129828565D01*
X115648000Y-130163435D01*
X115713330Y-130491872D01*
X115841479Y-130801252D01*
X116027523Y-131079687D01*
X116264313Y-131316477D01*
X116542748Y-131502521D01*
X116643140Y-131544105D01*
X116383000Y-131542928D01*
X116258518Y-131555188D01*
X116138820Y-131591498D01*
X116028506Y-131650463D01*
X115931815Y-131729815D01*
X115852463Y-131826506D01*
X115793498Y-131936820D01*
X115757188Y-132056518D01*
X115744928Y-132181000D01*
X115748000Y-132810250D01*
X115906750Y-132969000D01*
X117221000Y-132969000D01*
X117221000Y-132949000D01*
X117475000Y-132949000D01*
X117475000Y-132969000D01*
X118789250Y-132969000D01*
X118948000Y-132810250D01*
X118951072Y-132181000D01*
X118938812Y-132056518D01*
X118902502Y-131936820D01*
X118843537Y-131826506D01*
X118764185Y-131729815D01*
X118667494Y-131650463D01*
X118557180Y-131591498D01*
X118437482Y-131555188D01*
X118313000Y-131542928D01*
X118052860Y-131544105D01*
X118153252Y-131502521D01*
X118431687Y-131316477D01*
X118668477Y-131079687D01*
X118854521Y-130801252D01*
X118982670Y-130491872D01*
X119048000Y-130163435D01*
X119048000Y-129828565D01*
X118982670Y-129500128D01*
X118854521Y-129190748D01*
X118668477Y-128912313D01*
X118431687Y-128675523D01*
X118153252Y-128489479D01*
X117843872Y-128361330D01*
X117515435Y-128296000D01*
X117180565Y-128296000D01*
X116852128Y-128361330D01*
X116542748Y-128489479D01*
X116264313Y-128675523D01*
X116027523Y-128912313D01*
X115841479Y-129190748D01*
X115713330Y-129500128D01*
X115648000Y-129828565D01*
X55497477Y-129828565D01*
X55482670Y-129754128D01*
X55354521Y-129444748D01*
X55168477Y-129166313D01*
X54931687Y-128929523D01*
X54653252Y-128743479D01*
X54343872Y-128615330D01*
X54015435Y-128550000D01*
X53680565Y-128550000D01*
X53352128Y-128615330D01*
X53042748Y-128743479D01*
X52764313Y-128929523D01*
X52527523Y-129166313D01*
X52341479Y-129444748D01*
X52213330Y-129754128D01*
X52148000Y-130082565D01*
X39197493Y-130082565D01*
X39153578Y-121782565D01*
X52148000Y-121782565D01*
X52148000Y-122117435D01*
X52213330Y-122445872D01*
X52341479Y-122755252D01*
X52527523Y-123033687D01*
X52764313Y-123270477D01*
X53042748Y-123456521D01*
X53352128Y-123584670D01*
X53680565Y-123650000D01*
X54015435Y-123650000D01*
X54343872Y-123584670D01*
X54653252Y-123456521D01*
X54931687Y-123270477D01*
X55168477Y-123033687D01*
X55354521Y-122755252D01*
X55482670Y-122445872D01*
X55548000Y-122117435D01*
X55548000Y-121782565D01*
X55482670Y-121454128D01*
X55354521Y-121144748D01*
X55168477Y-120866313D01*
X54931687Y-120629523D01*
X54653252Y-120443479D01*
X54343872Y-120315330D01*
X54015435Y-120250000D01*
X53680565Y-120250000D01*
X53352128Y-120315330D01*
X53042748Y-120443479D01*
X52764313Y-120629523D01*
X52527523Y-120866313D01*
X52341479Y-121144748D01*
X52213330Y-121454128D01*
X52148000Y-121782565D01*
X39153578Y-121782565D01*
X39129576Y-117246061D01*
X71101000Y-117246061D01*
X71101000Y-117449939D01*
X71140774Y-117649898D01*
X71218795Y-117838256D01*
X71332063Y-118007774D01*
X71476226Y-118151937D01*
X71645744Y-118265205D01*
X71834102Y-118343226D01*
X72034061Y-118383000D01*
X72237939Y-118383000D01*
X72437898Y-118343226D01*
X72626256Y-118265205D01*
X72795774Y-118151937D01*
X72839711Y-118108000D01*
X79258849Y-118108000D01*
X79268774Y-118157898D01*
X79346795Y-118346256D01*
X79460063Y-118515774D01*
X79604226Y-118659937D01*
X79773744Y-118773205D01*
X79962102Y-118851226D01*
X80162061Y-118891000D01*
X80365939Y-118891000D01*
X80565898Y-118851226D01*
X80754256Y-118773205D01*
X80923774Y-118659937D01*
X81067937Y-118515774D01*
X81181205Y-118346256D01*
X81216079Y-118262061D01*
X87357000Y-118262061D01*
X87357000Y-118465939D01*
X87396774Y-118665898D01*
X87474795Y-118854256D01*
X87588063Y-119023774D01*
X87690289Y-119126000D01*
X87588063Y-119228226D01*
X87474795Y-119397744D01*
X87396774Y-119586102D01*
X87357000Y-119786061D01*
X87357000Y-119989939D01*
X87396774Y-120189898D01*
X87474795Y-120378256D01*
X87588063Y-120547774D01*
X87732226Y-120691937D01*
X87901744Y-120805205D01*
X88090102Y-120883226D01*
X88290061Y-120923000D01*
X88493939Y-120923000D01*
X88693898Y-120883226D01*
X88882256Y-120805205D01*
X89051774Y-120691937D01*
X89095711Y-120648000D01*
X89927644Y-120648000D01*
X89897000Y-120802061D01*
X89897000Y-121005939D01*
X89936774Y-121205898D01*
X90014795Y-121394256D01*
X90128063Y-121563774D01*
X90172000Y-121607711D01*
X90172001Y-125788288D01*
X90128063Y-125832226D01*
X90014795Y-126001744D01*
X89936774Y-126190102D01*
X89897000Y-126390061D01*
X89897000Y-126593939D01*
X89936774Y-126793898D01*
X90014795Y-126982256D01*
X90128063Y-127151774D01*
X90272226Y-127295937D01*
X90441744Y-127409205D01*
X90630102Y-127487226D01*
X90830061Y-127527000D01*
X91033939Y-127527000D01*
X91233898Y-127487226D01*
X91422256Y-127409205D01*
X91591774Y-127295937D01*
X91735937Y-127151774D01*
X91849205Y-126982256D01*
X91927226Y-126793898D01*
X91967000Y-126593939D01*
X91967000Y-126390061D01*
X91927226Y-126190102D01*
X91849205Y-126001744D01*
X91735937Y-125832226D01*
X91692000Y-125788289D01*
X91692000Y-121607711D01*
X91735937Y-121563774D01*
X91849205Y-121394256D01*
X91927226Y-121205898D01*
X91967000Y-121005939D01*
X91967000Y-120802061D01*
X91936356Y-120648000D01*
X92467644Y-120648000D01*
X92437000Y-120802061D01*
X92437000Y-121005939D01*
X92476774Y-121205898D01*
X92554795Y-121394256D01*
X92668063Y-121563774D01*
X92712000Y-121607711D01*
X92712001Y-125788288D01*
X92668063Y-125832226D01*
X92554795Y-126001744D01*
X92476774Y-126190102D01*
X92437000Y-126390061D01*
X92437000Y-126593939D01*
X92476774Y-126793898D01*
X92554795Y-126982256D01*
X92668063Y-127151774D01*
X92812226Y-127295937D01*
X92981744Y-127409205D01*
X93170102Y-127487226D01*
X93370061Y-127527000D01*
X93573939Y-127527000D01*
X93773898Y-127487226D01*
X93962256Y-127409205D01*
X94131774Y-127295937D01*
X94275937Y-127151774D01*
X94389205Y-126982256D01*
X94467226Y-126793898D01*
X94507000Y-126593939D01*
X94507000Y-126390061D01*
X94467226Y-126190102D01*
X94389205Y-126001744D01*
X94275937Y-125832226D01*
X94232000Y-125788289D01*
X94232000Y-121607711D01*
X94275937Y-121563774D01*
X94389205Y-121394256D01*
X94467226Y-121205898D01*
X94507000Y-121005939D01*
X94507000Y-120802061D01*
X94476356Y-120648000D01*
X95007644Y-120648000D01*
X94977000Y-120802061D01*
X94977000Y-121005939D01*
X95016774Y-121205898D01*
X95094795Y-121394256D01*
X95208063Y-121563774D01*
X95252000Y-121607711D01*
X95252001Y-125788288D01*
X95208063Y-125832226D01*
X95094795Y-126001744D01*
X95016774Y-126190102D01*
X94977000Y-126390061D01*
X94977000Y-126593939D01*
X95016774Y-126793898D01*
X95094795Y-126982256D01*
X95208063Y-127151774D01*
X95352226Y-127295937D01*
X95521744Y-127409205D01*
X95710102Y-127487226D01*
X95910061Y-127527000D01*
X96113939Y-127527000D01*
X96313898Y-127487226D01*
X96502256Y-127409205D01*
X96671774Y-127295937D01*
X96815937Y-127151774D01*
X96929205Y-126982256D01*
X97007226Y-126793898D01*
X97047000Y-126593939D01*
X97047000Y-126390061D01*
X97007226Y-126190102D01*
X96929205Y-126001744D01*
X96815937Y-125832226D01*
X96772000Y-125788289D01*
X96772000Y-121607711D01*
X96815937Y-121563774D01*
X96929205Y-121394256D01*
X97007226Y-121205898D01*
X97047000Y-121005939D01*
X97047000Y-120802061D01*
X97016356Y-120648000D01*
X97547644Y-120648000D01*
X97517000Y-120802061D01*
X97517000Y-121005939D01*
X97556774Y-121205898D01*
X97634795Y-121394256D01*
X97748063Y-121563774D01*
X97792000Y-121607711D01*
X97792001Y-125438658D01*
X97792000Y-125438668D01*
X97792000Y-125788289D01*
X97748063Y-125832226D01*
X97634795Y-126001744D01*
X97556774Y-126190102D01*
X97517000Y-126390061D01*
X97517000Y-126593939D01*
X97556774Y-126793898D01*
X97634795Y-126982256D01*
X97748063Y-127151774D01*
X97892226Y-127295937D01*
X98061744Y-127409205D01*
X98250102Y-127487226D01*
X98450061Y-127527000D01*
X98653939Y-127527000D01*
X98853898Y-127487226D01*
X99042256Y-127409205D01*
X99211774Y-127295937D01*
X99355937Y-127151774D01*
X99469205Y-126982256D01*
X99547226Y-126793898D01*
X99587000Y-126593939D01*
X99587000Y-126390061D01*
X99547226Y-126190102D01*
X99469205Y-126001744D01*
X99355937Y-125832226D01*
X99312000Y-125788289D01*
X99312000Y-121607711D01*
X99355937Y-121563774D01*
X99379462Y-121528565D01*
X115648000Y-121528565D01*
X115648000Y-121863435D01*
X115713330Y-122191872D01*
X115841479Y-122501252D01*
X116027523Y-122779687D01*
X116264313Y-123016477D01*
X116542748Y-123202521D01*
X116852128Y-123330670D01*
X117180565Y-123396000D01*
X117515435Y-123396000D01*
X117843872Y-123330670D01*
X118153252Y-123202521D01*
X118431687Y-123016477D01*
X118668477Y-122779687D01*
X118854521Y-122501252D01*
X118982670Y-122191872D01*
X119048000Y-121863435D01*
X119048000Y-121528565D01*
X118982670Y-121200128D01*
X118854521Y-120890748D01*
X118668477Y-120612313D01*
X118431687Y-120375523D01*
X118153252Y-120189479D01*
X117843872Y-120061330D01*
X117515435Y-119996000D01*
X117180565Y-119996000D01*
X116852128Y-120061330D01*
X116542748Y-120189479D01*
X116264313Y-120375523D01*
X116027523Y-120612313D01*
X115841479Y-120890748D01*
X115713330Y-121200128D01*
X115648000Y-121528565D01*
X99379462Y-121528565D01*
X99469205Y-121394256D01*
X99547226Y-121205898D01*
X99587000Y-121005939D01*
X99587000Y-120802061D01*
X99556356Y-120648000D01*
X99880289Y-120648000D01*
X99924226Y-120691937D01*
X100093744Y-120805205D01*
X100282102Y-120883226D01*
X100482061Y-120923000D01*
X100685939Y-120923000D01*
X100885898Y-120883226D01*
X101074256Y-120805205D01*
X101243774Y-120691937D01*
X101387937Y-120547774D01*
X101501205Y-120378256D01*
X101579226Y-120189898D01*
X101619000Y-119989939D01*
X101619000Y-119786061D01*
X101579226Y-119586102D01*
X101501205Y-119397744D01*
X101387937Y-119228226D01*
X101285711Y-119126000D01*
X101387937Y-119023774D01*
X101501205Y-118854256D01*
X101579226Y-118665898D01*
X101619000Y-118465939D01*
X101619000Y-118262061D01*
X101579226Y-118062102D01*
X101501205Y-117873744D01*
X101387937Y-117704226D01*
X101243774Y-117560063D01*
X101074256Y-117446795D01*
X100885898Y-117368774D01*
X100685939Y-117329000D01*
X100482061Y-117329000D01*
X100282102Y-117368774D01*
X100093744Y-117446795D01*
X99924226Y-117560063D01*
X99880289Y-117604000D01*
X89095711Y-117604000D01*
X89051774Y-117560063D01*
X88882256Y-117446795D01*
X88693898Y-117368774D01*
X88493939Y-117329000D01*
X88290061Y-117329000D01*
X88090102Y-117368774D01*
X87901744Y-117446795D01*
X87732226Y-117560063D01*
X87588063Y-117704226D01*
X87474795Y-117873744D01*
X87396774Y-118062102D01*
X87357000Y-118262061D01*
X81216079Y-118262061D01*
X81259226Y-118157898D01*
X81299000Y-117957939D01*
X81299000Y-117754061D01*
X81259226Y-117554102D01*
X81181205Y-117365744D01*
X81067937Y-117196226D01*
X80923774Y-117052063D01*
X80754256Y-116938795D01*
X80565898Y-116860774D01*
X80365939Y-116821000D01*
X80306671Y-116821000D01*
X80296001Y-116807999D01*
X80180276Y-116713026D01*
X80048247Y-116642454D01*
X79904986Y-116598997D01*
X79793333Y-116588000D01*
X79793322Y-116588000D01*
X79756000Y-116584324D01*
X79718678Y-116588000D01*
X72839711Y-116588000D01*
X72795774Y-116544063D01*
X72626256Y-116430795D01*
X72437898Y-116352774D01*
X72237939Y-116313000D01*
X72034061Y-116313000D01*
X71834102Y-116352774D01*
X71645744Y-116430795D01*
X71476226Y-116544063D01*
X71332063Y-116688226D01*
X71218795Y-116857744D01*
X71140774Y-117046102D01*
X71101000Y-117246061D01*
X39129576Y-117246061D01*
X39097095Y-111107224D01*
X63316381Y-111107224D01*
X63367337Y-111333862D01*
X63593830Y-111437754D01*
X63836238Y-111495463D01*
X64085248Y-111504772D01*
X64331289Y-111465323D01*
X64564905Y-111378632D01*
X64648663Y-111333862D01*
X64699619Y-111107224D01*
X64008000Y-110415605D01*
X63316381Y-111107224D01*
X39097095Y-111107224D01*
X39092894Y-110313248D01*
X62739228Y-110313248D01*
X62778677Y-110559289D01*
X62865368Y-110792905D01*
X62910138Y-110876663D01*
X63136776Y-110927619D01*
X63828395Y-110236000D01*
X64187605Y-110236000D01*
X64879224Y-110927619D01*
X65105862Y-110876663D01*
X65209754Y-110650170D01*
X65267463Y-110407762D01*
X65276772Y-110158752D01*
X65237323Y-109912711D01*
X65150632Y-109679095D01*
X65105862Y-109595337D01*
X64879224Y-109544381D01*
X64187605Y-110236000D01*
X63828395Y-110236000D01*
X63136776Y-109544381D01*
X62910138Y-109595337D01*
X62806246Y-109821830D01*
X62748537Y-110064238D01*
X62739228Y-110313248D01*
X39092894Y-110313248D01*
X39087876Y-109364776D01*
X63316381Y-109364776D01*
X64008000Y-110056395D01*
X64699619Y-109364776D01*
X64648663Y-109138138D01*
X64422170Y-109034246D01*
X64179762Y-108976537D01*
X63930752Y-108967228D01*
X63684711Y-109006677D01*
X63451095Y-109093368D01*
X63367337Y-109138138D01*
X63316381Y-109364776D01*
X39087876Y-109364776D01*
X39078387Y-107571408D01*
X65283000Y-107571408D01*
X65283000Y-107820592D01*
X65331613Y-108064987D01*
X65426971Y-108295202D01*
X65565410Y-108502391D01*
X65741609Y-108678590D01*
X65948798Y-108817029D01*
X66179013Y-108912387D01*
X66423408Y-108961000D01*
X66672592Y-108961000D01*
X66916987Y-108912387D01*
X67147202Y-108817029D01*
X67354391Y-108678590D01*
X67530590Y-108502391D01*
X67669029Y-108295202D01*
X67764387Y-108064987D01*
X67813000Y-107820592D01*
X67813000Y-107571408D01*
X67764387Y-107327013D01*
X67669029Y-107096798D01*
X67530590Y-106889609D01*
X67354391Y-106713410D01*
X67147202Y-106574971D01*
X66916987Y-106479613D01*
X66672592Y-106431000D01*
X66423408Y-106431000D01*
X66179013Y-106479613D01*
X65948798Y-106574971D01*
X65741609Y-106713410D01*
X65565410Y-106889609D01*
X65426971Y-107096798D01*
X65331613Y-107327013D01*
X65283000Y-107571408D01*
X39078387Y-107571408D01*
X39069651Y-105920408D01*
X46106000Y-105920408D01*
X46106000Y-106169592D01*
X46154613Y-106413987D01*
X46249971Y-106644202D01*
X46388410Y-106851391D01*
X46564609Y-107027590D01*
X46771798Y-107166029D01*
X47002013Y-107261387D01*
X47246408Y-107310000D01*
X47495592Y-107310000D01*
X47739987Y-107261387D01*
X47970202Y-107166029D01*
X48177391Y-107027590D01*
X48353590Y-106851391D01*
X48492029Y-106644202D01*
X48587387Y-106413987D01*
X48636000Y-106169592D01*
X48636000Y-105920408D01*
X48587387Y-105676013D01*
X48492029Y-105445798D01*
X48353590Y-105238609D01*
X48177391Y-105062410D01*
X47970202Y-104923971D01*
X47739987Y-104828613D01*
X47495592Y-104780000D01*
X47246408Y-104780000D01*
X47002013Y-104828613D01*
X46771798Y-104923971D01*
X46564609Y-105062410D01*
X46388410Y-105238609D01*
X46249971Y-105445798D01*
X46154613Y-105676013D01*
X46106000Y-105920408D01*
X39069651Y-105920408D01*
X39056211Y-103380408D01*
X43566000Y-103380408D01*
X43566000Y-103629592D01*
X43614613Y-103873987D01*
X43709971Y-104104202D01*
X43848410Y-104311391D01*
X44024609Y-104487590D01*
X44231798Y-104626029D01*
X44462013Y-104721387D01*
X44706408Y-104770000D01*
X44955592Y-104770000D01*
X45199987Y-104721387D01*
X45430202Y-104626029D01*
X45637391Y-104487590D01*
X45813590Y-104311391D01*
X45952029Y-104104202D01*
X46047387Y-103873987D01*
X46096000Y-103629592D01*
X46096000Y-103380408D01*
X46047387Y-103136013D01*
X45952029Y-102905798D01*
X45813590Y-102698609D01*
X45637391Y-102522410D01*
X45430202Y-102383971D01*
X45199987Y-102288613D01*
X44955592Y-102240000D01*
X44706408Y-102240000D01*
X44462013Y-102288613D01*
X44231798Y-102383971D01*
X44024609Y-102522410D01*
X43848410Y-102698609D01*
X43709971Y-102905798D01*
X43614613Y-103136013D01*
X43566000Y-103380408D01*
X39056211Y-103380408D01*
X39042772Y-100840408D01*
X46106000Y-100840408D01*
X46106000Y-101089592D01*
X46154613Y-101333987D01*
X46249971Y-101564202D01*
X46388410Y-101771391D01*
X46564609Y-101947590D01*
X46771798Y-102086029D01*
X47002013Y-102181387D01*
X47246408Y-102230000D01*
X47495592Y-102230000D01*
X47739987Y-102181387D01*
X47970202Y-102086029D01*
X48177391Y-101947590D01*
X48353590Y-101771391D01*
X48492029Y-101564202D01*
X48587387Y-101333987D01*
X48636000Y-101089592D01*
X48636000Y-100840408D01*
X48587387Y-100596013D01*
X48492029Y-100365798D01*
X48353590Y-100158609D01*
X48177391Y-99982410D01*
X47970202Y-99843971D01*
X47739987Y-99748613D01*
X47495592Y-99700000D01*
X47246408Y-99700000D01*
X47002013Y-99748613D01*
X46771798Y-99843971D01*
X46564609Y-99982410D01*
X46388410Y-100158609D01*
X46249971Y-100365798D01*
X46154613Y-100596013D01*
X46106000Y-100840408D01*
X39042772Y-100840408D01*
X39016686Y-95910061D01*
X64497000Y-95910061D01*
X64497000Y-96113939D01*
X64536774Y-96313898D01*
X64614795Y-96502256D01*
X64728063Y-96671774D01*
X64872226Y-96815937D01*
X65041744Y-96929205D01*
X65230102Y-97007226D01*
X65430061Y-97047000D01*
X65507774Y-97047000D01*
X65639752Y-97117545D01*
X65783013Y-97161002D01*
X65894666Y-97171999D01*
X65894676Y-97171999D01*
X65931998Y-97175675D01*
X65969321Y-97171999D01*
X71698679Y-97171999D01*
X71736001Y-97175675D01*
X71773323Y-97171999D01*
X71773334Y-97171999D01*
X71884987Y-97161002D01*
X72028248Y-97117545D01*
X72160226Y-97047000D01*
X72237939Y-97047000D01*
X72437898Y-97007226D01*
X72626256Y-96929205D01*
X72795774Y-96815937D01*
X72939937Y-96671774D01*
X73053205Y-96502256D01*
X73131226Y-96313898D01*
X73171000Y-96113939D01*
X73171000Y-95910061D01*
X73131226Y-95710102D01*
X73053205Y-95521744D01*
X72939937Y-95352226D01*
X72837711Y-95250000D01*
X72939937Y-95147774D01*
X73053205Y-94978256D01*
X73131226Y-94789898D01*
X73171000Y-94589939D01*
X73171000Y-94527802D01*
X73771009Y-93927794D01*
X73800002Y-93904000D01*
X73823796Y-93875007D01*
X73823800Y-93875003D01*
X73894974Y-93788276D01*
X73913838Y-93752985D01*
X73965547Y-93656246D01*
X74009004Y-93512985D01*
X74020001Y-93401332D01*
X74020001Y-93401323D01*
X74023677Y-93364000D01*
X74020001Y-93326677D01*
X74020001Y-90433838D01*
X74066061Y-90443000D01*
X74128199Y-90443000D01*
X74641000Y-90955802D01*
X74641001Y-97119648D01*
X74469898Y-97048774D01*
X74269939Y-97009000D01*
X74066061Y-97009000D01*
X73866102Y-97048774D01*
X73677744Y-97126795D01*
X73508226Y-97240063D01*
X73364063Y-97384226D01*
X73250795Y-97553744D01*
X73172774Y-97742102D01*
X73133000Y-97942061D01*
X73133000Y-98145939D01*
X73172774Y-98345898D01*
X73250795Y-98534256D01*
X73364063Y-98703774D01*
X73508226Y-98847937D01*
X73677744Y-98961205D01*
X73866102Y-99039226D01*
X73916000Y-99049151D01*
X73916001Y-102119644D01*
X73761939Y-102089000D01*
X73558061Y-102089000D01*
X73358102Y-102128774D01*
X73169744Y-102206795D01*
X73000226Y-102320063D01*
X72856063Y-102464226D01*
X72742795Y-102633744D01*
X72664774Y-102822102D01*
X72625000Y-103022061D01*
X72625000Y-103099774D01*
X72594434Y-103156959D01*
X72554455Y-103231753D01*
X72510998Y-103375014D01*
X72500001Y-103486667D01*
X72500001Y-103486677D01*
X72496325Y-103523999D01*
X72500001Y-103561322D01*
X72500002Y-109290669D01*
X72496325Y-109328001D01*
X72500002Y-109365334D01*
X72505145Y-109417546D01*
X72510999Y-109476986D01*
X72554455Y-109620247D01*
X72625027Y-109752277D01*
X72696202Y-109839003D01*
X72720001Y-109868002D01*
X72748999Y-109891800D01*
X75817312Y-112960114D01*
X75781000Y-113142665D01*
X75781000Y-113425335D01*
X75825491Y-113649001D01*
X73575804Y-113649001D01*
X70342115Y-110415314D01*
X70353000Y-110360592D01*
X70353000Y-110111408D01*
X70304387Y-109867013D01*
X70209029Y-109636798D01*
X70070590Y-109429609D01*
X69894391Y-109253410D01*
X69687202Y-109114971D01*
X69456987Y-109019613D01*
X69212592Y-108971000D01*
X68963408Y-108971000D01*
X68719013Y-109019613D01*
X68488798Y-109114971D01*
X68281609Y-109253410D01*
X68105410Y-109429609D01*
X67966971Y-109636798D01*
X67871613Y-109867013D01*
X67823000Y-110111408D01*
X67823000Y-110360592D01*
X67871613Y-110604987D01*
X67966971Y-110835202D01*
X68105410Y-111042391D01*
X68281609Y-111218590D01*
X68488798Y-111357029D01*
X68719013Y-111452387D01*
X68963408Y-111501000D01*
X69212592Y-111501000D01*
X69267314Y-111490115D01*
X72697206Y-114920009D01*
X72721000Y-114949002D01*
X72749993Y-114972796D01*
X72749997Y-114972800D01*
X72820686Y-115030812D01*
X72836725Y-115043975D01*
X72968754Y-115114547D01*
X73112015Y-115158004D01*
X73223668Y-115169001D01*
X73223677Y-115169001D01*
X73261000Y-115172677D01*
X73298323Y-115169001D01*
X77718679Y-115169001D01*
X77756001Y-115172677D01*
X77793323Y-115169001D01*
X77793334Y-115169001D01*
X77904987Y-115158004D01*
X78048248Y-115114547D01*
X78180277Y-115043975D01*
X78296002Y-114949002D01*
X78319804Y-114919999D01*
X78852003Y-114387801D01*
X78881002Y-114364002D01*
X78949120Y-114281000D01*
X78975975Y-114248278D01*
X79046547Y-114116248D01*
X79090004Y-113972987D01*
X79101001Y-113861334D01*
X79101001Y-113861324D01*
X79104677Y-113824001D01*
X79101001Y-113786678D01*
X79101001Y-113142665D01*
X80781000Y-113142665D01*
X80781000Y-113425335D01*
X80836147Y-113702574D01*
X80944320Y-113963727D01*
X81101363Y-114198759D01*
X81301241Y-114398637D01*
X81536273Y-114555680D01*
X81797426Y-114663853D01*
X82074665Y-114719000D01*
X82357335Y-114719000D01*
X82634574Y-114663853D01*
X82895727Y-114555680D01*
X83130759Y-114398637D01*
X83330637Y-114198759D01*
X83487680Y-113963727D01*
X83595853Y-113702574D01*
X83651000Y-113425335D01*
X83651000Y-113142665D01*
X83595853Y-112865426D01*
X83487680Y-112604273D01*
X83330637Y-112369241D01*
X83130759Y-112169363D01*
X82895727Y-112012320D01*
X82634574Y-111904147D01*
X82357335Y-111849000D01*
X82074665Y-111849000D01*
X81797426Y-111904147D01*
X81536273Y-112012320D01*
X81301241Y-112169363D01*
X81101363Y-112369241D01*
X80944320Y-112604273D01*
X80836147Y-112865426D01*
X80781000Y-113142665D01*
X79101001Y-113142665D01*
X79101001Y-110890323D01*
X79104677Y-110853000D01*
X79101001Y-110815677D01*
X79101001Y-110815668D01*
X79090004Y-110704015D01*
X79046547Y-110560754D01*
X78982923Y-110441723D01*
X78975975Y-110428724D01*
X78904800Y-110341998D01*
X78881002Y-110313000D01*
X78852005Y-110289203D01*
X76727000Y-108164199D01*
X76727000Y-108102061D01*
X76687226Y-107902102D01*
X76609205Y-107713744D01*
X76495937Y-107544226D01*
X76351774Y-107400063D01*
X76182256Y-107286795D01*
X75993898Y-107208774D01*
X75793939Y-107169000D01*
X75590061Y-107169000D01*
X75390102Y-107208774D01*
X75201744Y-107286795D01*
X75032226Y-107400063D01*
X74888063Y-107544226D01*
X74774795Y-107713744D01*
X74696774Y-107902102D01*
X74657000Y-108102061D01*
X74657000Y-108305939D01*
X74696774Y-108505898D01*
X74774795Y-108694256D01*
X74888063Y-108863774D01*
X75032226Y-109007937D01*
X75201744Y-109121205D01*
X75390102Y-109199226D01*
X75590061Y-109239000D01*
X75652199Y-109239000D01*
X77581001Y-111167803D01*
X77581001Y-111893491D01*
X77357335Y-111849000D01*
X77074665Y-111849000D01*
X76892114Y-111885312D01*
X74020001Y-109013200D01*
X74020001Y-107197838D01*
X74066061Y-107207000D01*
X74269939Y-107207000D01*
X74469898Y-107167226D01*
X74658256Y-107089205D01*
X74729292Y-107041740D01*
X83859000Y-107041740D01*
X83859000Y-107334260D01*
X83916068Y-107621158D01*
X84028010Y-107891411D01*
X84190525Y-108134632D01*
X84397368Y-108341475D01*
X84640589Y-108503990D01*
X84910842Y-108615932D01*
X85197740Y-108673000D01*
X85490260Y-108673000D01*
X85777158Y-108615932D01*
X86047411Y-108503990D01*
X86290632Y-108341475D01*
X86422487Y-108209620D01*
X86444498Y-108282180D01*
X86503463Y-108392494D01*
X86582815Y-108489185D01*
X86679506Y-108568537D01*
X86789820Y-108627502D01*
X86909518Y-108663812D01*
X87034000Y-108676072D01*
X88734000Y-108676072D01*
X88858482Y-108663812D01*
X88978180Y-108627502D01*
X89088494Y-108568537D01*
X89185185Y-108489185D01*
X89264537Y-108392494D01*
X89323502Y-108282180D01*
X89359812Y-108162482D01*
X89372072Y-108038000D01*
X89372072Y-106338000D01*
X89359812Y-106213518D01*
X89323502Y-106093820D01*
X89264537Y-105983506D01*
X89185185Y-105886815D01*
X89088494Y-105807463D01*
X88978180Y-105748498D01*
X88897534Y-105724034D01*
X88981588Y-105648269D01*
X89155641Y-105414920D01*
X89280825Y-105152099D01*
X89325476Y-105004890D01*
X89204155Y-104775000D01*
X88011000Y-104775000D01*
X88011000Y-104795000D01*
X87757000Y-104795000D01*
X87757000Y-104775000D01*
X85471000Y-104775000D01*
X85471000Y-104795000D01*
X85217000Y-104795000D01*
X85217000Y-104775000D01*
X84023845Y-104775000D01*
X83902524Y-105004890D01*
X83947175Y-105152099D01*
X84072359Y-105414920D01*
X84246412Y-105648269D01*
X84462645Y-105843178D01*
X84579534Y-105912805D01*
X84397368Y-106034525D01*
X84190525Y-106241368D01*
X84028010Y-106484589D01*
X83916068Y-106754842D01*
X83859000Y-107041740D01*
X74729292Y-107041740D01*
X74827774Y-106975937D01*
X74971937Y-106831774D01*
X75085205Y-106662256D01*
X75163226Y-106473898D01*
X75203000Y-106273939D01*
X75203000Y-106214671D01*
X75216001Y-106204001D01*
X75310974Y-106088276D01*
X75381546Y-105956247D01*
X75425003Y-105812986D01*
X75436000Y-105701333D01*
X75436000Y-105701324D01*
X75439676Y-105664001D01*
X75436000Y-105626678D01*
X75436000Y-102127000D01*
X75502939Y-102127000D01*
X75702898Y-102087226D01*
X75891256Y-102009205D01*
X76060774Y-101895937D01*
X76204937Y-101751774D01*
X76318205Y-101582256D01*
X76396226Y-101393898D01*
X76436000Y-101193939D01*
X76436000Y-100990061D01*
X76396226Y-100790102D01*
X76318205Y-100601744D01*
X76204937Y-100432226D01*
X76161000Y-100388289D01*
X76161000Y-96328017D01*
X76179038Y-96355013D01*
X76364987Y-96540962D01*
X76583641Y-96687061D01*
X76826595Y-96787696D01*
X77084514Y-96839000D01*
X77347486Y-96839000D01*
X77605405Y-96787696D01*
X77848359Y-96687061D01*
X78067013Y-96540962D01*
X78252962Y-96355013D01*
X78399061Y-96136359D01*
X78499696Y-95893405D01*
X78551000Y-95635486D01*
X78551000Y-95372514D01*
X78499696Y-95114595D01*
X78399061Y-94871641D01*
X78252962Y-94652987D01*
X78153975Y-94554000D01*
X78252962Y-94455013D01*
X78328648Y-94341740D01*
X83859000Y-94341740D01*
X83859000Y-94634260D01*
X83916068Y-94921158D01*
X84028010Y-95191411D01*
X84190525Y-95434632D01*
X84397368Y-95641475D01*
X84571760Y-95758000D01*
X84397368Y-95874525D01*
X84190525Y-96081368D01*
X84028010Y-96324589D01*
X83916068Y-96594842D01*
X83859000Y-96881740D01*
X83859000Y-97174260D01*
X83916068Y-97461158D01*
X84028010Y-97731411D01*
X84190525Y-97974632D01*
X84397368Y-98181475D01*
X84571760Y-98298000D01*
X84397368Y-98414525D01*
X84190525Y-98621368D01*
X84028010Y-98864589D01*
X83916068Y-99134842D01*
X83859000Y-99421740D01*
X83859000Y-99714260D01*
X83916068Y-100001158D01*
X84028010Y-100271411D01*
X84190525Y-100514632D01*
X84397368Y-100721475D01*
X84571760Y-100838000D01*
X84397368Y-100954525D01*
X84190525Y-101161368D01*
X84028010Y-101404589D01*
X83916068Y-101674842D01*
X83859000Y-101961740D01*
X83859000Y-102254260D01*
X83916068Y-102541158D01*
X84028010Y-102811411D01*
X84190525Y-103054632D01*
X84397368Y-103261475D01*
X84579534Y-103383195D01*
X84462645Y-103452822D01*
X84246412Y-103647731D01*
X84072359Y-103881080D01*
X83947175Y-104143901D01*
X83902524Y-104291110D01*
X84023845Y-104521000D01*
X85217000Y-104521000D01*
X85217000Y-104501000D01*
X85471000Y-104501000D01*
X85471000Y-104521000D01*
X87757000Y-104521000D01*
X87757000Y-104501000D01*
X88011000Y-104501000D01*
X88011000Y-104521000D01*
X89204155Y-104521000D01*
X89325476Y-104291110D01*
X89280825Y-104143901D01*
X89155641Y-103881080D01*
X89107196Y-103816131D01*
X89237614Y-103946549D01*
X89407132Y-104059817D01*
X89595490Y-104137838D01*
X89795449Y-104177612D01*
X89857587Y-104177612D01*
X90172000Y-104492026D01*
X90172001Y-114612288D01*
X90128063Y-114656226D01*
X90014795Y-114825744D01*
X89936774Y-115014102D01*
X89897000Y-115214061D01*
X89897000Y-115417939D01*
X89936774Y-115617898D01*
X90014795Y-115806256D01*
X90128063Y-115975774D01*
X90272226Y-116119937D01*
X90441744Y-116233205D01*
X90630102Y-116311226D01*
X90830061Y-116351000D01*
X91033939Y-116351000D01*
X91233898Y-116311226D01*
X91422256Y-116233205D01*
X91591774Y-116119937D01*
X91735937Y-115975774D01*
X91849205Y-115806256D01*
X91927226Y-115617898D01*
X91967000Y-115417939D01*
X91967000Y-115214061D01*
X91927226Y-115014102D01*
X91849205Y-114825744D01*
X91735937Y-114656226D01*
X91692000Y-114612289D01*
X91692000Y-104986720D01*
X92712000Y-106006721D01*
X92712001Y-114612288D01*
X92668063Y-114656226D01*
X92554795Y-114825744D01*
X92476774Y-115014102D01*
X92437000Y-115214061D01*
X92437000Y-115417939D01*
X92476774Y-115617898D01*
X92554795Y-115806256D01*
X92668063Y-115975774D01*
X92812226Y-116119937D01*
X92981744Y-116233205D01*
X93170102Y-116311226D01*
X93370061Y-116351000D01*
X93573939Y-116351000D01*
X93773898Y-116311226D01*
X93962256Y-116233205D01*
X94131774Y-116119937D01*
X94275937Y-115975774D01*
X94389205Y-115806256D01*
X94467226Y-115617898D01*
X94507000Y-115417939D01*
X94507000Y-115214061D01*
X94467226Y-115014102D01*
X94389205Y-114825744D01*
X94275937Y-114656226D01*
X94232000Y-114612289D01*
X94232000Y-106501414D01*
X95252000Y-107521414D01*
X95252001Y-114612288D01*
X95208063Y-114656226D01*
X95094795Y-114825744D01*
X95016774Y-115014102D01*
X94977000Y-115214061D01*
X94977000Y-115417939D01*
X95016774Y-115617898D01*
X95094795Y-115806256D01*
X95208063Y-115975774D01*
X95352226Y-116119937D01*
X95521744Y-116233205D01*
X95710102Y-116311226D01*
X95910061Y-116351000D01*
X96113939Y-116351000D01*
X96313898Y-116311226D01*
X96502256Y-116233205D01*
X96671774Y-116119937D01*
X96815937Y-115975774D01*
X96929205Y-115806256D01*
X97007226Y-115617898D01*
X97047000Y-115417939D01*
X97047000Y-115214061D01*
X97007226Y-115014102D01*
X96929205Y-114825744D01*
X96815937Y-114656226D01*
X96772000Y-114612289D01*
X96772000Y-108006802D01*
X97792000Y-109026803D01*
X97792001Y-114612288D01*
X97748063Y-114656226D01*
X97634795Y-114825744D01*
X97556774Y-115014102D01*
X97517000Y-115214061D01*
X97517000Y-115417939D01*
X97556774Y-115617898D01*
X97634795Y-115806256D01*
X97748063Y-115975774D01*
X97892226Y-116119937D01*
X98061744Y-116233205D01*
X98250102Y-116311226D01*
X98450061Y-116351000D01*
X98653939Y-116351000D01*
X98853898Y-116311226D01*
X99042256Y-116233205D01*
X99211774Y-116119937D01*
X99355937Y-115975774D01*
X99469205Y-115806256D01*
X99547226Y-115617898D01*
X99587000Y-115417939D01*
X99587000Y-115214061D01*
X99547226Y-115014102D01*
X99469205Y-114825744D01*
X99355937Y-114656226D01*
X99312000Y-114612289D01*
X99312000Y-108749322D01*
X99315676Y-108711999D01*
X99312000Y-108674676D01*
X99312000Y-108674667D01*
X99301757Y-108570665D01*
X102197000Y-108570665D01*
X102197000Y-108853335D01*
X102252147Y-109130574D01*
X102360320Y-109391727D01*
X102517363Y-109626759D01*
X102717241Y-109826637D01*
X102952273Y-109983680D01*
X103213426Y-110091853D01*
X103490665Y-110147000D01*
X103773335Y-110147000D01*
X104050574Y-110091853D01*
X104311727Y-109983680D01*
X104546759Y-109826637D01*
X104746637Y-109626759D01*
X104850043Y-109472000D01*
X106134678Y-109472000D01*
X106172000Y-109475676D01*
X106209322Y-109472000D01*
X106209333Y-109472000D01*
X106320986Y-109461003D01*
X106464247Y-109417546D01*
X106596276Y-109346974D01*
X106712001Y-109252001D01*
X106735804Y-109222997D01*
X108954302Y-107004500D01*
X109016439Y-107004500D01*
X109216398Y-106964726D01*
X109404756Y-106886705D01*
X109574274Y-106773437D01*
X109718437Y-106629274D01*
X109831705Y-106459756D01*
X109909726Y-106271398D01*
X109949500Y-106071439D01*
X109949500Y-105867561D01*
X109909726Y-105667602D01*
X109831705Y-105479244D01*
X109718437Y-105309726D01*
X109574274Y-105165563D01*
X109404756Y-105052295D01*
X109216398Y-104974274D01*
X109016439Y-104934500D01*
X108812561Y-104934500D01*
X108612602Y-104974274D01*
X108424244Y-105052295D01*
X108254726Y-105165563D01*
X108110563Y-105309726D01*
X107997295Y-105479244D01*
X107919274Y-105667602D01*
X107879500Y-105867561D01*
X107879500Y-105929698D01*
X105857199Y-107952000D01*
X104850043Y-107952000D01*
X104746637Y-107797241D01*
X104546759Y-107597363D01*
X104311727Y-107440320D01*
X104050574Y-107332147D01*
X103773335Y-107277000D01*
X103490665Y-107277000D01*
X103213426Y-107332147D01*
X102952273Y-107440320D01*
X102717241Y-107597363D01*
X102517363Y-107797241D01*
X102360320Y-108032273D01*
X102252147Y-108293426D01*
X102197000Y-108570665D01*
X99301757Y-108570665D01*
X99301003Y-108563014D01*
X99257546Y-108419753D01*
X99186974Y-108287724D01*
X99118264Y-108204000D01*
X99115799Y-108200996D01*
X99115795Y-108200992D01*
X99092001Y-108171999D01*
X99063009Y-108148206D01*
X95559804Y-104645003D01*
X95536001Y-104615999D01*
X95455107Y-104549611D01*
X94476161Y-103570665D01*
X102197000Y-103570665D01*
X102197000Y-103853335D01*
X102252147Y-104130574D01*
X102360320Y-104391727D01*
X102517363Y-104626759D01*
X102717241Y-104826637D01*
X102952273Y-104983680D01*
X103213426Y-105091853D01*
X103490665Y-105147000D01*
X103773335Y-105147000D01*
X104050574Y-105091853D01*
X104311727Y-104983680D01*
X104546759Y-104826637D01*
X104746637Y-104626759D01*
X104903680Y-104391727D01*
X105011853Y-104130574D01*
X105067000Y-103853335D01*
X105067000Y-103570665D01*
X105011853Y-103293426D01*
X104903680Y-103032273D01*
X104746637Y-102797241D01*
X104546759Y-102597363D01*
X104311727Y-102440320D01*
X104050574Y-102332147D01*
X103773335Y-102277000D01*
X103490665Y-102277000D01*
X103213426Y-102332147D01*
X102952273Y-102440320D01*
X102717241Y-102597363D01*
X102517363Y-102797241D01*
X102360320Y-103032273D01*
X102252147Y-103293426D01*
X102197000Y-103570665D01*
X94476161Y-103570665D01*
X90946347Y-100040852D01*
X90946347Y-99978714D01*
X90906573Y-99778755D01*
X90828552Y-99590397D01*
X90715284Y-99420879D01*
X90571121Y-99276716D01*
X90401603Y-99163448D01*
X90213245Y-99085427D01*
X90013286Y-99045653D01*
X89809408Y-99045653D01*
X89609449Y-99085427D01*
X89421091Y-99163448D01*
X89329761Y-99224473D01*
X89311932Y-99134842D01*
X89199990Y-98864589D01*
X89037475Y-98621368D01*
X88830632Y-98414525D01*
X88656240Y-98298000D01*
X88830632Y-98181475D01*
X89037475Y-97974632D01*
X89199990Y-97731411D01*
X89311932Y-97461158D01*
X89369000Y-97174260D01*
X89369000Y-96881740D01*
X89311932Y-96594842D01*
X89199990Y-96324589D01*
X89037475Y-96081368D01*
X88830632Y-95874525D01*
X88656240Y-95758000D01*
X88830632Y-95641475D01*
X89037475Y-95434632D01*
X89199990Y-95191411D01*
X89311932Y-94921158D01*
X89369000Y-94634260D01*
X89369000Y-94341740D01*
X89311932Y-94054842D01*
X89199990Y-93784589D01*
X89037475Y-93541368D01*
X88830632Y-93334525D01*
X88587411Y-93172010D01*
X88317158Y-93060068D01*
X88030260Y-93003000D01*
X87737740Y-93003000D01*
X87450842Y-93060068D01*
X87180589Y-93172010D01*
X86937368Y-93334525D01*
X86730525Y-93541368D01*
X86614000Y-93715760D01*
X86497475Y-93541368D01*
X86290632Y-93334525D01*
X86047411Y-93172010D01*
X85777158Y-93060068D01*
X85490260Y-93003000D01*
X85197740Y-93003000D01*
X84910842Y-93060068D01*
X84640589Y-93172010D01*
X84397368Y-93334525D01*
X84190525Y-93541368D01*
X84028010Y-93784589D01*
X83916068Y-94054842D01*
X83859000Y-94341740D01*
X78328648Y-94341740D01*
X78399061Y-94236359D01*
X78499696Y-93993405D01*
X78551000Y-93735486D01*
X78551000Y-93472514D01*
X78529645Y-93365156D01*
X83061003Y-88833799D01*
X83090001Y-88810001D01*
X83120346Y-88773026D01*
X83184974Y-88694277D01*
X83255546Y-88562247D01*
X83291723Y-88442985D01*
X83299003Y-88418986D01*
X83310000Y-88307333D01*
X83310000Y-88307324D01*
X83313676Y-88270001D01*
X83310000Y-88232678D01*
X83310000Y-86784000D01*
X91225928Y-86784000D01*
X91225928Y-88984000D01*
X91238188Y-89108482D01*
X91274498Y-89228180D01*
X91333463Y-89338494D01*
X91412815Y-89435185D01*
X91509506Y-89514537D01*
X91619820Y-89573502D01*
X91739518Y-89609812D01*
X91864000Y-89622072D01*
X94064000Y-89622072D01*
X94188482Y-89609812D01*
X94308180Y-89573502D01*
X94418494Y-89514537D01*
X94515185Y-89435185D01*
X94594537Y-89338494D01*
X94653502Y-89228180D01*
X94689812Y-89108482D01*
X94702072Y-88984000D01*
X94702072Y-86784000D01*
X94700306Y-86766061D01*
X95990000Y-86766061D01*
X95990000Y-86969939D01*
X96029774Y-87169898D01*
X96107795Y-87358256D01*
X96221063Y-87527774D01*
X96265001Y-87571712D01*
X96265000Y-88969461D01*
X96261324Y-89006784D01*
X96265000Y-89044106D01*
X96265000Y-89044116D01*
X96275997Y-89155769D01*
X96307316Y-89259015D01*
X96319454Y-89299030D01*
X96390026Y-89431060D01*
X96410166Y-89455600D01*
X96484999Y-89546785D01*
X96514003Y-89570588D01*
X97501271Y-90557856D01*
X97384226Y-90636063D01*
X97240063Y-90780226D01*
X97126795Y-90949744D01*
X97048774Y-91138102D01*
X97009000Y-91338061D01*
X97009000Y-91541939D01*
X97048774Y-91741898D01*
X97126795Y-91930256D01*
X97240063Y-92099774D01*
X97384226Y-92243937D01*
X97553744Y-92357205D01*
X97742102Y-92435226D01*
X97792000Y-92445151D01*
X97792001Y-93784288D01*
X97748063Y-93828226D01*
X97634795Y-93997744D01*
X97556774Y-94186102D01*
X97517000Y-94386061D01*
X97517000Y-94589939D01*
X97556774Y-94789898D01*
X97634795Y-94978256D01*
X97748063Y-95147774D01*
X97892226Y-95291937D01*
X98061744Y-95405205D01*
X98250102Y-95483226D01*
X98450061Y-95523000D01*
X98653939Y-95523000D01*
X98853898Y-95483226D01*
X99042256Y-95405205D01*
X99211774Y-95291937D01*
X99355937Y-95147774D01*
X99469205Y-94978256D01*
X99547226Y-94789898D01*
X99587000Y-94589939D01*
X99587000Y-94386061D01*
X99547226Y-94186102D01*
X99469205Y-93997744D01*
X99355937Y-93828226D01*
X99312000Y-93784289D01*
X99312000Y-91985322D01*
X99315676Y-91947999D01*
X99312000Y-91910676D01*
X99312000Y-91910667D01*
X99301003Y-91799014D01*
X99257546Y-91655753D01*
X99251060Y-91643618D01*
X99410882Y-91536829D01*
X99555045Y-91392666D01*
X99668313Y-91223148D01*
X99746334Y-91034790D01*
X99786108Y-90834831D01*
X99786108Y-90630953D01*
X99746334Y-90430994D01*
X99668313Y-90242636D01*
X99555045Y-90073118D01*
X99410882Y-89928955D01*
X99241364Y-89815687D01*
X99053006Y-89737666D01*
X98853047Y-89697892D01*
X98790910Y-89697892D01*
X97785000Y-88691983D01*
X97785000Y-88280122D01*
X101434825Y-88280122D01*
X101499425Y-88493094D01*
X101649469Y-88798329D01*
X101856178Y-89068427D01*
X102111609Y-89293008D01*
X102405946Y-89463442D01*
X102727877Y-89573179D01*
X102997000Y-89455600D01*
X102997000Y-88011000D01*
X103251000Y-88011000D01*
X103251000Y-89455600D01*
X103520123Y-89573179D01*
X103842054Y-89463442D01*
X104136391Y-89293008D01*
X104391822Y-89068427D01*
X104598531Y-88798329D01*
X104748575Y-88493094D01*
X104813175Y-88280122D01*
X104695125Y-88011000D01*
X103251000Y-88011000D01*
X102997000Y-88011000D01*
X101552875Y-88011000D01*
X101434825Y-88280122D01*
X97785000Y-88280122D01*
X97785000Y-87571711D01*
X97828937Y-87527774D01*
X97855594Y-87487878D01*
X101434825Y-87487878D01*
X101552875Y-87757000D01*
X102997000Y-87757000D01*
X102997000Y-86312400D01*
X103251000Y-86312400D01*
X103251000Y-87757000D01*
X104695125Y-87757000D01*
X104813175Y-87487878D01*
X104748575Y-87274906D01*
X104598531Y-86969671D01*
X104391822Y-86699573D01*
X104136391Y-86474992D01*
X103842054Y-86304558D01*
X103520123Y-86194821D01*
X103251000Y-86312400D01*
X102997000Y-86312400D01*
X102727877Y-86194821D01*
X102405946Y-86304558D01*
X102111609Y-86474992D01*
X101856178Y-86699573D01*
X101649469Y-86969671D01*
X101499425Y-87274906D01*
X101434825Y-87487878D01*
X97855594Y-87487878D01*
X97942205Y-87358256D01*
X98020226Y-87169898D01*
X98060000Y-86969939D01*
X98060000Y-86766061D01*
X98020226Y-86566102D01*
X97942205Y-86377744D01*
X97828937Y-86208226D01*
X97684774Y-86064063D01*
X97515256Y-85950795D01*
X97326898Y-85872774D01*
X97126939Y-85833000D01*
X96923061Y-85833000D01*
X96723102Y-85872774D01*
X96534744Y-85950795D01*
X96365226Y-86064063D01*
X96221063Y-86208226D01*
X96107795Y-86377744D01*
X96029774Y-86566102D01*
X95990000Y-86766061D01*
X94700306Y-86766061D01*
X94689812Y-86659518D01*
X94653502Y-86539820D01*
X94594537Y-86429506D01*
X94515185Y-86332815D01*
X94418494Y-86253463D01*
X94308180Y-86194498D01*
X94188482Y-86158188D01*
X94064000Y-86145928D01*
X91864000Y-86145928D01*
X91739518Y-86158188D01*
X91619820Y-86194498D01*
X91509506Y-86253463D01*
X91412815Y-86332815D01*
X91333463Y-86429506D01*
X91274498Y-86539820D01*
X91238188Y-86659518D01*
X91225928Y-86784000D01*
X83310000Y-86784000D01*
X83310000Y-71288072D01*
X83350000Y-71288072D01*
X83474482Y-71275812D01*
X83594180Y-71239502D01*
X83704494Y-71180537D01*
X83801185Y-71101185D01*
X83880537Y-71004494D01*
X83939502Y-70894180D01*
X83975812Y-70774482D01*
X83988072Y-70650000D01*
X83988072Y-69050000D01*
X86191928Y-69050000D01*
X86191928Y-70650000D01*
X86204188Y-70774482D01*
X86240498Y-70894180D01*
X86299463Y-71004494D01*
X86378815Y-71101185D01*
X86475506Y-71180537D01*
X86585820Y-71239502D01*
X86705518Y-71275812D01*
X86830000Y-71288072D01*
X88430000Y-71288072D01*
X88554482Y-71275812D01*
X88674180Y-71239502D01*
X88784494Y-71180537D01*
X88881185Y-71101185D01*
X88960537Y-71004494D01*
X89019502Y-70894180D01*
X89035117Y-70842702D01*
X89316903Y-70842702D01*
X89388486Y-71086671D01*
X89643996Y-71207571D01*
X89918184Y-71276300D01*
X90200512Y-71290217D01*
X90480130Y-71248787D01*
X90746292Y-71153603D01*
X90871514Y-71086671D01*
X90943097Y-70842702D01*
X90130000Y-70029605D01*
X89316903Y-70842702D01*
X89035117Y-70842702D01*
X89055812Y-70774482D01*
X89068072Y-70650000D01*
X89068072Y-70642785D01*
X89137298Y-70663097D01*
X89950395Y-69850000D01*
X90309605Y-69850000D01*
X91122702Y-70663097D01*
X91167339Y-70650000D01*
X93811928Y-70650000D01*
X93824188Y-70774482D01*
X93860498Y-70894180D01*
X93919463Y-71004494D01*
X93998815Y-71101185D01*
X94095506Y-71180537D01*
X94205820Y-71239502D01*
X94325518Y-71275812D01*
X94450000Y-71288072D01*
X94964250Y-71285000D01*
X95123000Y-71126250D01*
X95123000Y-69977000D01*
X93973750Y-69977000D01*
X93815000Y-70135750D01*
X93811928Y-70650000D01*
X91167339Y-70650000D01*
X91366671Y-70591514D01*
X91487571Y-70336004D01*
X91556300Y-70061816D01*
X91570217Y-69779488D01*
X91528787Y-69499870D01*
X91433603Y-69233708D01*
X91366671Y-69108486D01*
X91167340Y-69050000D01*
X93811928Y-69050000D01*
X93815000Y-69564250D01*
X93973750Y-69723000D01*
X95123000Y-69723000D01*
X95123000Y-68573750D01*
X95377000Y-68573750D01*
X95377000Y-69723000D01*
X95397000Y-69723000D01*
X95397000Y-69977000D01*
X95377000Y-69977000D01*
X95377000Y-71126250D01*
X95535750Y-71285000D01*
X96050000Y-71288072D01*
X96174482Y-71275812D01*
X96294180Y-71239502D01*
X96404494Y-71180537D01*
X96501185Y-71101185D01*
X96580537Y-71004494D01*
X96639502Y-70894180D01*
X96668661Y-70798057D01*
X96835241Y-70964637D01*
X97070273Y-71121680D01*
X97331426Y-71229853D01*
X97608665Y-71285000D01*
X97891335Y-71285000D01*
X98168574Y-71229853D01*
X98429727Y-71121680D01*
X98664759Y-70964637D01*
X98864637Y-70764759D01*
X99021680Y-70529727D01*
X99129853Y-70268574D01*
X99185000Y-69991335D01*
X99185000Y-69708665D01*
X99129853Y-69431426D01*
X99021680Y-69170273D01*
X98864637Y-68935241D01*
X98664759Y-68735363D01*
X98429727Y-68578320D01*
X98168574Y-68470147D01*
X97891335Y-68415000D01*
X97608665Y-68415000D01*
X97331426Y-68470147D01*
X97070273Y-68578320D01*
X96835241Y-68735363D01*
X96668661Y-68901943D01*
X96639502Y-68805820D01*
X96580537Y-68695506D01*
X96501185Y-68598815D01*
X96404494Y-68519463D01*
X96294180Y-68460498D01*
X96174482Y-68424188D01*
X96050000Y-68411928D01*
X95535750Y-68415000D01*
X95377000Y-68573750D01*
X95123000Y-68573750D01*
X94964250Y-68415000D01*
X94450000Y-68411928D01*
X94325518Y-68424188D01*
X94205820Y-68460498D01*
X94095506Y-68519463D01*
X93998815Y-68598815D01*
X93919463Y-68695506D01*
X93860498Y-68805820D01*
X93824188Y-68925518D01*
X93811928Y-69050000D01*
X91167340Y-69050000D01*
X91122702Y-69036903D01*
X90309605Y-69850000D01*
X89950395Y-69850000D01*
X89137298Y-69036903D01*
X89068072Y-69057215D01*
X89068072Y-69050000D01*
X89055812Y-68925518D01*
X89035118Y-68857298D01*
X89316903Y-68857298D01*
X90130000Y-69670395D01*
X90943097Y-68857298D01*
X90871514Y-68613329D01*
X90616004Y-68492429D01*
X90341816Y-68423700D01*
X90059488Y-68409783D01*
X89779870Y-68451213D01*
X89513708Y-68546397D01*
X89388486Y-68613329D01*
X89316903Y-68857298D01*
X89035118Y-68857298D01*
X89019502Y-68805820D01*
X88960537Y-68695506D01*
X88881185Y-68598815D01*
X88784494Y-68519463D01*
X88674180Y-68460498D01*
X88554482Y-68424188D01*
X88430000Y-68411928D01*
X86830000Y-68411928D01*
X86705518Y-68424188D01*
X86585820Y-68460498D01*
X86475506Y-68519463D01*
X86378815Y-68598815D01*
X86299463Y-68695506D01*
X86240498Y-68805820D01*
X86204188Y-68925518D01*
X86191928Y-69050000D01*
X83988072Y-69050000D01*
X83975812Y-68925518D01*
X83939502Y-68805820D01*
X83880537Y-68695506D01*
X83801185Y-68598815D01*
X83704494Y-68519463D01*
X83594180Y-68460498D01*
X83474482Y-68424188D01*
X83350000Y-68411928D01*
X81750000Y-68411928D01*
X81625518Y-68424188D01*
X81505820Y-68460498D01*
X81395506Y-68519463D01*
X81298815Y-68598815D01*
X81219463Y-68695506D01*
X81160498Y-68805820D01*
X81124188Y-68925518D01*
X81111928Y-69050000D01*
X81111928Y-69057215D01*
X81042702Y-69036903D01*
X80229605Y-69850000D01*
X81042702Y-70663097D01*
X81111928Y-70642785D01*
X81111928Y-70650000D01*
X81124188Y-70774482D01*
X81160498Y-70894180D01*
X81219463Y-71004494D01*
X81298815Y-71101185D01*
X81395506Y-71180537D01*
X81505820Y-71239502D01*
X81625518Y-71275812D01*
X81750000Y-71288072D01*
X81790000Y-71288072D01*
X81790001Y-87955197D01*
X77454844Y-92290355D01*
X77347486Y-92269000D01*
X77084514Y-92269000D01*
X76826595Y-92320304D01*
X76583641Y-92420939D01*
X76364987Y-92567038D01*
X76179038Y-92752987D01*
X76161000Y-92779983D01*
X76161000Y-90678322D01*
X76164676Y-90640999D01*
X76161000Y-90603676D01*
X76161000Y-90603667D01*
X76150003Y-90492014D01*
X76106546Y-90348753D01*
X76035974Y-90216724D01*
X75941001Y-90100999D01*
X75912004Y-90077202D01*
X75203000Y-89368199D01*
X75203000Y-89306061D01*
X75163226Y-89106102D01*
X75085205Y-88917744D01*
X74971937Y-88748226D01*
X74827774Y-88604063D01*
X74658256Y-88490795D01*
X74469898Y-88412774D01*
X74269939Y-88373000D01*
X74066061Y-88373000D01*
X74020001Y-88382162D01*
X74020001Y-85002000D01*
X77251928Y-85002000D01*
X77251928Y-86702000D01*
X77264188Y-86826482D01*
X77300498Y-86946180D01*
X77359463Y-87056494D01*
X77438815Y-87153185D01*
X77535506Y-87232537D01*
X77645820Y-87291502D01*
X77765518Y-87327812D01*
X77890000Y-87340072D01*
X79590000Y-87340072D01*
X79714482Y-87327812D01*
X79834180Y-87291502D01*
X79944494Y-87232537D01*
X80041185Y-87153185D01*
X80120537Y-87056494D01*
X80179502Y-86946180D01*
X80215812Y-86826482D01*
X80228072Y-86702000D01*
X80228072Y-85002000D01*
X80215812Y-84877518D01*
X80179502Y-84757820D01*
X80120537Y-84647506D01*
X80041185Y-84550815D01*
X79944494Y-84471463D01*
X79834180Y-84412498D01*
X79761620Y-84390487D01*
X79893475Y-84258632D01*
X80055990Y-84015411D01*
X80167932Y-83745158D01*
X80225000Y-83458260D01*
X80225000Y-83165740D01*
X80167932Y-82878842D01*
X80055990Y-82608589D01*
X79893475Y-82365368D01*
X79686632Y-82158525D01*
X79512240Y-82042000D01*
X79686632Y-81925475D01*
X79893475Y-81718632D01*
X80055990Y-81475411D01*
X80167932Y-81205158D01*
X80225000Y-80918260D01*
X80225000Y-80625740D01*
X80167932Y-80338842D01*
X80055990Y-80068589D01*
X79893475Y-79825368D01*
X79686632Y-79618525D01*
X79443411Y-79456010D01*
X79173158Y-79344068D01*
X78886260Y-79287000D01*
X78593740Y-79287000D01*
X78306842Y-79344068D01*
X78036589Y-79456010D01*
X77793368Y-79618525D01*
X77586525Y-79825368D01*
X77424010Y-80068589D01*
X77312068Y-80338842D01*
X77255000Y-80625740D01*
X77255000Y-80918260D01*
X77312068Y-81205158D01*
X77424010Y-81475411D01*
X77586525Y-81718632D01*
X77793368Y-81925475D01*
X77967760Y-82042000D01*
X77793368Y-82158525D01*
X77586525Y-82365368D01*
X77424010Y-82608589D01*
X77312068Y-82878842D01*
X77255000Y-83165740D01*
X77255000Y-83458260D01*
X77312068Y-83745158D01*
X77424010Y-84015411D01*
X77586525Y-84258632D01*
X77718380Y-84390487D01*
X77645820Y-84412498D01*
X77535506Y-84471463D01*
X77438815Y-84550815D01*
X77359463Y-84647506D01*
X77300498Y-84757820D01*
X77264188Y-84877518D01*
X77251928Y-85002000D01*
X74020001Y-85002000D01*
X74020001Y-77171159D01*
X74150256Y-77117205D01*
X74319774Y-77003937D01*
X74463937Y-76859774D01*
X74577205Y-76690256D01*
X74655226Y-76501898D01*
X74695000Y-76301939D01*
X74695000Y-76098061D01*
X74655226Y-75898102D01*
X74577205Y-75709744D01*
X74463937Y-75540226D01*
X74319774Y-75396063D01*
X74150256Y-75282795D01*
X73961898Y-75204774D01*
X73761939Y-75165000D01*
X73558061Y-75165000D01*
X73358102Y-75204774D01*
X73169744Y-75282795D01*
X73000226Y-75396063D01*
X72856063Y-75540226D01*
X72742795Y-75709744D01*
X72664774Y-75898102D01*
X72625000Y-76098061D01*
X72625000Y-76175774D01*
X72612050Y-76200001D01*
X72554455Y-76307753D01*
X72510998Y-76451014D01*
X72500001Y-76562667D01*
X72500001Y-76562677D01*
X72496325Y-76599999D01*
X72500001Y-76637321D01*
X72500002Y-90494659D01*
X72500001Y-90494669D01*
X72500002Y-93049196D01*
X72096198Y-93453000D01*
X72050072Y-93453000D01*
X72050072Y-92164000D01*
X72037812Y-92039518D01*
X72001502Y-91919820D01*
X71942537Y-91809506D01*
X71863185Y-91712815D01*
X71766494Y-91633463D01*
X71656180Y-91574498D01*
X71536482Y-91538188D01*
X71412000Y-91525928D01*
X69812000Y-91525928D01*
X69687518Y-91538188D01*
X69567820Y-91574498D01*
X69457506Y-91633463D01*
X69360815Y-91712815D01*
X69281463Y-91809506D01*
X69222498Y-91919820D01*
X69186188Y-92039518D01*
X69173928Y-92164000D01*
X69173928Y-93764000D01*
X69186188Y-93888482D01*
X69222498Y-94008180D01*
X69281463Y-94118494D01*
X69360815Y-94215185D01*
X69457506Y-94294537D01*
X69567820Y-94353502D01*
X69687518Y-94389812D01*
X69812000Y-94402072D01*
X71101000Y-94402072D01*
X71101000Y-94589939D01*
X71140774Y-94789898D01*
X71218795Y-94978256D01*
X71332063Y-95147774D01*
X71434289Y-95250000D01*
X71332063Y-95352226D01*
X71218795Y-95521744D01*
X71164841Y-95651999D01*
X68869459Y-95651999D01*
X68899000Y-95503486D01*
X68899000Y-95240514D01*
X68847696Y-94982595D01*
X68747061Y-94739641D01*
X68600962Y-94520987D01*
X68501975Y-94422000D01*
X68600962Y-94323013D01*
X68747061Y-94104359D01*
X68847696Y-93861405D01*
X68899000Y-93603486D01*
X68899000Y-93340514D01*
X68847696Y-93082595D01*
X68747061Y-92839641D01*
X68600962Y-92620987D01*
X68415013Y-92435038D01*
X68196359Y-92288939D01*
X67953405Y-92188304D01*
X67695486Y-92137000D01*
X67432514Y-92137000D01*
X67174595Y-92188304D01*
X66931641Y-92288939D01*
X66712987Y-92435038D01*
X66527038Y-92620987D01*
X66380939Y-92839641D01*
X66280304Y-93082595D01*
X66229000Y-93340514D01*
X66229000Y-93603486D01*
X66280304Y-93861405D01*
X66380939Y-94104359D01*
X66527038Y-94323013D01*
X66626025Y-94422000D01*
X66527038Y-94520987D01*
X66380939Y-94739641D01*
X66280304Y-94982595D01*
X66229000Y-95240514D01*
X66229000Y-95245289D01*
X66191774Y-95208063D01*
X66022256Y-95094795D01*
X65833898Y-95016774D01*
X65633939Y-94977000D01*
X65430061Y-94977000D01*
X65230102Y-95016774D01*
X65041744Y-95094795D01*
X64872226Y-95208063D01*
X64728063Y-95352226D01*
X64614795Y-95521744D01*
X64536774Y-95710102D01*
X64497000Y-95910061D01*
X39016686Y-95910061D01*
X38960033Y-85202665D01*
X69177000Y-85202665D01*
X69177000Y-85485335D01*
X69232147Y-85762574D01*
X69340320Y-86023727D01*
X69497363Y-86258759D01*
X69697241Y-86458637D01*
X69932273Y-86615680D01*
X70193426Y-86723853D01*
X70470665Y-86779000D01*
X70753335Y-86779000D01*
X71030574Y-86723853D01*
X71291727Y-86615680D01*
X71526759Y-86458637D01*
X71726637Y-86258759D01*
X71883680Y-86023727D01*
X71991853Y-85762574D01*
X72047000Y-85485335D01*
X72047000Y-85202665D01*
X71991853Y-84925426D01*
X71883680Y-84664273D01*
X71726637Y-84429241D01*
X71526759Y-84229363D01*
X71291727Y-84072320D01*
X71030574Y-83964147D01*
X70753335Y-83909000D01*
X70470665Y-83909000D01*
X70193426Y-83964147D01*
X69932273Y-84072320D01*
X69697241Y-84229363D01*
X69497363Y-84429241D01*
X69340320Y-84664273D01*
X69232147Y-84925426D01*
X69177000Y-85202665D01*
X38960033Y-85202665D01*
X38884055Y-70842702D01*
X79236903Y-70842702D01*
X79308486Y-71086671D01*
X79563996Y-71207571D01*
X79838184Y-71276300D01*
X80120512Y-71290217D01*
X80400130Y-71248787D01*
X80666292Y-71153603D01*
X80791514Y-71086671D01*
X80863097Y-70842702D01*
X80050000Y-70029605D01*
X79236903Y-70842702D01*
X38884055Y-70842702D01*
X38879175Y-69920512D01*
X78609783Y-69920512D01*
X78651213Y-70200130D01*
X78746397Y-70466292D01*
X78813329Y-70591514D01*
X79057298Y-70663097D01*
X79870395Y-69850000D01*
X79057298Y-69036903D01*
X78813329Y-69108486D01*
X78692429Y-69363996D01*
X78623700Y-69638184D01*
X78609783Y-69920512D01*
X38879175Y-69920512D01*
X38873550Y-68857298D01*
X79236903Y-68857298D01*
X80050000Y-69670395D01*
X80863097Y-68857298D01*
X80791514Y-68613329D01*
X80536004Y-68492429D01*
X80261816Y-68423700D01*
X79979488Y-68409783D01*
X79699870Y-68451213D01*
X79433708Y-68546397D01*
X79308486Y-68613329D01*
X79236903Y-68857298D01*
X38873550Y-68857298D01*
X38835101Y-61590514D01*
X83755000Y-61590514D01*
X83755000Y-61853486D01*
X83806304Y-62111405D01*
X83906939Y-62354359D01*
X84053038Y-62573013D01*
X84152025Y-62672000D01*
X84053038Y-62770987D01*
X83906939Y-62989641D01*
X83806304Y-63232595D01*
X83755000Y-63490514D01*
X83755000Y-63753486D01*
X83806304Y-64011405D01*
X83906939Y-64254359D01*
X84053038Y-64473013D01*
X84238987Y-64658962D01*
X84457641Y-64805061D01*
X84700595Y-64905696D01*
X84958514Y-64957000D01*
X85221486Y-64957000D01*
X85479405Y-64905696D01*
X85722359Y-64805061D01*
X85941013Y-64658962D01*
X86126962Y-64473013D01*
X86273061Y-64254359D01*
X86373696Y-64011405D01*
X86425000Y-63753486D01*
X86425000Y-63490514D01*
X86373696Y-63232595D01*
X86273061Y-62989641D01*
X86126962Y-62770987D01*
X86027975Y-62672000D01*
X86126962Y-62573013D01*
X86273061Y-62354359D01*
X86373696Y-62111405D01*
X86425000Y-61853486D01*
X86425000Y-61590514D01*
X86400733Y-61468514D01*
X90867000Y-61468514D01*
X90867000Y-61731486D01*
X90918304Y-61989405D01*
X91018939Y-62232359D01*
X91165038Y-62451013D01*
X91264025Y-62550000D01*
X91165038Y-62648987D01*
X91018939Y-62867641D01*
X90918304Y-63110595D01*
X90867000Y-63368514D01*
X90867000Y-63631486D01*
X90918304Y-63889405D01*
X91018939Y-64132359D01*
X91165038Y-64351013D01*
X91350987Y-64536962D01*
X91569641Y-64683061D01*
X91812595Y-64783696D01*
X92070514Y-64835000D01*
X92333486Y-64835000D01*
X92591405Y-64783696D01*
X92834359Y-64683061D01*
X93053013Y-64536962D01*
X93238962Y-64351013D01*
X93385061Y-64132359D01*
X93485696Y-63889405D01*
X93537000Y-63631486D01*
X93537000Y-63368514D01*
X93485696Y-63110595D01*
X93385061Y-62867641D01*
X93238962Y-62648987D01*
X93139975Y-62550000D01*
X93238962Y-62451013D01*
X93385061Y-62232359D01*
X93485696Y-61989405D01*
X93537000Y-61731486D01*
X93537000Y-61468514D01*
X98233000Y-61468514D01*
X98233000Y-61731486D01*
X98284304Y-61989405D01*
X98384939Y-62232359D01*
X98531038Y-62451013D01*
X98630025Y-62550000D01*
X98531038Y-62648987D01*
X98384939Y-62867641D01*
X98284304Y-63110595D01*
X98233000Y-63368514D01*
X98233000Y-63631486D01*
X98284304Y-63889405D01*
X98384939Y-64132359D01*
X98531038Y-64351013D01*
X98716987Y-64536962D01*
X98935641Y-64683061D01*
X99178595Y-64783696D01*
X99436514Y-64835000D01*
X99699486Y-64835000D01*
X99957405Y-64783696D01*
X100200359Y-64683061D01*
X100419013Y-64536962D01*
X100604962Y-64351013D01*
X100751061Y-64132359D01*
X100851696Y-63889405D01*
X100903000Y-63631486D01*
X100903000Y-63368514D01*
X100851696Y-63110595D01*
X100751061Y-62867641D01*
X100604962Y-62648987D01*
X100505975Y-62550000D01*
X100604962Y-62451013D01*
X100751061Y-62232359D01*
X100851696Y-61989405D01*
X100903000Y-61731486D01*
X100903000Y-61468514D01*
X100851696Y-61210595D01*
X100751061Y-60967641D01*
X100604962Y-60748987D01*
X100419013Y-60563038D01*
X100200359Y-60416939D01*
X99957405Y-60316304D01*
X99699486Y-60265000D01*
X99436514Y-60265000D01*
X99178595Y-60316304D01*
X98935641Y-60416939D01*
X98716987Y-60563038D01*
X98531038Y-60748987D01*
X98384939Y-60967641D01*
X98284304Y-61210595D01*
X98233000Y-61468514D01*
X93537000Y-61468514D01*
X93485696Y-61210595D01*
X93385061Y-60967641D01*
X93238962Y-60748987D01*
X93053013Y-60563038D01*
X92834359Y-60416939D01*
X92591405Y-60316304D01*
X92333486Y-60265000D01*
X92070514Y-60265000D01*
X91812595Y-60316304D01*
X91569641Y-60416939D01*
X91350987Y-60563038D01*
X91165038Y-60748987D01*
X91018939Y-60967641D01*
X90918304Y-61210595D01*
X90867000Y-61468514D01*
X86400733Y-61468514D01*
X86373696Y-61332595D01*
X86273061Y-61089641D01*
X86126962Y-60870987D01*
X85941013Y-60685038D01*
X85722359Y-60538939D01*
X85479405Y-60438304D01*
X85221486Y-60387000D01*
X84958514Y-60387000D01*
X84700595Y-60438304D01*
X84457641Y-60538939D01*
X84238987Y-60685038D01*
X84053038Y-60870987D01*
X83906939Y-61089641D01*
X83806304Y-61332595D01*
X83755000Y-61590514D01*
X38835101Y-61590514D01*
X38811140Y-57062000D01*
X68107928Y-57062000D01*
X68107928Y-58762000D01*
X68120188Y-58886482D01*
X68156498Y-59006180D01*
X68215463Y-59116494D01*
X68294815Y-59213185D01*
X68391506Y-59292537D01*
X68501820Y-59351502D01*
X68621518Y-59387812D01*
X68746000Y-59400072D01*
X70446000Y-59400072D01*
X70570482Y-59387812D01*
X70690180Y-59351502D01*
X70800494Y-59292537D01*
X70897185Y-59213185D01*
X70976537Y-59116494D01*
X71035502Y-59006180D01*
X71071812Y-58886482D01*
X71084072Y-58762000D01*
X71084072Y-57062000D01*
X71071812Y-56937518D01*
X71035502Y-56817820D01*
X70976537Y-56707506D01*
X70897185Y-56610815D01*
X70800494Y-56531463D01*
X70690180Y-56472498D01*
X70609534Y-56448034D01*
X70693588Y-56372269D01*
X70867641Y-56138920D01*
X70992825Y-55876099D01*
X71037476Y-55728890D01*
X70916155Y-55499000D01*
X69723000Y-55499000D01*
X69723000Y-55519000D01*
X69469000Y-55519000D01*
X69469000Y-55499000D01*
X68275845Y-55499000D01*
X68154524Y-55728890D01*
X68199175Y-55876099D01*
X68324359Y-56138920D01*
X68498412Y-56372269D01*
X68582466Y-56448034D01*
X68501820Y-56472498D01*
X68391506Y-56531463D01*
X68294815Y-56610815D01*
X68215463Y-56707506D01*
X68156498Y-56817820D01*
X68120188Y-56937518D01*
X68107928Y-57062000D01*
X38811140Y-57062000D01*
X38800310Y-55015110D01*
X68154524Y-55015110D01*
X68275845Y-55245000D01*
X69469000Y-55245000D01*
X69469000Y-54051186D01*
X69723000Y-54051186D01*
X69723000Y-55245000D01*
X70916155Y-55245000D01*
X70993341Y-55098740D01*
X77890000Y-55098740D01*
X77890000Y-55391260D01*
X77947068Y-55678158D01*
X78059010Y-55948411D01*
X78221525Y-56191632D01*
X78428368Y-56398475D01*
X78602760Y-56515000D01*
X78428368Y-56631525D01*
X78221525Y-56838368D01*
X78059010Y-57081589D01*
X77947068Y-57351842D01*
X77890000Y-57638740D01*
X77890000Y-57931260D01*
X77947068Y-58218158D01*
X78059010Y-58488411D01*
X78221525Y-58731632D01*
X78428368Y-58938475D01*
X78671589Y-59100990D01*
X78941842Y-59212932D01*
X79228740Y-59270000D01*
X79521260Y-59270000D01*
X79808158Y-59212932D01*
X80078411Y-59100990D01*
X80321632Y-58938475D01*
X80528475Y-58731632D01*
X80645000Y-58557240D01*
X80761525Y-58731632D01*
X80968368Y-58938475D01*
X81211589Y-59100990D01*
X81481842Y-59212932D01*
X81768740Y-59270000D01*
X82061260Y-59270000D01*
X82348158Y-59212932D01*
X82618411Y-59100990D01*
X82861632Y-58938475D01*
X83068475Y-58731632D01*
X83185000Y-58557240D01*
X83301525Y-58731632D01*
X83508368Y-58938475D01*
X83751589Y-59100990D01*
X84021842Y-59212932D01*
X84308740Y-59270000D01*
X84601260Y-59270000D01*
X84888158Y-59212932D01*
X85158411Y-59100990D01*
X85401632Y-58938475D01*
X85608475Y-58731632D01*
X85725000Y-58557240D01*
X85841525Y-58731632D01*
X86048368Y-58938475D01*
X86291589Y-59100990D01*
X86561842Y-59212932D01*
X86848740Y-59270000D01*
X87141260Y-59270000D01*
X87428158Y-59212932D01*
X87698411Y-59100990D01*
X87941632Y-58938475D01*
X88148475Y-58731632D01*
X88270195Y-58549466D01*
X88339822Y-58666355D01*
X88534731Y-58882588D01*
X88768080Y-59056641D01*
X89030901Y-59181825D01*
X89178110Y-59226476D01*
X89408000Y-59105155D01*
X89408000Y-57912000D01*
X89662000Y-57912000D01*
X89662000Y-59105155D01*
X89891890Y-59226476D01*
X90039099Y-59181825D01*
X90301920Y-59056641D01*
X90535269Y-58882588D01*
X90730178Y-58666355D01*
X90805000Y-58540745D01*
X90879822Y-58666355D01*
X91074731Y-58882588D01*
X91308080Y-59056641D01*
X91570901Y-59181825D01*
X91718110Y-59226476D01*
X91948000Y-59105155D01*
X91948000Y-57912000D01*
X92202000Y-57912000D01*
X92202000Y-59105155D01*
X92431890Y-59226476D01*
X92579099Y-59181825D01*
X92841920Y-59056641D01*
X93075269Y-58882588D01*
X93270178Y-58666355D01*
X93345000Y-58540745D01*
X93419822Y-58666355D01*
X93614731Y-58882588D01*
X93848080Y-59056641D01*
X94110901Y-59181825D01*
X94258110Y-59226476D01*
X94488000Y-59105155D01*
X94488000Y-57912000D01*
X92202000Y-57912000D01*
X91948000Y-57912000D01*
X89662000Y-57912000D01*
X89408000Y-57912000D01*
X89388000Y-57912000D01*
X89388000Y-57658000D01*
X89408000Y-57658000D01*
X89408000Y-55372000D01*
X89662000Y-55372000D01*
X89662000Y-57658000D01*
X91948000Y-57658000D01*
X91948000Y-55372000D01*
X92202000Y-55372000D01*
X92202000Y-57658000D01*
X94488000Y-57658000D01*
X94488000Y-55372000D01*
X92202000Y-55372000D01*
X91948000Y-55372000D01*
X89662000Y-55372000D01*
X89408000Y-55372000D01*
X89388000Y-55372000D01*
X89388000Y-55118000D01*
X89408000Y-55118000D01*
X89408000Y-53924845D01*
X89662000Y-53924845D01*
X89662000Y-55118000D01*
X91948000Y-55118000D01*
X91948000Y-53924845D01*
X92202000Y-53924845D01*
X92202000Y-55118000D01*
X94488000Y-55118000D01*
X94488000Y-53924845D01*
X94742000Y-53924845D01*
X94742000Y-55118000D01*
X94762000Y-55118000D01*
X94762000Y-55372000D01*
X94742000Y-55372000D01*
X94742000Y-57658000D01*
X94762000Y-57658000D01*
X94762000Y-57912000D01*
X94742000Y-57912000D01*
X94742000Y-59105155D01*
X94971890Y-59226476D01*
X95119099Y-59181825D01*
X95381920Y-59056641D01*
X95615269Y-58882588D01*
X95810178Y-58666355D01*
X95879805Y-58549466D01*
X96001525Y-58731632D01*
X96208368Y-58938475D01*
X96451589Y-59100990D01*
X96721842Y-59212932D01*
X97008740Y-59270000D01*
X97301260Y-59270000D01*
X97588158Y-59212932D01*
X97858411Y-59100990D01*
X98101632Y-58938475D01*
X98308475Y-58731632D01*
X98470990Y-58488411D01*
X98582932Y-58218158D01*
X98640000Y-57931260D01*
X98640000Y-57638740D01*
X98582932Y-57351842D01*
X98470990Y-57081589D01*
X98308475Y-56838368D01*
X98176620Y-56706513D01*
X98249180Y-56684502D01*
X98359494Y-56625537D01*
X98456185Y-56546185D01*
X98535537Y-56449494D01*
X98594502Y-56339180D01*
X98630812Y-56219482D01*
X98643072Y-56095000D01*
X98643072Y-54395000D01*
X98630812Y-54270518D01*
X98594502Y-54150820D01*
X98535537Y-54040506D01*
X98456185Y-53943815D01*
X98359494Y-53864463D01*
X98249180Y-53805498D01*
X98129482Y-53769188D01*
X98005000Y-53756928D01*
X96305000Y-53756928D01*
X96180518Y-53769188D01*
X96060820Y-53805498D01*
X95950506Y-53864463D01*
X95853815Y-53943815D01*
X95774463Y-54040506D01*
X95715498Y-54150820D01*
X95691034Y-54231466D01*
X95615269Y-54147412D01*
X95381920Y-53973359D01*
X95119099Y-53848175D01*
X94971890Y-53803524D01*
X94742000Y-53924845D01*
X94488000Y-53924845D01*
X94258110Y-53803524D01*
X94110901Y-53848175D01*
X93848080Y-53973359D01*
X93614731Y-54147412D01*
X93419822Y-54363645D01*
X93345000Y-54489255D01*
X93270178Y-54363645D01*
X93075269Y-54147412D01*
X92841920Y-53973359D01*
X92579099Y-53848175D01*
X92431890Y-53803524D01*
X92202000Y-53924845D01*
X91948000Y-53924845D01*
X91718110Y-53803524D01*
X91570901Y-53848175D01*
X91308080Y-53973359D01*
X91074731Y-54147412D01*
X90879822Y-54363645D01*
X90805000Y-54489255D01*
X90730178Y-54363645D01*
X90535269Y-54147412D01*
X90301920Y-53973359D01*
X90039099Y-53848175D01*
X89891890Y-53803524D01*
X89662000Y-53924845D01*
X89408000Y-53924845D01*
X89178110Y-53803524D01*
X89030901Y-53848175D01*
X88768080Y-53973359D01*
X88534731Y-54147412D01*
X88339822Y-54363645D01*
X88270195Y-54480534D01*
X88148475Y-54298368D01*
X87941632Y-54091525D01*
X87698411Y-53929010D01*
X87428158Y-53817068D01*
X87141260Y-53760000D01*
X86848740Y-53760000D01*
X86561842Y-53817068D01*
X86291589Y-53929010D01*
X86048368Y-54091525D01*
X85841525Y-54298368D01*
X85725000Y-54472760D01*
X85608475Y-54298368D01*
X85401632Y-54091525D01*
X85158411Y-53929010D01*
X84888158Y-53817068D01*
X84601260Y-53760000D01*
X84308740Y-53760000D01*
X84021842Y-53817068D01*
X83751589Y-53929010D01*
X83508368Y-54091525D01*
X83301525Y-54298368D01*
X83185000Y-54472760D01*
X83068475Y-54298368D01*
X82861632Y-54091525D01*
X82618411Y-53929010D01*
X82348158Y-53817068D01*
X82061260Y-53760000D01*
X81768740Y-53760000D01*
X81481842Y-53817068D01*
X81211589Y-53929010D01*
X80968368Y-54091525D01*
X80761525Y-54298368D01*
X80645000Y-54472760D01*
X80528475Y-54298368D01*
X80321632Y-54091525D01*
X80078411Y-53929010D01*
X79808158Y-53817068D01*
X79521260Y-53760000D01*
X79228740Y-53760000D01*
X78941842Y-53817068D01*
X78671589Y-53929010D01*
X78428368Y-54091525D01*
X78221525Y-54298368D01*
X78059010Y-54541589D01*
X77947068Y-54811842D01*
X77890000Y-55098740D01*
X70993341Y-55098740D01*
X71037476Y-55015110D01*
X70992825Y-54867901D01*
X70867641Y-54605080D01*
X70693588Y-54371731D01*
X70477355Y-54176822D01*
X70227252Y-54027843D01*
X69952891Y-53930519D01*
X69723000Y-54051186D01*
X69469000Y-54051186D01*
X69239109Y-53930519D01*
X68964748Y-54027843D01*
X68714645Y-54176822D01*
X68498412Y-54371731D01*
X68324359Y-54605080D01*
X68199175Y-54867901D01*
X68154524Y-55015110D01*
X38800310Y-55015110D01*
X38760000Y-47396615D01*
X38760000Y-46515872D01*
X40945000Y-46515872D01*
X40945000Y-46956128D01*
X41030890Y-47387925D01*
X41199369Y-47794669D01*
X41443962Y-48160729D01*
X41755271Y-48472038D01*
X42121331Y-48716631D01*
X42528075Y-48885110D01*
X42959872Y-48971000D01*
X43400128Y-48971000D01*
X43831925Y-48885110D01*
X44238669Y-48716631D01*
X44604729Y-48472038D01*
X44916038Y-48160729D01*
X45160631Y-47794669D01*
X45329110Y-47387925D01*
X45415000Y-46956128D01*
X45415000Y-46515872D01*
X128829000Y-46515872D01*
X128829000Y-46956128D01*
X128914890Y-47387925D01*
X129083369Y-47794669D01*
X129327962Y-48160729D01*
X129639271Y-48472038D01*
X130005331Y-48716631D01*
X130412075Y-48885110D01*
X130843872Y-48971000D01*
X131284128Y-48971000D01*
X131715925Y-48885110D01*
X132122669Y-48716631D01*
X132488729Y-48472038D01*
X132800038Y-48160729D01*
X133044631Y-47794669D01*
X133213110Y-47387925D01*
X133299000Y-46956128D01*
X133299000Y-46515872D01*
X133213110Y-46084075D01*
X133044631Y-45677331D01*
X132800038Y-45311271D01*
X132488729Y-44999962D01*
X132122669Y-44755369D01*
X131715925Y-44586890D01*
X131284128Y-44501000D01*
X130843872Y-44501000D01*
X130412075Y-44586890D01*
X130005331Y-44755369D01*
X129639271Y-44999962D01*
X129327962Y-45311271D01*
X129083369Y-45677331D01*
X128914890Y-46084075D01*
X128829000Y-46515872D01*
X45415000Y-46515872D01*
X45329110Y-46084075D01*
X45160631Y-45677331D01*
X44916038Y-45311271D01*
X44604729Y-44999962D01*
X44238669Y-44755369D01*
X43831925Y-44586890D01*
X43400128Y-44501000D01*
X42959872Y-44501000D01*
X42528075Y-44586890D01*
X42121331Y-44755369D01*
X41755271Y-44999962D01*
X41443962Y-45311271D01*
X41199369Y-45677331D01*
X41030890Y-46084075D01*
X40945000Y-46515872D01*
X38760000Y-46515872D01*
X38760000Y-43212279D01*
X38774722Y-43062131D01*
X38808953Y-42948754D01*
X38864555Y-42844181D01*
X38901404Y-42799000D01*
X135001000Y-42799000D01*
X135001000Y-138557000D01*
G37*
X135001000Y-138557000D02*
X39242330Y-138557000D01*
X39217647Y-133891872D01*
X41453000Y-133891872D01*
X41453000Y-134332128D01*
X41538890Y-134763925D01*
X41707369Y-135170669D01*
X41951962Y-135536729D01*
X42263271Y-135848038D01*
X42629331Y-136092631D01*
X43036075Y-136261110D01*
X43467872Y-136347000D01*
X43908128Y-136347000D01*
X44339925Y-136261110D01*
X44746669Y-136092631D01*
X45112729Y-135848038D01*
X45424038Y-135536729D01*
X45668631Y-135170669D01*
X45837110Y-134763925D01*
X45923000Y-134332128D01*
X45923000Y-134265000D01*
X52244928Y-134265000D01*
X52257188Y-134389482D01*
X52293498Y-134509180D01*
X52352463Y-134619494D01*
X52431815Y-134716185D01*
X52528506Y-134795537D01*
X52638820Y-134854502D01*
X52758518Y-134890812D01*
X52883000Y-134903072D01*
X53562250Y-134900000D01*
X53721000Y-134741250D01*
X53721000Y-133477000D01*
X53975000Y-133477000D01*
X53975000Y-134741250D01*
X54133750Y-134900000D01*
X54813000Y-134903072D01*
X54937482Y-134890812D01*
X55057180Y-134854502D01*
X55167494Y-134795537D01*
X55264185Y-134716185D01*
X55343537Y-134619494D01*
X55402502Y-134509180D01*
X55438812Y-134389482D01*
X55451072Y-134265000D01*
X55449832Y-134011000D01*
X115744928Y-134011000D01*
X115757188Y-134135482D01*
X115793498Y-134255180D01*
X115852463Y-134365494D01*
X115931815Y-134462185D01*
X116028506Y-134541537D01*
X116138820Y-134600502D01*
X116258518Y-134636812D01*
X116383000Y-134649072D01*
X117062250Y-134646000D01*
X117221000Y-134487250D01*
X117221000Y-133223000D01*
X117475000Y-133223000D01*
X117475000Y-134487250D01*
X117633750Y-134646000D01*
X118313000Y-134649072D01*
X118437482Y-134636812D01*
X118557180Y-134600502D01*
X118667494Y-134541537D01*
X118764185Y-134462185D01*
X118815323Y-134399872D01*
X128829000Y-134399872D01*
X128829000Y-134840128D01*
X128914890Y-135271925D01*
X129083369Y-135678669D01*
X129327962Y-136044729D01*
X129639271Y-136356038D01*
X130005331Y-136600631D01*
X130412075Y-136769110D01*
X130843872Y-136855000D01*
X131284128Y-136855000D01*
X131715925Y-136769110D01*
X132122669Y-136600631D01*
X132488729Y-136356038D01*
X132800038Y-136044729D01*
X133044631Y-135678669D01*
X133213110Y-135271925D01*
X133299000Y-134840128D01*
X133299000Y-134399872D01*
X133213110Y-133968075D01*
X133044631Y-133561331D01*
X132800038Y-133195271D01*
X132488729Y-132883962D01*
X132122669Y-132639369D01*
X131715925Y-132470890D01*
X131284128Y-132385000D01*
X130843872Y-132385000D01*
X130412075Y-132470890D01*
X130005331Y-132639369D01*
X129639271Y-132883962D01*
X129327962Y-133195271D01*
X129083369Y-133561331D01*
X128914890Y-133968075D01*
X128829000Y-134399872D01*
X118815323Y-134399872D01*
X118843537Y-134365494D01*
X118902502Y-134255180D01*
X118938812Y-134135482D01*
X118951072Y-134011000D01*
X118948000Y-133381750D01*
X118789250Y-133223000D01*
X117475000Y-133223000D01*
X117221000Y-133223000D01*
X115906750Y-133223000D01*
X115748000Y-133381750D01*
X115744928Y-134011000D01*
X55449832Y-134011000D01*
X55448000Y-133635750D01*
X55289250Y-133477000D01*
X53975000Y-133477000D01*
X53721000Y-133477000D01*
X52406750Y-133477000D01*
X52248000Y-133635750D01*
X52244928Y-134265000D01*
X45923000Y-134265000D01*
X45923000Y-133891872D01*
X45837110Y-133460075D01*
X45668631Y-133053331D01*
X45424038Y-132687271D01*
X45112729Y-132375962D01*
X44746669Y-132131369D01*
X44339925Y-131962890D01*
X43908128Y-131877000D01*
X43467872Y-131877000D01*
X43036075Y-131962890D01*
X42629331Y-132131369D01*
X42263271Y-132375962D01*
X41951962Y-132687271D01*
X41707369Y-133053331D01*
X41538890Y-133460075D01*
X41453000Y-133891872D01*
X39217647Y-133891872D01*
X39197493Y-130082565D01*
X52148000Y-130082565D01*
X52148000Y-130417435D01*
X52213330Y-130745872D01*
X52341479Y-131055252D01*
X52527523Y-131333687D01*
X52764313Y-131570477D01*
X53042748Y-131756521D01*
X53143140Y-131798105D01*
X52883000Y-131796928D01*
X52758518Y-131809188D01*
X52638820Y-131845498D01*
X52528506Y-131904463D01*
X52431815Y-131983815D01*
X52352463Y-132080506D01*
X52293498Y-132190820D01*
X52257188Y-132310518D01*
X52244928Y-132435000D01*
X52248000Y-133064250D01*
X52406750Y-133223000D01*
X53721000Y-133223000D01*
X53721000Y-133203000D01*
X53975000Y-133203000D01*
X53975000Y-133223000D01*
X55289250Y-133223000D01*
X55448000Y-133064250D01*
X55451072Y-132435000D01*
X55438812Y-132310518D01*
X55402502Y-132190820D01*
X55343537Y-132080506D01*
X55264185Y-131983815D01*
X55167494Y-131904463D01*
X55057180Y-131845498D01*
X54937482Y-131809188D01*
X54813000Y-131796928D01*
X54552860Y-131798105D01*
X54653252Y-131756521D01*
X54931687Y-131570477D01*
X55168477Y-131333687D01*
X55354521Y-131055252D01*
X55482670Y-130745872D01*
X55548000Y-130417435D01*
X55548000Y-130082565D01*
X55497477Y-129828565D01*
X115648000Y-129828565D01*
X115648000Y-130163435D01*
X115713330Y-130491872D01*
X115841479Y-130801252D01*
X116027523Y-131079687D01*
X116264313Y-131316477D01*
X116542748Y-131502521D01*
X116643140Y-131544105D01*
X116383000Y-131542928D01*
X116258518Y-131555188D01*
X116138820Y-131591498D01*
X116028506Y-131650463D01*
X115931815Y-131729815D01*
X115852463Y-131826506D01*
X115793498Y-131936820D01*
X115757188Y-132056518D01*
X115744928Y-132181000D01*
X115748000Y-132810250D01*
X115906750Y-132969000D01*
X117221000Y-132969000D01*
X117221000Y-132949000D01*
X117475000Y-132949000D01*
X117475000Y-132969000D01*
X118789250Y-132969000D01*
X118948000Y-132810250D01*
X118951072Y-132181000D01*
X118938812Y-132056518D01*
X118902502Y-131936820D01*
X118843537Y-131826506D01*
X118764185Y-131729815D01*
X118667494Y-131650463D01*
X118557180Y-131591498D01*
X118437482Y-131555188D01*
X118313000Y-131542928D01*
X118052860Y-131544105D01*
X118153252Y-131502521D01*
X118431687Y-131316477D01*
X118668477Y-131079687D01*
X118854521Y-130801252D01*
X118982670Y-130491872D01*
X119048000Y-130163435D01*
X119048000Y-129828565D01*
X118982670Y-129500128D01*
X118854521Y-129190748D01*
X118668477Y-128912313D01*
X118431687Y-128675523D01*
X118153252Y-128489479D01*
X117843872Y-128361330D01*
X117515435Y-128296000D01*
X117180565Y-128296000D01*
X116852128Y-128361330D01*
X116542748Y-128489479D01*
X116264313Y-128675523D01*
X116027523Y-128912313D01*
X115841479Y-129190748D01*
X115713330Y-129500128D01*
X115648000Y-129828565D01*
X55497477Y-129828565D01*
X55482670Y-129754128D01*
X55354521Y-129444748D01*
X55168477Y-129166313D01*
X54931687Y-128929523D01*
X54653252Y-128743479D01*
X54343872Y-128615330D01*
X54015435Y-128550000D01*
X53680565Y-128550000D01*
X53352128Y-128615330D01*
X53042748Y-128743479D01*
X52764313Y-128929523D01*
X52527523Y-129166313D01*
X52341479Y-129444748D01*
X52213330Y-129754128D01*
X52148000Y-130082565D01*
X39197493Y-130082565D01*
X39153578Y-121782565D01*
X52148000Y-121782565D01*
X52148000Y-122117435D01*
X52213330Y-122445872D01*
X52341479Y-122755252D01*
X52527523Y-123033687D01*
X52764313Y-123270477D01*
X53042748Y-123456521D01*
X53352128Y-123584670D01*
X53680565Y-123650000D01*
X54015435Y-123650000D01*
X54343872Y-123584670D01*
X54653252Y-123456521D01*
X54931687Y-123270477D01*
X55168477Y-123033687D01*
X55354521Y-122755252D01*
X55482670Y-122445872D01*
X55548000Y-122117435D01*
X55548000Y-121782565D01*
X55482670Y-121454128D01*
X55354521Y-121144748D01*
X55168477Y-120866313D01*
X54931687Y-120629523D01*
X54653252Y-120443479D01*
X54343872Y-120315330D01*
X54015435Y-120250000D01*
X53680565Y-120250000D01*
X53352128Y-120315330D01*
X53042748Y-120443479D01*
X52764313Y-120629523D01*
X52527523Y-120866313D01*
X52341479Y-121144748D01*
X52213330Y-121454128D01*
X52148000Y-121782565D01*
X39153578Y-121782565D01*
X39129576Y-117246061D01*
X71101000Y-117246061D01*
X71101000Y-117449939D01*
X71140774Y-117649898D01*
X71218795Y-117838256D01*
X71332063Y-118007774D01*
X71476226Y-118151937D01*
X71645744Y-118265205D01*
X71834102Y-118343226D01*
X72034061Y-118383000D01*
X72237939Y-118383000D01*
X72437898Y-118343226D01*
X72626256Y-118265205D01*
X72795774Y-118151937D01*
X72839711Y-118108000D01*
X79258849Y-118108000D01*
X79268774Y-118157898D01*
X79346795Y-118346256D01*
X79460063Y-118515774D01*
X79604226Y-118659937D01*
X79773744Y-118773205D01*
X79962102Y-118851226D01*
X80162061Y-118891000D01*
X80365939Y-118891000D01*
X80565898Y-118851226D01*
X80754256Y-118773205D01*
X80923774Y-118659937D01*
X81067937Y-118515774D01*
X81181205Y-118346256D01*
X81216079Y-118262061D01*
X87357000Y-118262061D01*
X87357000Y-118465939D01*
X87396774Y-118665898D01*
X87474795Y-118854256D01*
X87588063Y-119023774D01*
X87690289Y-119126000D01*
X87588063Y-119228226D01*
X87474795Y-119397744D01*
X87396774Y-119586102D01*
X87357000Y-119786061D01*
X87357000Y-119989939D01*
X87396774Y-120189898D01*
X87474795Y-120378256D01*
X87588063Y-120547774D01*
X87732226Y-120691937D01*
X87901744Y-120805205D01*
X88090102Y-120883226D01*
X88290061Y-120923000D01*
X88493939Y-120923000D01*
X88693898Y-120883226D01*
X88882256Y-120805205D01*
X89051774Y-120691937D01*
X89095711Y-120648000D01*
X89927644Y-120648000D01*
X89897000Y-120802061D01*
X89897000Y-121005939D01*
X89936774Y-121205898D01*
X90014795Y-121394256D01*
X90128063Y-121563774D01*
X90172000Y-121607711D01*
X90172001Y-125788288D01*
X90128063Y-125832226D01*
X90014795Y-126001744D01*
X89936774Y-126190102D01*
X89897000Y-126390061D01*
X89897000Y-126593939D01*
X89936774Y-126793898D01*
X90014795Y-126982256D01*
X90128063Y-127151774D01*
X90272226Y-127295937D01*
X90441744Y-127409205D01*
X90630102Y-127487226D01*
X90830061Y-127527000D01*
X91033939Y-127527000D01*
X91233898Y-127487226D01*
X91422256Y-127409205D01*
X91591774Y-127295937D01*
X91735937Y-127151774D01*
X91849205Y-126982256D01*
X91927226Y-126793898D01*
X91967000Y-126593939D01*
X91967000Y-126390061D01*
X91927226Y-126190102D01*
X91849205Y-126001744D01*
X91735937Y-125832226D01*
X91692000Y-125788289D01*
X91692000Y-121607711D01*
X91735937Y-121563774D01*
X91849205Y-121394256D01*
X91927226Y-121205898D01*
X91967000Y-121005939D01*
X91967000Y-120802061D01*
X91936356Y-120648000D01*
X92467644Y-120648000D01*
X92437000Y-120802061D01*
X92437000Y-121005939D01*
X92476774Y-121205898D01*
X92554795Y-121394256D01*
X92668063Y-121563774D01*
X92712000Y-121607711D01*
X92712001Y-125788288D01*
X92668063Y-125832226D01*
X92554795Y-126001744D01*
X92476774Y-126190102D01*
X92437000Y-126390061D01*
X92437000Y-126593939D01*
X92476774Y-126793898D01*
X92554795Y-126982256D01*
X92668063Y-127151774D01*
X92812226Y-127295937D01*
X92981744Y-127409205D01*
X93170102Y-127487226D01*
X93370061Y-127527000D01*
X93573939Y-127527000D01*
X93773898Y-127487226D01*
X93962256Y-127409205D01*
X94131774Y-127295937D01*
X94275937Y-127151774D01*
X94389205Y-126982256D01*
X94467226Y-126793898D01*
X94507000Y-126593939D01*
X94507000Y-126390061D01*
X94467226Y-126190102D01*
X94389205Y-126001744D01*
X94275937Y-125832226D01*
X94232000Y-125788289D01*
X94232000Y-121607711D01*
X94275937Y-121563774D01*
X94389205Y-121394256D01*
X94467226Y-121205898D01*
X94507000Y-121005939D01*
X94507000Y-120802061D01*
X94476356Y-120648000D01*
X95007644Y-120648000D01*
X94977000Y-120802061D01*
X94977000Y-121005939D01*
X95016774Y-121205898D01*
X95094795Y-121394256D01*
X95208063Y-121563774D01*
X95252000Y-121607711D01*
X95252001Y-125788288D01*
X95208063Y-125832226D01*
X95094795Y-126001744D01*
X95016774Y-126190102D01*
X94977000Y-126390061D01*
X94977000Y-126593939D01*
X95016774Y-126793898D01*
X95094795Y-126982256D01*
X95208063Y-127151774D01*
X95352226Y-127295937D01*
X95521744Y-127409205D01*
X95710102Y-127487226D01*
X95910061Y-127527000D01*
X96113939Y-127527000D01*
X96313898Y-127487226D01*
X96502256Y-127409205D01*
X96671774Y-127295937D01*
X96815937Y-127151774D01*
X96929205Y-126982256D01*
X97007226Y-126793898D01*
X97047000Y-126593939D01*
X97047000Y-126390061D01*
X97007226Y-126190102D01*
X96929205Y-126001744D01*
X96815937Y-125832226D01*
X96772000Y-125788289D01*
X96772000Y-121607711D01*
X96815937Y-121563774D01*
X96929205Y-121394256D01*
X97007226Y-121205898D01*
X97047000Y-121005939D01*
X97047000Y-120802061D01*
X97016356Y-120648000D01*
X97547644Y-120648000D01*
X97517000Y-120802061D01*
X97517000Y-121005939D01*
X97556774Y-121205898D01*
X97634795Y-121394256D01*
X97748063Y-121563774D01*
X97792000Y-121607711D01*
X97792001Y-125438658D01*
X97792000Y-125438668D01*
X97792000Y-125788289D01*
X97748063Y-125832226D01*
X97634795Y-126001744D01*
X97556774Y-126190102D01*
X97517000Y-126390061D01*
X97517000Y-126593939D01*
X97556774Y-126793898D01*
X97634795Y-126982256D01*
X97748063Y-127151774D01*
X97892226Y-127295937D01*
X98061744Y-127409205D01*
X98250102Y-127487226D01*
X98450061Y-127527000D01*
X98653939Y-127527000D01*
X98853898Y-127487226D01*
X99042256Y-127409205D01*
X99211774Y-127295937D01*
X99355937Y-127151774D01*
X99469205Y-126982256D01*
X99547226Y-126793898D01*
X99587000Y-126593939D01*
X99587000Y-126390061D01*
X99547226Y-126190102D01*
X99469205Y-126001744D01*
X99355937Y-125832226D01*
X99312000Y-125788289D01*
X99312000Y-121607711D01*
X99355937Y-121563774D01*
X99379462Y-121528565D01*
X115648000Y-121528565D01*
X115648000Y-121863435D01*
X115713330Y-122191872D01*
X115841479Y-122501252D01*
X116027523Y-122779687D01*
X116264313Y-123016477D01*
X116542748Y-123202521D01*
X116852128Y-123330670D01*
X117180565Y-123396000D01*
X117515435Y-123396000D01*
X117843872Y-123330670D01*
X118153252Y-123202521D01*
X118431687Y-123016477D01*
X118668477Y-122779687D01*
X118854521Y-122501252D01*
X118982670Y-122191872D01*
X119048000Y-121863435D01*
X119048000Y-121528565D01*
X118982670Y-121200128D01*
X118854521Y-120890748D01*
X118668477Y-120612313D01*
X118431687Y-120375523D01*
X118153252Y-120189479D01*
X117843872Y-120061330D01*
X117515435Y-119996000D01*
X117180565Y-119996000D01*
X116852128Y-120061330D01*
X116542748Y-120189479D01*
X116264313Y-120375523D01*
X116027523Y-120612313D01*
X115841479Y-120890748D01*
X115713330Y-121200128D01*
X115648000Y-121528565D01*
X99379462Y-121528565D01*
X99469205Y-121394256D01*
X99547226Y-121205898D01*
X99587000Y-121005939D01*
X99587000Y-120802061D01*
X99556356Y-120648000D01*
X99880289Y-120648000D01*
X99924226Y-120691937D01*
X100093744Y-120805205D01*
X100282102Y-120883226D01*
X100482061Y-120923000D01*
X100685939Y-120923000D01*
X100885898Y-120883226D01*
X101074256Y-120805205D01*
X101243774Y-120691937D01*
X101387937Y-120547774D01*
X101501205Y-120378256D01*
X101579226Y-120189898D01*
X101619000Y-119989939D01*
X101619000Y-119786061D01*
X101579226Y-119586102D01*
X101501205Y-119397744D01*
X101387937Y-119228226D01*
X101285711Y-119126000D01*
X101387937Y-119023774D01*
X101501205Y-118854256D01*
X101579226Y-118665898D01*
X101619000Y-118465939D01*
X101619000Y-118262061D01*
X101579226Y-118062102D01*
X101501205Y-117873744D01*
X101387937Y-117704226D01*
X101243774Y-117560063D01*
X101074256Y-117446795D01*
X100885898Y-117368774D01*
X100685939Y-117329000D01*
X100482061Y-117329000D01*
X100282102Y-117368774D01*
X100093744Y-117446795D01*
X99924226Y-117560063D01*
X99880289Y-117604000D01*
X89095711Y-117604000D01*
X89051774Y-117560063D01*
X88882256Y-117446795D01*
X88693898Y-117368774D01*
X88493939Y-117329000D01*
X88290061Y-117329000D01*
X88090102Y-117368774D01*
X87901744Y-117446795D01*
X87732226Y-117560063D01*
X87588063Y-117704226D01*
X87474795Y-117873744D01*
X87396774Y-118062102D01*
X87357000Y-118262061D01*
X81216079Y-118262061D01*
X81259226Y-118157898D01*
X81299000Y-117957939D01*
X81299000Y-117754061D01*
X81259226Y-117554102D01*
X81181205Y-117365744D01*
X81067937Y-117196226D01*
X80923774Y-117052063D01*
X80754256Y-116938795D01*
X80565898Y-116860774D01*
X80365939Y-116821000D01*
X80306671Y-116821000D01*
X80296001Y-116807999D01*
X80180276Y-116713026D01*
X80048247Y-116642454D01*
X79904986Y-116598997D01*
X79793333Y-116588000D01*
X79793322Y-116588000D01*
X79756000Y-116584324D01*
X79718678Y-116588000D01*
X72839711Y-116588000D01*
X72795774Y-116544063D01*
X72626256Y-116430795D01*
X72437898Y-116352774D01*
X72237939Y-116313000D01*
X72034061Y-116313000D01*
X71834102Y-116352774D01*
X71645744Y-116430795D01*
X71476226Y-116544063D01*
X71332063Y-116688226D01*
X71218795Y-116857744D01*
X71140774Y-117046102D01*
X71101000Y-117246061D01*
X39129576Y-117246061D01*
X39097095Y-111107224D01*
X63316381Y-111107224D01*
X63367337Y-111333862D01*
X63593830Y-111437754D01*
X63836238Y-111495463D01*
X64085248Y-111504772D01*
X64331289Y-111465323D01*
X64564905Y-111378632D01*
X64648663Y-111333862D01*
X64699619Y-111107224D01*
X64008000Y-110415605D01*
X63316381Y-111107224D01*
X39097095Y-111107224D01*
X39092894Y-110313248D01*
X62739228Y-110313248D01*
X62778677Y-110559289D01*
X62865368Y-110792905D01*
X62910138Y-110876663D01*
X63136776Y-110927619D01*
X63828395Y-110236000D01*
X64187605Y-110236000D01*
X64879224Y-110927619D01*
X65105862Y-110876663D01*
X65209754Y-110650170D01*
X65267463Y-110407762D01*
X65276772Y-110158752D01*
X65237323Y-109912711D01*
X65150632Y-109679095D01*
X65105862Y-109595337D01*
X64879224Y-109544381D01*
X64187605Y-110236000D01*
X63828395Y-110236000D01*
X63136776Y-109544381D01*
X62910138Y-109595337D01*
X62806246Y-109821830D01*
X62748537Y-110064238D01*
X62739228Y-110313248D01*
X39092894Y-110313248D01*
X39087876Y-109364776D01*
X63316381Y-109364776D01*
X64008000Y-110056395D01*
X64699619Y-109364776D01*
X64648663Y-109138138D01*
X64422170Y-109034246D01*
X64179762Y-108976537D01*
X63930752Y-108967228D01*
X63684711Y-109006677D01*
X63451095Y-109093368D01*
X63367337Y-109138138D01*
X63316381Y-109364776D01*
X39087876Y-109364776D01*
X39078387Y-107571408D01*
X65283000Y-107571408D01*
X65283000Y-107820592D01*
X65331613Y-108064987D01*
X65426971Y-108295202D01*
X65565410Y-108502391D01*
X65741609Y-108678590D01*
X65948798Y-108817029D01*
X66179013Y-108912387D01*
X66423408Y-108961000D01*
X66672592Y-108961000D01*
X66916987Y-108912387D01*
X67147202Y-108817029D01*
X67354391Y-108678590D01*
X67530590Y-108502391D01*
X67669029Y-108295202D01*
X67764387Y-108064987D01*
X67813000Y-107820592D01*
X67813000Y-107571408D01*
X67764387Y-107327013D01*
X67669029Y-107096798D01*
X67530590Y-106889609D01*
X67354391Y-106713410D01*
X67147202Y-106574971D01*
X66916987Y-106479613D01*
X66672592Y-106431000D01*
X66423408Y-106431000D01*
X66179013Y-106479613D01*
X65948798Y-106574971D01*
X65741609Y-106713410D01*
X65565410Y-106889609D01*
X65426971Y-107096798D01*
X65331613Y-107327013D01*
X65283000Y-107571408D01*
X39078387Y-107571408D01*
X39069651Y-105920408D01*
X46106000Y-105920408D01*
X46106000Y-106169592D01*
X46154613Y-106413987D01*
X46249971Y-106644202D01*
X46388410Y-106851391D01*
X46564609Y-107027590D01*
X46771798Y-107166029D01*
X47002013Y-107261387D01*
X47246408Y-107310000D01*
X47495592Y-107310000D01*
X47739987Y-107261387D01*
X47970202Y-107166029D01*
X48177391Y-107027590D01*
X48353590Y-106851391D01*
X48492029Y-106644202D01*
X48587387Y-106413987D01*
X48636000Y-106169592D01*
X48636000Y-105920408D01*
X48587387Y-105676013D01*
X48492029Y-105445798D01*
X48353590Y-105238609D01*
X48177391Y-105062410D01*
X47970202Y-104923971D01*
X47739987Y-104828613D01*
X47495592Y-104780000D01*
X47246408Y-104780000D01*
X47002013Y-104828613D01*
X46771798Y-104923971D01*
X46564609Y-105062410D01*
X46388410Y-105238609D01*
X46249971Y-105445798D01*
X46154613Y-105676013D01*
X46106000Y-105920408D01*
X39069651Y-105920408D01*
X39056211Y-103380408D01*
X43566000Y-103380408D01*
X43566000Y-103629592D01*
X43614613Y-103873987D01*
X43709971Y-104104202D01*
X43848410Y-104311391D01*
X44024609Y-104487590D01*
X44231798Y-104626029D01*
X44462013Y-104721387D01*
X44706408Y-104770000D01*
X44955592Y-104770000D01*
X45199987Y-104721387D01*
X45430202Y-104626029D01*
X45637391Y-104487590D01*
X45813590Y-104311391D01*
X45952029Y-104104202D01*
X46047387Y-103873987D01*
X46096000Y-103629592D01*
X46096000Y-103380408D01*
X46047387Y-103136013D01*
X45952029Y-102905798D01*
X45813590Y-102698609D01*
X45637391Y-102522410D01*
X45430202Y-102383971D01*
X45199987Y-102288613D01*
X44955592Y-102240000D01*
X44706408Y-102240000D01*
X44462013Y-102288613D01*
X44231798Y-102383971D01*
X44024609Y-102522410D01*
X43848410Y-102698609D01*
X43709971Y-102905798D01*
X43614613Y-103136013D01*
X43566000Y-103380408D01*
X39056211Y-103380408D01*
X39042772Y-100840408D01*
X46106000Y-100840408D01*
X46106000Y-101089592D01*
X46154613Y-101333987D01*
X46249971Y-101564202D01*
X46388410Y-101771391D01*
X46564609Y-101947590D01*
X46771798Y-102086029D01*
X47002013Y-102181387D01*
X47246408Y-102230000D01*
X47495592Y-102230000D01*
X47739987Y-102181387D01*
X47970202Y-102086029D01*
X48177391Y-101947590D01*
X48353590Y-101771391D01*
X48492029Y-101564202D01*
X48587387Y-101333987D01*
X48636000Y-101089592D01*
X48636000Y-100840408D01*
X48587387Y-100596013D01*
X48492029Y-100365798D01*
X48353590Y-100158609D01*
X48177391Y-99982410D01*
X47970202Y-99843971D01*
X47739987Y-99748613D01*
X47495592Y-99700000D01*
X47246408Y-99700000D01*
X47002013Y-99748613D01*
X46771798Y-99843971D01*
X46564609Y-99982410D01*
X46388410Y-100158609D01*
X46249971Y-100365798D01*
X46154613Y-100596013D01*
X46106000Y-100840408D01*
X39042772Y-100840408D01*
X39016686Y-95910061D01*
X64497000Y-95910061D01*
X64497000Y-96113939D01*
X64536774Y-96313898D01*
X64614795Y-96502256D01*
X64728063Y-96671774D01*
X64872226Y-96815937D01*
X65041744Y-96929205D01*
X65230102Y-97007226D01*
X65430061Y-97047000D01*
X65507774Y-97047000D01*
X65639752Y-97117545D01*
X65783013Y-97161002D01*
X65894666Y-97171999D01*
X65894676Y-97171999D01*
X65931998Y-97175675D01*
X65969321Y-97171999D01*
X71698679Y-97171999D01*
X71736001Y-97175675D01*
X71773323Y-97171999D01*
X71773334Y-97171999D01*
X71884987Y-97161002D01*
X72028248Y-97117545D01*
X72160226Y-97047000D01*
X72237939Y-97047000D01*
X72437898Y-97007226D01*
X72626256Y-96929205D01*
X72795774Y-96815937D01*
X72939937Y-96671774D01*
X73053205Y-96502256D01*
X73131226Y-96313898D01*
X73171000Y-96113939D01*
X73171000Y-95910061D01*
X73131226Y-95710102D01*
X73053205Y-95521744D01*
X72939937Y-95352226D01*
X72837711Y-95250000D01*
X72939937Y-95147774D01*
X73053205Y-94978256D01*
X73131226Y-94789898D01*
X73171000Y-94589939D01*
X73171000Y-94527802D01*
X73771009Y-93927794D01*
X73800002Y-93904000D01*
X73823796Y-93875007D01*
X73823800Y-93875003D01*
X73894974Y-93788276D01*
X73913838Y-93752985D01*
X73965547Y-93656246D01*
X74009004Y-93512985D01*
X74020001Y-93401332D01*
X74020001Y-93401323D01*
X74023677Y-93364000D01*
X74020001Y-93326677D01*
X74020001Y-90433838D01*
X74066061Y-90443000D01*
X74128199Y-90443000D01*
X74641000Y-90955802D01*
X74641001Y-97119648D01*
X74469898Y-97048774D01*
X74269939Y-97009000D01*
X74066061Y-97009000D01*
X73866102Y-97048774D01*
X73677744Y-97126795D01*
X73508226Y-97240063D01*
X73364063Y-97384226D01*
X73250795Y-97553744D01*
X73172774Y-97742102D01*
X73133000Y-97942061D01*
X73133000Y-98145939D01*
X73172774Y-98345898D01*
X73250795Y-98534256D01*
X73364063Y-98703774D01*
X73508226Y-98847937D01*
X73677744Y-98961205D01*
X73866102Y-99039226D01*
X73916000Y-99049151D01*
X73916001Y-102119644D01*
X73761939Y-102089000D01*
X73558061Y-102089000D01*
X73358102Y-102128774D01*
X73169744Y-102206795D01*
X73000226Y-102320063D01*
X72856063Y-102464226D01*
X72742795Y-102633744D01*
X72664774Y-102822102D01*
X72625000Y-103022061D01*
X72625000Y-103099774D01*
X72594434Y-103156959D01*
X72554455Y-103231753D01*
X72510998Y-103375014D01*
X72500001Y-103486667D01*
X72500001Y-103486677D01*
X72496325Y-103523999D01*
X72500001Y-103561322D01*
X72500002Y-109290669D01*
X72496325Y-109328001D01*
X72500002Y-109365334D01*
X72505145Y-109417546D01*
X72510999Y-109476986D01*
X72554455Y-109620247D01*
X72625027Y-109752277D01*
X72696202Y-109839003D01*
X72720001Y-109868002D01*
X72748999Y-109891800D01*
X75817312Y-112960114D01*
X75781000Y-113142665D01*
X75781000Y-113425335D01*
X75825491Y-113649001D01*
X73575804Y-113649001D01*
X70342115Y-110415314D01*
X70353000Y-110360592D01*
X70353000Y-110111408D01*
X70304387Y-109867013D01*
X70209029Y-109636798D01*
X70070590Y-109429609D01*
X69894391Y-109253410D01*
X69687202Y-109114971D01*
X69456987Y-109019613D01*
X69212592Y-108971000D01*
X68963408Y-108971000D01*
X68719013Y-109019613D01*
X68488798Y-109114971D01*
X68281609Y-109253410D01*
X68105410Y-109429609D01*
X67966971Y-109636798D01*
X67871613Y-109867013D01*
X67823000Y-110111408D01*
X67823000Y-110360592D01*
X67871613Y-110604987D01*
X67966971Y-110835202D01*
X68105410Y-111042391D01*
X68281609Y-111218590D01*
X68488798Y-111357029D01*
X68719013Y-111452387D01*
X68963408Y-111501000D01*
X69212592Y-111501000D01*
X69267314Y-111490115D01*
X72697206Y-114920009D01*
X72721000Y-114949002D01*
X72749993Y-114972796D01*
X72749997Y-114972800D01*
X72820686Y-115030812D01*
X72836725Y-115043975D01*
X72968754Y-115114547D01*
X73112015Y-115158004D01*
X73223668Y-115169001D01*
X73223677Y-115169001D01*
X73261000Y-115172677D01*
X73298323Y-115169001D01*
X77718679Y-115169001D01*
X77756001Y-115172677D01*
X77793323Y-115169001D01*
X77793334Y-115169001D01*
X77904987Y-115158004D01*
X78048248Y-115114547D01*
X78180277Y-115043975D01*
X78296002Y-114949002D01*
X78319804Y-114919999D01*
X78852003Y-114387801D01*
X78881002Y-114364002D01*
X78949120Y-114281000D01*
X78975975Y-114248278D01*
X79046547Y-114116248D01*
X79090004Y-113972987D01*
X79101001Y-113861334D01*
X79101001Y-113861324D01*
X79104677Y-113824001D01*
X79101001Y-113786678D01*
X79101001Y-113142665D01*
X80781000Y-113142665D01*
X80781000Y-113425335D01*
X80836147Y-113702574D01*
X80944320Y-113963727D01*
X81101363Y-114198759D01*
X81301241Y-114398637D01*
X81536273Y-114555680D01*
X81797426Y-114663853D01*
X82074665Y-114719000D01*
X82357335Y-114719000D01*
X82634574Y-114663853D01*
X82895727Y-114555680D01*
X83130759Y-114398637D01*
X83330637Y-114198759D01*
X83487680Y-113963727D01*
X83595853Y-113702574D01*
X83651000Y-113425335D01*
X83651000Y-113142665D01*
X83595853Y-112865426D01*
X83487680Y-112604273D01*
X83330637Y-112369241D01*
X83130759Y-112169363D01*
X82895727Y-112012320D01*
X82634574Y-111904147D01*
X82357335Y-111849000D01*
X82074665Y-111849000D01*
X81797426Y-111904147D01*
X81536273Y-112012320D01*
X81301241Y-112169363D01*
X81101363Y-112369241D01*
X80944320Y-112604273D01*
X80836147Y-112865426D01*
X80781000Y-113142665D01*
X79101001Y-113142665D01*
X79101001Y-110890323D01*
X79104677Y-110853000D01*
X79101001Y-110815677D01*
X79101001Y-110815668D01*
X79090004Y-110704015D01*
X79046547Y-110560754D01*
X78982923Y-110441723D01*
X78975975Y-110428724D01*
X78904800Y-110341998D01*
X78881002Y-110313000D01*
X78852005Y-110289203D01*
X76727000Y-108164199D01*
X76727000Y-108102061D01*
X76687226Y-107902102D01*
X76609205Y-107713744D01*
X76495937Y-107544226D01*
X76351774Y-107400063D01*
X76182256Y-107286795D01*
X75993898Y-107208774D01*
X75793939Y-107169000D01*
X75590061Y-107169000D01*
X75390102Y-107208774D01*
X75201744Y-107286795D01*
X75032226Y-107400063D01*
X74888063Y-107544226D01*
X74774795Y-107713744D01*
X74696774Y-107902102D01*
X74657000Y-108102061D01*
X74657000Y-108305939D01*
X74696774Y-108505898D01*
X74774795Y-108694256D01*
X74888063Y-108863774D01*
X75032226Y-109007937D01*
X75201744Y-109121205D01*
X75390102Y-109199226D01*
X75590061Y-109239000D01*
X75652199Y-109239000D01*
X77581001Y-111167803D01*
X77581001Y-111893491D01*
X77357335Y-111849000D01*
X77074665Y-111849000D01*
X76892114Y-111885312D01*
X74020001Y-109013200D01*
X74020001Y-107197838D01*
X74066061Y-107207000D01*
X74269939Y-107207000D01*
X74469898Y-107167226D01*
X74658256Y-107089205D01*
X74729292Y-107041740D01*
X83859000Y-107041740D01*
X83859000Y-107334260D01*
X83916068Y-107621158D01*
X84028010Y-107891411D01*
X84190525Y-108134632D01*
X84397368Y-108341475D01*
X84640589Y-108503990D01*
X84910842Y-108615932D01*
X85197740Y-108673000D01*
X85490260Y-108673000D01*
X85777158Y-108615932D01*
X86047411Y-108503990D01*
X86290632Y-108341475D01*
X86422487Y-108209620D01*
X86444498Y-108282180D01*
X86503463Y-108392494D01*
X86582815Y-108489185D01*
X86679506Y-108568537D01*
X86789820Y-108627502D01*
X86909518Y-108663812D01*
X87034000Y-108676072D01*
X88734000Y-108676072D01*
X88858482Y-108663812D01*
X88978180Y-108627502D01*
X89088494Y-108568537D01*
X89185185Y-108489185D01*
X89264537Y-108392494D01*
X89323502Y-108282180D01*
X89359812Y-108162482D01*
X89372072Y-108038000D01*
X89372072Y-106338000D01*
X89359812Y-106213518D01*
X89323502Y-106093820D01*
X89264537Y-105983506D01*
X89185185Y-105886815D01*
X89088494Y-105807463D01*
X88978180Y-105748498D01*
X88897534Y-105724034D01*
X88981588Y-105648269D01*
X89155641Y-105414920D01*
X89280825Y-105152099D01*
X89325476Y-105004890D01*
X89204155Y-104775000D01*
X88011000Y-104775000D01*
X88011000Y-104795000D01*
X87757000Y-104795000D01*
X87757000Y-104775000D01*
X85471000Y-104775000D01*
X85471000Y-104795000D01*
X85217000Y-104795000D01*
X85217000Y-104775000D01*
X84023845Y-104775000D01*
X83902524Y-105004890D01*
X83947175Y-105152099D01*
X84072359Y-105414920D01*
X84246412Y-105648269D01*
X84462645Y-105843178D01*
X84579534Y-105912805D01*
X84397368Y-106034525D01*
X84190525Y-106241368D01*
X84028010Y-106484589D01*
X83916068Y-106754842D01*
X83859000Y-107041740D01*
X74729292Y-107041740D01*
X74827774Y-106975937D01*
X74971937Y-106831774D01*
X75085205Y-106662256D01*
X75163226Y-106473898D01*
X75203000Y-106273939D01*
X75203000Y-106214671D01*
X75216001Y-106204001D01*
X75310974Y-106088276D01*
X75381546Y-105956247D01*
X75425003Y-105812986D01*
X75436000Y-105701333D01*
X75436000Y-105701324D01*
X75439676Y-105664001D01*
X75436000Y-105626678D01*
X75436000Y-102127000D01*
X75502939Y-102127000D01*
X75702898Y-102087226D01*
X75891256Y-102009205D01*
X76060774Y-101895937D01*
X76204937Y-101751774D01*
X76318205Y-101582256D01*
X76396226Y-101393898D01*
X76436000Y-101193939D01*
X76436000Y-100990061D01*
X76396226Y-100790102D01*
X76318205Y-100601744D01*
X76204937Y-100432226D01*
X76161000Y-100388289D01*
X76161000Y-96328017D01*
X76179038Y-96355013D01*
X76364987Y-96540962D01*
X76583641Y-96687061D01*
X76826595Y-96787696D01*
X77084514Y-96839000D01*
X77347486Y-96839000D01*
X77605405Y-96787696D01*
X77848359Y-96687061D01*
X78067013Y-96540962D01*
X78252962Y-96355013D01*
X78399061Y-96136359D01*
X78499696Y-95893405D01*
X78551000Y-95635486D01*
X78551000Y-95372514D01*
X78499696Y-95114595D01*
X78399061Y-94871641D01*
X78252962Y-94652987D01*
X78153975Y-94554000D01*
X78252962Y-94455013D01*
X78328648Y-94341740D01*
X83859000Y-94341740D01*
X83859000Y-94634260D01*
X83916068Y-94921158D01*
X84028010Y-95191411D01*
X84190525Y-95434632D01*
X84397368Y-95641475D01*
X84571760Y-95758000D01*
X84397368Y-95874525D01*
X84190525Y-96081368D01*
X84028010Y-96324589D01*
X83916068Y-96594842D01*
X83859000Y-96881740D01*
X83859000Y-97174260D01*
X83916068Y-97461158D01*
X84028010Y-97731411D01*
X84190525Y-97974632D01*
X84397368Y-98181475D01*
X84571760Y-98298000D01*
X84397368Y-98414525D01*
X84190525Y-98621368D01*
X84028010Y-98864589D01*
X83916068Y-99134842D01*
X83859000Y-99421740D01*
X83859000Y-99714260D01*
X83916068Y-100001158D01*
X84028010Y-100271411D01*
X84190525Y-100514632D01*
X84397368Y-100721475D01*
X84571760Y-100838000D01*
X84397368Y-100954525D01*
X84190525Y-101161368D01*
X84028010Y-101404589D01*
X83916068Y-101674842D01*
X83859000Y-101961740D01*
X83859000Y-102254260D01*
X83916068Y-102541158D01*
X84028010Y-102811411D01*
X84190525Y-103054632D01*
X84397368Y-103261475D01*
X84579534Y-103383195D01*
X84462645Y-103452822D01*
X84246412Y-103647731D01*
X84072359Y-103881080D01*
X83947175Y-104143901D01*
X83902524Y-104291110D01*
X84023845Y-104521000D01*
X85217000Y-104521000D01*
X85217000Y-104501000D01*
X85471000Y-104501000D01*
X85471000Y-104521000D01*
X87757000Y-104521000D01*
X87757000Y-104501000D01*
X88011000Y-104501000D01*
X88011000Y-104521000D01*
X89204155Y-104521000D01*
X89325476Y-104291110D01*
X89280825Y-104143901D01*
X89155641Y-103881080D01*
X89107196Y-103816131D01*
X89237614Y-103946549D01*
X89407132Y-104059817D01*
X89595490Y-104137838D01*
X89795449Y-104177612D01*
X89857587Y-104177612D01*
X90172000Y-104492026D01*
X90172001Y-114612288D01*
X90128063Y-114656226D01*
X90014795Y-114825744D01*
X89936774Y-115014102D01*
X89897000Y-115214061D01*
X89897000Y-115417939D01*
X89936774Y-115617898D01*
X90014795Y-115806256D01*
X90128063Y-115975774D01*
X90272226Y-116119937D01*
X90441744Y-116233205D01*
X90630102Y-116311226D01*
X90830061Y-116351000D01*
X91033939Y-116351000D01*
X91233898Y-116311226D01*
X91422256Y-116233205D01*
X91591774Y-116119937D01*
X91735937Y-115975774D01*
X91849205Y-115806256D01*
X91927226Y-115617898D01*
X91967000Y-115417939D01*
X91967000Y-115214061D01*
X91927226Y-115014102D01*
X91849205Y-114825744D01*
X91735937Y-114656226D01*
X91692000Y-114612289D01*
X91692000Y-104986720D01*
X92712000Y-106006721D01*
X92712001Y-114612288D01*
X92668063Y-114656226D01*
X92554795Y-114825744D01*
X92476774Y-115014102D01*
X92437000Y-115214061D01*
X92437000Y-115417939D01*
X92476774Y-115617898D01*
X92554795Y-115806256D01*
X92668063Y-115975774D01*
X92812226Y-116119937D01*
X92981744Y-116233205D01*
X93170102Y-116311226D01*
X93370061Y-116351000D01*
X93573939Y-116351000D01*
X93773898Y-116311226D01*
X93962256Y-116233205D01*
X94131774Y-116119937D01*
X94275937Y-115975774D01*
X94389205Y-115806256D01*
X94467226Y-115617898D01*
X94507000Y-115417939D01*
X94507000Y-115214061D01*
X94467226Y-115014102D01*
X94389205Y-114825744D01*
X94275937Y-114656226D01*
X94232000Y-114612289D01*
X94232000Y-106501414D01*
X95252000Y-107521414D01*
X95252001Y-114612288D01*
X95208063Y-114656226D01*
X95094795Y-114825744D01*
X95016774Y-115014102D01*
X94977000Y-115214061D01*
X94977000Y-115417939D01*
X95016774Y-115617898D01*
X95094795Y-115806256D01*
X95208063Y-115975774D01*
X95352226Y-116119937D01*
X95521744Y-116233205D01*
X95710102Y-116311226D01*
X95910061Y-116351000D01*
X96113939Y-116351000D01*
X96313898Y-116311226D01*
X96502256Y-116233205D01*
X96671774Y-116119937D01*
X96815937Y-115975774D01*
X96929205Y-115806256D01*
X97007226Y-115617898D01*
X97047000Y-115417939D01*
X97047000Y-115214061D01*
X97007226Y-115014102D01*
X96929205Y-114825744D01*
X96815937Y-114656226D01*
X96772000Y-114612289D01*
X96772000Y-108006802D01*
X97792000Y-109026803D01*
X97792001Y-114612288D01*
X97748063Y-114656226D01*
X97634795Y-114825744D01*
X97556774Y-115014102D01*
X97517000Y-115214061D01*
X97517000Y-115417939D01*
X97556774Y-115617898D01*
X97634795Y-115806256D01*
X97748063Y-115975774D01*
X97892226Y-116119937D01*
X98061744Y-116233205D01*
X98250102Y-116311226D01*
X98450061Y-116351000D01*
X98653939Y-116351000D01*
X98853898Y-116311226D01*
X99042256Y-116233205D01*
X99211774Y-116119937D01*
X99355937Y-115975774D01*
X99469205Y-115806256D01*
X99547226Y-115617898D01*
X99587000Y-115417939D01*
X99587000Y-115214061D01*
X99547226Y-115014102D01*
X99469205Y-114825744D01*
X99355937Y-114656226D01*
X99312000Y-114612289D01*
X99312000Y-108749322D01*
X99315676Y-108711999D01*
X99312000Y-108674676D01*
X99312000Y-108674667D01*
X99301757Y-108570665D01*
X102197000Y-108570665D01*
X102197000Y-108853335D01*
X102252147Y-109130574D01*
X102360320Y-109391727D01*
X102517363Y-109626759D01*
X102717241Y-109826637D01*
X102952273Y-109983680D01*
X103213426Y-110091853D01*
X103490665Y-110147000D01*
X103773335Y-110147000D01*
X104050574Y-110091853D01*
X104311727Y-109983680D01*
X104546759Y-109826637D01*
X104746637Y-109626759D01*
X104850043Y-109472000D01*
X106134678Y-109472000D01*
X106172000Y-109475676D01*
X106209322Y-109472000D01*
X106209333Y-109472000D01*
X106320986Y-109461003D01*
X106464247Y-109417546D01*
X106596276Y-109346974D01*
X106712001Y-109252001D01*
X106735804Y-109222997D01*
X108954302Y-107004500D01*
X109016439Y-107004500D01*
X109216398Y-106964726D01*
X109404756Y-106886705D01*
X109574274Y-106773437D01*
X109718437Y-106629274D01*
X109831705Y-106459756D01*
X109909726Y-106271398D01*
X109949500Y-106071439D01*
X109949500Y-105867561D01*
X109909726Y-105667602D01*
X109831705Y-105479244D01*
X109718437Y-105309726D01*
X109574274Y-105165563D01*
X109404756Y-105052295D01*
X109216398Y-104974274D01*
X109016439Y-104934500D01*
X108812561Y-104934500D01*
X108612602Y-104974274D01*
X108424244Y-105052295D01*
X108254726Y-105165563D01*
X108110563Y-105309726D01*
X107997295Y-105479244D01*
X107919274Y-105667602D01*
X107879500Y-105867561D01*
X107879500Y-105929698D01*
X105857199Y-107952000D01*
X104850043Y-107952000D01*
X104746637Y-107797241D01*
X104546759Y-107597363D01*
X104311727Y-107440320D01*
X104050574Y-107332147D01*
X103773335Y-107277000D01*
X103490665Y-107277000D01*
X103213426Y-107332147D01*
X102952273Y-107440320D01*
X102717241Y-107597363D01*
X102517363Y-107797241D01*
X102360320Y-108032273D01*
X102252147Y-108293426D01*
X102197000Y-108570665D01*
X99301757Y-108570665D01*
X99301003Y-108563014D01*
X99257546Y-108419753D01*
X99186974Y-108287724D01*
X99118264Y-108204000D01*
X99115799Y-108200996D01*
X99115795Y-108200992D01*
X99092001Y-108171999D01*
X99063009Y-108148206D01*
X95559804Y-104645003D01*
X95536001Y-104615999D01*
X95455107Y-104549611D01*
X94476161Y-103570665D01*
X102197000Y-103570665D01*
X102197000Y-103853335D01*
X102252147Y-104130574D01*
X102360320Y-104391727D01*
X102517363Y-104626759D01*
X102717241Y-104826637D01*
X102952273Y-104983680D01*
X103213426Y-105091853D01*
X103490665Y-105147000D01*
X103773335Y-105147000D01*
X104050574Y-105091853D01*
X104311727Y-104983680D01*
X104546759Y-104826637D01*
X104746637Y-104626759D01*
X104903680Y-104391727D01*
X105011853Y-104130574D01*
X105067000Y-103853335D01*
X105067000Y-103570665D01*
X105011853Y-103293426D01*
X104903680Y-103032273D01*
X104746637Y-102797241D01*
X104546759Y-102597363D01*
X104311727Y-102440320D01*
X104050574Y-102332147D01*
X103773335Y-102277000D01*
X103490665Y-102277000D01*
X103213426Y-102332147D01*
X102952273Y-102440320D01*
X102717241Y-102597363D01*
X102517363Y-102797241D01*
X102360320Y-103032273D01*
X102252147Y-103293426D01*
X102197000Y-103570665D01*
X94476161Y-103570665D01*
X90946347Y-100040852D01*
X90946347Y-99978714D01*
X90906573Y-99778755D01*
X90828552Y-99590397D01*
X90715284Y-99420879D01*
X90571121Y-99276716D01*
X90401603Y-99163448D01*
X90213245Y-99085427D01*
X90013286Y-99045653D01*
X89809408Y-99045653D01*
X89609449Y-99085427D01*
X89421091Y-99163448D01*
X89329761Y-99224473D01*
X89311932Y-99134842D01*
X89199990Y-98864589D01*
X89037475Y-98621368D01*
X88830632Y-98414525D01*
X88656240Y-98298000D01*
X88830632Y-98181475D01*
X89037475Y-97974632D01*
X89199990Y-97731411D01*
X89311932Y-97461158D01*
X89369000Y-97174260D01*
X89369000Y-96881740D01*
X89311932Y-96594842D01*
X89199990Y-96324589D01*
X89037475Y-96081368D01*
X88830632Y-95874525D01*
X88656240Y-95758000D01*
X88830632Y-95641475D01*
X89037475Y-95434632D01*
X89199990Y-95191411D01*
X89311932Y-94921158D01*
X89369000Y-94634260D01*
X89369000Y-94341740D01*
X89311932Y-94054842D01*
X89199990Y-93784589D01*
X89037475Y-93541368D01*
X88830632Y-93334525D01*
X88587411Y-93172010D01*
X88317158Y-93060068D01*
X88030260Y-93003000D01*
X87737740Y-93003000D01*
X87450842Y-93060068D01*
X87180589Y-93172010D01*
X86937368Y-93334525D01*
X86730525Y-93541368D01*
X86614000Y-93715760D01*
X86497475Y-93541368D01*
X86290632Y-93334525D01*
X86047411Y-93172010D01*
X85777158Y-93060068D01*
X85490260Y-93003000D01*
X85197740Y-93003000D01*
X84910842Y-93060068D01*
X84640589Y-93172010D01*
X84397368Y-93334525D01*
X84190525Y-93541368D01*
X84028010Y-93784589D01*
X83916068Y-94054842D01*
X83859000Y-94341740D01*
X78328648Y-94341740D01*
X78399061Y-94236359D01*
X78499696Y-93993405D01*
X78551000Y-93735486D01*
X78551000Y-93472514D01*
X78529645Y-93365156D01*
X83061003Y-88833799D01*
X83090001Y-88810001D01*
X83120346Y-88773026D01*
X83184974Y-88694277D01*
X83255546Y-88562247D01*
X83291723Y-88442985D01*
X83299003Y-88418986D01*
X83310000Y-88307333D01*
X83310000Y-88307324D01*
X83313676Y-88270001D01*
X83310000Y-88232678D01*
X83310000Y-86784000D01*
X91225928Y-86784000D01*
X91225928Y-88984000D01*
X91238188Y-89108482D01*
X91274498Y-89228180D01*
X91333463Y-89338494D01*
X91412815Y-89435185D01*
X91509506Y-89514537D01*
X91619820Y-89573502D01*
X91739518Y-89609812D01*
X91864000Y-89622072D01*
X94064000Y-89622072D01*
X94188482Y-89609812D01*
X94308180Y-89573502D01*
X94418494Y-89514537D01*
X94515185Y-89435185D01*
X94594537Y-89338494D01*
X94653502Y-89228180D01*
X94689812Y-89108482D01*
X94702072Y-88984000D01*
X94702072Y-86784000D01*
X94700306Y-86766061D01*
X95990000Y-86766061D01*
X95990000Y-86969939D01*
X96029774Y-87169898D01*
X96107795Y-87358256D01*
X96221063Y-87527774D01*
X96265001Y-87571712D01*
X96265000Y-88969461D01*
X96261324Y-89006784D01*
X96265000Y-89044106D01*
X96265000Y-89044116D01*
X96275997Y-89155769D01*
X96307316Y-89259015D01*
X96319454Y-89299030D01*
X96390026Y-89431060D01*
X96410166Y-89455600D01*
X96484999Y-89546785D01*
X96514003Y-89570588D01*
X97501271Y-90557856D01*
X97384226Y-90636063D01*
X97240063Y-90780226D01*
X97126795Y-90949744D01*
X97048774Y-91138102D01*
X97009000Y-91338061D01*
X97009000Y-91541939D01*
X97048774Y-91741898D01*
X97126795Y-91930256D01*
X97240063Y-92099774D01*
X97384226Y-92243937D01*
X97553744Y-92357205D01*
X97742102Y-92435226D01*
X97792000Y-92445151D01*
X97792001Y-93784288D01*
X97748063Y-93828226D01*
X97634795Y-93997744D01*
X97556774Y-94186102D01*
X97517000Y-94386061D01*
X97517000Y-94589939D01*
X97556774Y-94789898D01*
X97634795Y-94978256D01*
X97748063Y-95147774D01*
X97892226Y-95291937D01*
X98061744Y-95405205D01*
X98250102Y-95483226D01*
X98450061Y-95523000D01*
X98653939Y-95523000D01*
X98853898Y-95483226D01*
X99042256Y-95405205D01*
X99211774Y-95291937D01*
X99355937Y-95147774D01*
X99469205Y-94978256D01*
X99547226Y-94789898D01*
X99587000Y-94589939D01*
X99587000Y-94386061D01*
X99547226Y-94186102D01*
X99469205Y-93997744D01*
X99355937Y-93828226D01*
X99312000Y-93784289D01*
X99312000Y-91985322D01*
X99315676Y-91947999D01*
X99312000Y-91910676D01*
X99312000Y-91910667D01*
X99301003Y-91799014D01*
X99257546Y-91655753D01*
X99251060Y-91643618D01*
X99410882Y-91536829D01*
X99555045Y-91392666D01*
X99668313Y-91223148D01*
X99746334Y-91034790D01*
X99786108Y-90834831D01*
X99786108Y-90630953D01*
X99746334Y-90430994D01*
X99668313Y-90242636D01*
X99555045Y-90073118D01*
X99410882Y-89928955D01*
X99241364Y-89815687D01*
X99053006Y-89737666D01*
X98853047Y-89697892D01*
X98790910Y-89697892D01*
X97785000Y-88691983D01*
X97785000Y-88280122D01*
X101434825Y-88280122D01*
X101499425Y-88493094D01*
X101649469Y-88798329D01*
X101856178Y-89068427D01*
X102111609Y-89293008D01*
X102405946Y-89463442D01*
X102727877Y-89573179D01*
X102997000Y-89455600D01*
X102997000Y-88011000D01*
X103251000Y-88011000D01*
X103251000Y-89455600D01*
X103520123Y-89573179D01*
X103842054Y-89463442D01*
X104136391Y-89293008D01*
X104391822Y-89068427D01*
X104598531Y-88798329D01*
X104748575Y-88493094D01*
X104813175Y-88280122D01*
X104695125Y-88011000D01*
X103251000Y-88011000D01*
X102997000Y-88011000D01*
X101552875Y-88011000D01*
X101434825Y-88280122D01*
X97785000Y-88280122D01*
X97785000Y-87571711D01*
X97828937Y-87527774D01*
X97855594Y-87487878D01*
X101434825Y-87487878D01*
X101552875Y-87757000D01*
X102997000Y-87757000D01*
X102997000Y-86312400D01*
X103251000Y-86312400D01*
X103251000Y-87757000D01*
X104695125Y-87757000D01*
X104813175Y-87487878D01*
X104748575Y-87274906D01*
X104598531Y-86969671D01*
X104391822Y-86699573D01*
X104136391Y-86474992D01*
X103842054Y-86304558D01*
X103520123Y-86194821D01*
X103251000Y-86312400D01*
X102997000Y-86312400D01*
X102727877Y-86194821D01*
X102405946Y-86304558D01*
X102111609Y-86474992D01*
X101856178Y-86699573D01*
X101649469Y-86969671D01*
X101499425Y-87274906D01*
X101434825Y-87487878D01*
X97855594Y-87487878D01*
X97942205Y-87358256D01*
X98020226Y-87169898D01*
X98060000Y-86969939D01*
X98060000Y-86766061D01*
X98020226Y-86566102D01*
X97942205Y-86377744D01*
X97828937Y-86208226D01*
X97684774Y-86064063D01*
X97515256Y-85950795D01*
X97326898Y-85872774D01*
X97126939Y-85833000D01*
X96923061Y-85833000D01*
X96723102Y-85872774D01*
X96534744Y-85950795D01*
X96365226Y-86064063D01*
X96221063Y-86208226D01*
X96107795Y-86377744D01*
X96029774Y-86566102D01*
X95990000Y-86766061D01*
X94700306Y-86766061D01*
X94689812Y-86659518D01*
X94653502Y-86539820D01*
X94594537Y-86429506D01*
X94515185Y-86332815D01*
X94418494Y-86253463D01*
X94308180Y-86194498D01*
X94188482Y-86158188D01*
X94064000Y-86145928D01*
X91864000Y-86145928D01*
X91739518Y-86158188D01*
X91619820Y-86194498D01*
X91509506Y-86253463D01*
X91412815Y-86332815D01*
X91333463Y-86429506D01*
X91274498Y-86539820D01*
X91238188Y-86659518D01*
X91225928Y-86784000D01*
X83310000Y-86784000D01*
X83310000Y-71288072D01*
X83350000Y-71288072D01*
X83474482Y-71275812D01*
X83594180Y-71239502D01*
X83704494Y-71180537D01*
X83801185Y-71101185D01*
X83880537Y-71004494D01*
X83939502Y-70894180D01*
X83975812Y-70774482D01*
X83988072Y-70650000D01*
X83988072Y-69050000D01*
X86191928Y-69050000D01*
X86191928Y-70650000D01*
X86204188Y-70774482D01*
X86240498Y-70894180D01*
X86299463Y-71004494D01*
X86378815Y-71101185D01*
X86475506Y-71180537D01*
X86585820Y-71239502D01*
X86705518Y-71275812D01*
X86830000Y-71288072D01*
X88430000Y-71288072D01*
X88554482Y-71275812D01*
X88674180Y-71239502D01*
X88784494Y-71180537D01*
X88881185Y-71101185D01*
X88960537Y-71004494D01*
X89019502Y-70894180D01*
X89035117Y-70842702D01*
X89316903Y-70842702D01*
X89388486Y-71086671D01*
X89643996Y-71207571D01*
X89918184Y-71276300D01*
X90200512Y-71290217D01*
X90480130Y-71248787D01*
X90746292Y-71153603D01*
X90871514Y-71086671D01*
X90943097Y-70842702D01*
X90130000Y-70029605D01*
X89316903Y-70842702D01*
X89035117Y-70842702D01*
X89055812Y-70774482D01*
X89068072Y-70650000D01*
X89068072Y-70642785D01*
X89137298Y-70663097D01*
X89950395Y-69850000D01*
X90309605Y-69850000D01*
X91122702Y-70663097D01*
X91167339Y-70650000D01*
X93811928Y-70650000D01*
X93824188Y-70774482D01*
X93860498Y-70894180D01*
X93919463Y-71004494D01*
X93998815Y-71101185D01*
X94095506Y-71180537D01*
X94205820Y-71239502D01*
X94325518Y-71275812D01*
X94450000Y-71288072D01*
X94964250Y-71285000D01*
X95123000Y-71126250D01*
X95123000Y-69977000D01*
X93973750Y-69977000D01*
X93815000Y-70135750D01*
X93811928Y-70650000D01*
X91167339Y-70650000D01*
X91366671Y-70591514D01*
X91487571Y-70336004D01*
X91556300Y-70061816D01*
X91570217Y-69779488D01*
X91528787Y-69499870D01*
X91433603Y-69233708D01*
X91366671Y-69108486D01*
X91167340Y-69050000D01*
X93811928Y-69050000D01*
X93815000Y-69564250D01*
X93973750Y-69723000D01*
X95123000Y-69723000D01*
X95123000Y-68573750D01*
X95377000Y-68573750D01*
X95377000Y-69723000D01*
X95397000Y-69723000D01*
X95397000Y-69977000D01*
X95377000Y-69977000D01*
X95377000Y-71126250D01*
X95535750Y-71285000D01*
X96050000Y-71288072D01*
X96174482Y-71275812D01*
X96294180Y-71239502D01*
X96404494Y-71180537D01*
X96501185Y-71101185D01*
X96580537Y-71004494D01*
X96639502Y-70894180D01*
X96668661Y-70798057D01*
X96835241Y-70964637D01*
X97070273Y-71121680D01*
X97331426Y-71229853D01*
X97608665Y-71285000D01*
X97891335Y-71285000D01*
X98168574Y-71229853D01*
X98429727Y-71121680D01*
X98664759Y-70964637D01*
X98864637Y-70764759D01*
X99021680Y-70529727D01*
X99129853Y-70268574D01*
X99185000Y-69991335D01*
X99185000Y-69708665D01*
X99129853Y-69431426D01*
X99021680Y-69170273D01*
X98864637Y-68935241D01*
X98664759Y-68735363D01*
X98429727Y-68578320D01*
X98168574Y-68470147D01*
X97891335Y-68415000D01*
X97608665Y-68415000D01*
X97331426Y-68470147D01*
X97070273Y-68578320D01*
X96835241Y-68735363D01*
X96668661Y-68901943D01*
X96639502Y-68805820D01*
X96580537Y-68695506D01*
X96501185Y-68598815D01*
X96404494Y-68519463D01*
X96294180Y-68460498D01*
X96174482Y-68424188D01*
X96050000Y-68411928D01*
X95535750Y-68415000D01*
X95377000Y-68573750D01*
X95123000Y-68573750D01*
X94964250Y-68415000D01*
X94450000Y-68411928D01*
X94325518Y-68424188D01*
X94205820Y-68460498D01*
X94095506Y-68519463D01*
X93998815Y-68598815D01*
X93919463Y-68695506D01*
X93860498Y-68805820D01*
X93824188Y-68925518D01*
X93811928Y-69050000D01*
X91167340Y-69050000D01*
X91122702Y-69036903D01*
X90309605Y-69850000D01*
X89950395Y-69850000D01*
X89137298Y-69036903D01*
X89068072Y-69057215D01*
X89068072Y-69050000D01*
X89055812Y-68925518D01*
X89035118Y-68857298D01*
X89316903Y-68857298D01*
X90130000Y-69670395D01*
X90943097Y-68857298D01*
X90871514Y-68613329D01*
X90616004Y-68492429D01*
X90341816Y-68423700D01*
X90059488Y-68409783D01*
X89779870Y-68451213D01*
X89513708Y-68546397D01*
X89388486Y-68613329D01*
X89316903Y-68857298D01*
X89035118Y-68857298D01*
X89019502Y-68805820D01*
X88960537Y-68695506D01*
X88881185Y-68598815D01*
X88784494Y-68519463D01*
X88674180Y-68460498D01*
X88554482Y-68424188D01*
X88430000Y-68411928D01*
X86830000Y-68411928D01*
X86705518Y-68424188D01*
X86585820Y-68460498D01*
X86475506Y-68519463D01*
X86378815Y-68598815D01*
X86299463Y-68695506D01*
X86240498Y-68805820D01*
X86204188Y-68925518D01*
X86191928Y-69050000D01*
X83988072Y-69050000D01*
X83975812Y-68925518D01*
X83939502Y-68805820D01*
X83880537Y-68695506D01*
X83801185Y-68598815D01*
X83704494Y-68519463D01*
X83594180Y-68460498D01*
X83474482Y-68424188D01*
X83350000Y-68411928D01*
X81750000Y-68411928D01*
X81625518Y-68424188D01*
X81505820Y-68460498D01*
X81395506Y-68519463D01*
X81298815Y-68598815D01*
X81219463Y-68695506D01*
X81160498Y-68805820D01*
X81124188Y-68925518D01*
X81111928Y-69050000D01*
X81111928Y-69057215D01*
X81042702Y-69036903D01*
X80229605Y-69850000D01*
X81042702Y-70663097D01*
X81111928Y-70642785D01*
X81111928Y-70650000D01*
X81124188Y-70774482D01*
X81160498Y-70894180D01*
X81219463Y-71004494D01*
X81298815Y-71101185D01*
X81395506Y-71180537D01*
X81505820Y-71239502D01*
X81625518Y-71275812D01*
X81750000Y-71288072D01*
X81790000Y-71288072D01*
X81790001Y-87955197D01*
X77454844Y-92290355D01*
X77347486Y-92269000D01*
X77084514Y-92269000D01*
X76826595Y-92320304D01*
X76583641Y-92420939D01*
X76364987Y-92567038D01*
X76179038Y-92752987D01*
X76161000Y-92779983D01*
X76161000Y-90678322D01*
X76164676Y-90640999D01*
X76161000Y-90603676D01*
X76161000Y-90603667D01*
X76150003Y-90492014D01*
X76106546Y-90348753D01*
X76035974Y-90216724D01*
X75941001Y-90100999D01*
X75912004Y-90077202D01*
X75203000Y-89368199D01*
X75203000Y-89306061D01*
X75163226Y-89106102D01*
X75085205Y-88917744D01*
X74971937Y-88748226D01*
X74827774Y-88604063D01*
X74658256Y-88490795D01*
X74469898Y-88412774D01*
X74269939Y-88373000D01*
X74066061Y-88373000D01*
X74020001Y-88382162D01*
X74020001Y-85002000D01*
X77251928Y-85002000D01*
X77251928Y-86702000D01*
X77264188Y-86826482D01*
X77300498Y-86946180D01*
X77359463Y-87056494D01*
X77438815Y-87153185D01*
X77535506Y-87232537D01*
X77645820Y-87291502D01*
X77765518Y-87327812D01*
X77890000Y-87340072D01*
X79590000Y-87340072D01*
X79714482Y-87327812D01*
X79834180Y-87291502D01*
X79944494Y-87232537D01*
X80041185Y-87153185D01*
X80120537Y-87056494D01*
X80179502Y-86946180D01*
X80215812Y-86826482D01*
X80228072Y-86702000D01*
X80228072Y-85002000D01*
X80215812Y-84877518D01*
X80179502Y-84757820D01*
X80120537Y-84647506D01*
X80041185Y-84550815D01*
X79944494Y-84471463D01*
X79834180Y-84412498D01*
X79761620Y-84390487D01*
X79893475Y-84258632D01*
X80055990Y-84015411D01*
X80167932Y-83745158D01*
X80225000Y-83458260D01*
X80225000Y-83165740D01*
X80167932Y-82878842D01*
X80055990Y-82608589D01*
X79893475Y-82365368D01*
X79686632Y-82158525D01*
X79512240Y-82042000D01*
X79686632Y-81925475D01*
X79893475Y-81718632D01*
X80055990Y-81475411D01*
X80167932Y-81205158D01*
X80225000Y-80918260D01*
X80225000Y-80625740D01*
X80167932Y-80338842D01*
X80055990Y-80068589D01*
X79893475Y-79825368D01*
X79686632Y-79618525D01*
X79443411Y-79456010D01*
X79173158Y-79344068D01*
X78886260Y-79287000D01*
X78593740Y-79287000D01*
X78306842Y-79344068D01*
X78036589Y-79456010D01*
X77793368Y-79618525D01*
X77586525Y-79825368D01*
X77424010Y-80068589D01*
X77312068Y-80338842D01*
X77255000Y-80625740D01*
X77255000Y-80918260D01*
X77312068Y-81205158D01*
X77424010Y-81475411D01*
X77586525Y-81718632D01*
X77793368Y-81925475D01*
X77967760Y-82042000D01*
X77793368Y-82158525D01*
X77586525Y-82365368D01*
X77424010Y-82608589D01*
X77312068Y-82878842D01*
X77255000Y-83165740D01*
X77255000Y-83458260D01*
X77312068Y-83745158D01*
X77424010Y-84015411D01*
X77586525Y-84258632D01*
X77718380Y-84390487D01*
X77645820Y-84412498D01*
X77535506Y-84471463D01*
X77438815Y-84550815D01*
X77359463Y-84647506D01*
X77300498Y-84757820D01*
X77264188Y-84877518D01*
X77251928Y-85002000D01*
X74020001Y-85002000D01*
X74020001Y-77171159D01*
X74150256Y-77117205D01*
X74319774Y-77003937D01*
X74463937Y-76859774D01*
X74577205Y-76690256D01*
X74655226Y-76501898D01*
X74695000Y-76301939D01*
X74695000Y-76098061D01*
X74655226Y-75898102D01*
X74577205Y-75709744D01*
X74463937Y-75540226D01*
X74319774Y-75396063D01*
X74150256Y-75282795D01*
X73961898Y-75204774D01*
X73761939Y-75165000D01*
X73558061Y-75165000D01*
X73358102Y-75204774D01*
X73169744Y-75282795D01*
X73000226Y-75396063D01*
X72856063Y-75540226D01*
X72742795Y-75709744D01*
X72664774Y-75898102D01*
X72625000Y-76098061D01*
X72625000Y-76175774D01*
X72612050Y-76200001D01*
X72554455Y-76307753D01*
X72510998Y-76451014D01*
X72500001Y-76562667D01*
X72500001Y-76562677D01*
X72496325Y-76599999D01*
X72500001Y-76637321D01*
X72500002Y-90494659D01*
X72500001Y-90494669D01*
X72500002Y-93049196D01*
X72096198Y-93453000D01*
X72050072Y-93453000D01*
X72050072Y-92164000D01*
X72037812Y-92039518D01*
X72001502Y-91919820D01*
X71942537Y-91809506D01*
X71863185Y-91712815D01*
X71766494Y-91633463D01*
X71656180Y-91574498D01*
X71536482Y-91538188D01*
X71412000Y-91525928D01*
X69812000Y-91525928D01*
X69687518Y-91538188D01*
X69567820Y-91574498D01*
X69457506Y-91633463D01*
X69360815Y-91712815D01*
X69281463Y-91809506D01*
X69222498Y-91919820D01*
X69186188Y-92039518D01*
X69173928Y-92164000D01*
X69173928Y-93764000D01*
X69186188Y-93888482D01*
X69222498Y-94008180D01*
X69281463Y-94118494D01*
X69360815Y-94215185D01*
X69457506Y-94294537D01*
X69567820Y-94353502D01*
X69687518Y-94389812D01*
X69812000Y-94402072D01*
X71101000Y-94402072D01*
X71101000Y-94589939D01*
X71140774Y-94789898D01*
X71218795Y-94978256D01*
X71332063Y-95147774D01*
X71434289Y-95250000D01*
X71332063Y-95352226D01*
X71218795Y-95521744D01*
X71164841Y-95651999D01*
X68869459Y-95651999D01*
X68899000Y-95503486D01*
X68899000Y-95240514D01*
X68847696Y-94982595D01*
X68747061Y-94739641D01*
X68600962Y-94520987D01*
X68501975Y-94422000D01*
X68600962Y-94323013D01*
X68747061Y-94104359D01*
X68847696Y-93861405D01*
X68899000Y-93603486D01*
X68899000Y-93340514D01*
X68847696Y-93082595D01*
X68747061Y-92839641D01*
X68600962Y-92620987D01*
X68415013Y-92435038D01*
X68196359Y-92288939D01*
X67953405Y-92188304D01*
X67695486Y-92137000D01*
X67432514Y-92137000D01*
X67174595Y-92188304D01*
X66931641Y-92288939D01*
X66712987Y-92435038D01*
X66527038Y-92620987D01*
X66380939Y-92839641D01*
X66280304Y-93082595D01*
X66229000Y-93340514D01*
X66229000Y-93603486D01*
X66280304Y-93861405D01*
X66380939Y-94104359D01*
X66527038Y-94323013D01*
X66626025Y-94422000D01*
X66527038Y-94520987D01*
X66380939Y-94739641D01*
X66280304Y-94982595D01*
X66229000Y-95240514D01*
X66229000Y-95245289D01*
X66191774Y-95208063D01*
X66022256Y-95094795D01*
X65833898Y-95016774D01*
X65633939Y-94977000D01*
X65430061Y-94977000D01*
X65230102Y-95016774D01*
X65041744Y-95094795D01*
X64872226Y-95208063D01*
X64728063Y-95352226D01*
X64614795Y-95521744D01*
X64536774Y-95710102D01*
X64497000Y-95910061D01*
X39016686Y-95910061D01*
X38960033Y-85202665D01*
X69177000Y-85202665D01*
X69177000Y-85485335D01*
X69232147Y-85762574D01*
X69340320Y-86023727D01*
X69497363Y-86258759D01*
X69697241Y-86458637D01*
X69932273Y-86615680D01*
X70193426Y-86723853D01*
X70470665Y-86779000D01*
X70753335Y-86779000D01*
X71030574Y-86723853D01*
X71291727Y-86615680D01*
X71526759Y-86458637D01*
X71726637Y-86258759D01*
X71883680Y-86023727D01*
X71991853Y-85762574D01*
X72047000Y-85485335D01*
X72047000Y-85202665D01*
X71991853Y-84925426D01*
X71883680Y-84664273D01*
X71726637Y-84429241D01*
X71526759Y-84229363D01*
X71291727Y-84072320D01*
X71030574Y-83964147D01*
X70753335Y-83909000D01*
X70470665Y-83909000D01*
X70193426Y-83964147D01*
X69932273Y-84072320D01*
X69697241Y-84229363D01*
X69497363Y-84429241D01*
X69340320Y-84664273D01*
X69232147Y-84925426D01*
X69177000Y-85202665D01*
X38960033Y-85202665D01*
X38884055Y-70842702D01*
X79236903Y-70842702D01*
X79308486Y-71086671D01*
X79563996Y-71207571D01*
X79838184Y-71276300D01*
X80120512Y-71290217D01*
X80400130Y-71248787D01*
X80666292Y-71153603D01*
X80791514Y-71086671D01*
X80863097Y-70842702D01*
X80050000Y-70029605D01*
X79236903Y-70842702D01*
X38884055Y-70842702D01*
X38879175Y-69920512D01*
X78609783Y-69920512D01*
X78651213Y-70200130D01*
X78746397Y-70466292D01*
X78813329Y-70591514D01*
X79057298Y-70663097D01*
X79870395Y-69850000D01*
X79057298Y-69036903D01*
X78813329Y-69108486D01*
X78692429Y-69363996D01*
X78623700Y-69638184D01*
X78609783Y-69920512D01*
X38879175Y-69920512D01*
X38873550Y-68857298D01*
X79236903Y-68857298D01*
X80050000Y-69670395D01*
X80863097Y-68857298D01*
X80791514Y-68613329D01*
X80536004Y-68492429D01*
X80261816Y-68423700D01*
X79979488Y-68409783D01*
X79699870Y-68451213D01*
X79433708Y-68546397D01*
X79308486Y-68613329D01*
X79236903Y-68857298D01*
X38873550Y-68857298D01*
X38835101Y-61590514D01*
X83755000Y-61590514D01*
X83755000Y-61853486D01*
X83806304Y-62111405D01*
X83906939Y-62354359D01*
X84053038Y-62573013D01*
X84152025Y-62672000D01*
X84053038Y-62770987D01*
X83906939Y-62989641D01*
X83806304Y-63232595D01*
X83755000Y-63490514D01*
X83755000Y-63753486D01*
X83806304Y-64011405D01*
X83906939Y-64254359D01*
X84053038Y-64473013D01*
X84238987Y-64658962D01*
X84457641Y-64805061D01*
X84700595Y-64905696D01*
X84958514Y-64957000D01*
X85221486Y-64957000D01*
X85479405Y-64905696D01*
X85722359Y-64805061D01*
X85941013Y-64658962D01*
X86126962Y-64473013D01*
X86273061Y-64254359D01*
X86373696Y-64011405D01*
X86425000Y-63753486D01*
X86425000Y-63490514D01*
X86373696Y-63232595D01*
X86273061Y-62989641D01*
X86126962Y-62770987D01*
X86027975Y-62672000D01*
X86126962Y-62573013D01*
X86273061Y-62354359D01*
X86373696Y-62111405D01*
X86425000Y-61853486D01*
X86425000Y-61590514D01*
X86400733Y-61468514D01*
X90867000Y-61468514D01*
X90867000Y-61731486D01*
X90918304Y-61989405D01*
X91018939Y-62232359D01*
X91165038Y-62451013D01*
X91264025Y-62550000D01*
X91165038Y-62648987D01*
X91018939Y-62867641D01*
X90918304Y-63110595D01*
X90867000Y-63368514D01*
X90867000Y-63631486D01*
X90918304Y-63889405D01*
X91018939Y-64132359D01*
X91165038Y-64351013D01*
X91350987Y-64536962D01*
X91569641Y-64683061D01*
X91812595Y-64783696D01*
X92070514Y-64835000D01*
X92333486Y-64835000D01*
X92591405Y-64783696D01*
X92834359Y-64683061D01*
X93053013Y-64536962D01*
X93238962Y-64351013D01*
X93385061Y-64132359D01*
X93485696Y-63889405D01*
X93537000Y-63631486D01*
X93537000Y-63368514D01*
X93485696Y-63110595D01*
X93385061Y-62867641D01*
X93238962Y-62648987D01*
X93139975Y-62550000D01*
X93238962Y-62451013D01*
X93385061Y-62232359D01*
X93485696Y-61989405D01*
X93537000Y-61731486D01*
X93537000Y-61468514D01*
X98233000Y-61468514D01*
X98233000Y-61731486D01*
X98284304Y-61989405D01*
X98384939Y-62232359D01*
X98531038Y-62451013D01*
X98630025Y-62550000D01*
X98531038Y-62648987D01*
X98384939Y-62867641D01*
X98284304Y-63110595D01*
X98233000Y-63368514D01*
X98233000Y-63631486D01*
X98284304Y-63889405D01*
X98384939Y-64132359D01*
X98531038Y-64351013D01*
X98716987Y-64536962D01*
X98935641Y-64683061D01*
X99178595Y-64783696D01*
X99436514Y-64835000D01*
X99699486Y-64835000D01*
X99957405Y-64783696D01*
X100200359Y-64683061D01*
X100419013Y-64536962D01*
X100604962Y-64351013D01*
X100751061Y-64132359D01*
X100851696Y-63889405D01*
X100903000Y-63631486D01*
X100903000Y-63368514D01*
X100851696Y-63110595D01*
X100751061Y-62867641D01*
X100604962Y-62648987D01*
X100505975Y-62550000D01*
X100604962Y-62451013D01*
X100751061Y-62232359D01*
X100851696Y-61989405D01*
X100903000Y-61731486D01*
X100903000Y-61468514D01*
X100851696Y-61210595D01*
X100751061Y-60967641D01*
X100604962Y-60748987D01*
X100419013Y-60563038D01*
X100200359Y-60416939D01*
X99957405Y-60316304D01*
X99699486Y-60265000D01*
X99436514Y-60265000D01*
X99178595Y-60316304D01*
X98935641Y-60416939D01*
X98716987Y-60563038D01*
X98531038Y-60748987D01*
X98384939Y-60967641D01*
X98284304Y-61210595D01*
X98233000Y-61468514D01*
X93537000Y-61468514D01*
X93485696Y-61210595D01*
X93385061Y-60967641D01*
X93238962Y-60748987D01*
X93053013Y-60563038D01*
X92834359Y-60416939D01*
X92591405Y-60316304D01*
X92333486Y-60265000D01*
X92070514Y-60265000D01*
X91812595Y-60316304D01*
X91569641Y-60416939D01*
X91350987Y-60563038D01*
X91165038Y-60748987D01*
X91018939Y-60967641D01*
X90918304Y-61210595D01*
X90867000Y-61468514D01*
X86400733Y-61468514D01*
X86373696Y-61332595D01*
X86273061Y-61089641D01*
X86126962Y-60870987D01*
X85941013Y-60685038D01*
X85722359Y-60538939D01*
X85479405Y-60438304D01*
X85221486Y-60387000D01*
X84958514Y-60387000D01*
X84700595Y-60438304D01*
X84457641Y-60538939D01*
X84238987Y-60685038D01*
X84053038Y-60870987D01*
X83906939Y-61089641D01*
X83806304Y-61332595D01*
X83755000Y-61590514D01*
X38835101Y-61590514D01*
X38811140Y-57062000D01*
X68107928Y-57062000D01*
X68107928Y-58762000D01*
X68120188Y-58886482D01*
X68156498Y-59006180D01*
X68215463Y-59116494D01*
X68294815Y-59213185D01*
X68391506Y-59292537D01*
X68501820Y-59351502D01*
X68621518Y-59387812D01*
X68746000Y-59400072D01*
X70446000Y-59400072D01*
X70570482Y-59387812D01*
X70690180Y-59351502D01*
X70800494Y-59292537D01*
X70897185Y-59213185D01*
X70976537Y-59116494D01*
X71035502Y-59006180D01*
X71071812Y-58886482D01*
X71084072Y-58762000D01*
X71084072Y-57062000D01*
X71071812Y-56937518D01*
X71035502Y-56817820D01*
X70976537Y-56707506D01*
X70897185Y-56610815D01*
X70800494Y-56531463D01*
X70690180Y-56472498D01*
X70609534Y-56448034D01*
X70693588Y-56372269D01*
X70867641Y-56138920D01*
X70992825Y-55876099D01*
X71037476Y-55728890D01*
X70916155Y-55499000D01*
X69723000Y-55499000D01*
X69723000Y-55519000D01*
X69469000Y-55519000D01*
X69469000Y-55499000D01*
X68275845Y-55499000D01*
X68154524Y-55728890D01*
X68199175Y-55876099D01*
X68324359Y-56138920D01*
X68498412Y-56372269D01*
X68582466Y-56448034D01*
X68501820Y-56472498D01*
X68391506Y-56531463D01*
X68294815Y-56610815D01*
X68215463Y-56707506D01*
X68156498Y-56817820D01*
X68120188Y-56937518D01*
X68107928Y-57062000D01*
X38811140Y-57062000D01*
X38800310Y-55015110D01*
X68154524Y-55015110D01*
X68275845Y-55245000D01*
X69469000Y-55245000D01*
X69469000Y-54051186D01*
X69723000Y-54051186D01*
X69723000Y-55245000D01*
X70916155Y-55245000D01*
X70993341Y-55098740D01*
X77890000Y-55098740D01*
X77890000Y-55391260D01*
X77947068Y-55678158D01*
X78059010Y-55948411D01*
X78221525Y-56191632D01*
X78428368Y-56398475D01*
X78602760Y-56515000D01*
X78428368Y-56631525D01*
X78221525Y-56838368D01*
X78059010Y-57081589D01*
X77947068Y-57351842D01*
X77890000Y-57638740D01*
X77890000Y-57931260D01*
X77947068Y-58218158D01*
X78059010Y-58488411D01*
X78221525Y-58731632D01*
X78428368Y-58938475D01*
X78671589Y-59100990D01*
X78941842Y-59212932D01*
X79228740Y-59270000D01*
X79521260Y-59270000D01*
X79808158Y-59212932D01*
X80078411Y-59100990D01*
X80321632Y-58938475D01*
X80528475Y-58731632D01*
X80645000Y-58557240D01*
X80761525Y-58731632D01*
X80968368Y-58938475D01*
X81211589Y-59100990D01*
X81481842Y-59212932D01*
X81768740Y-59270000D01*
X82061260Y-59270000D01*
X82348158Y-59212932D01*
X82618411Y-59100990D01*
X82861632Y-58938475D01*
X83068475Y-58731632D01*
X83185000Y-58557240D01*
X83301525Y-58731632D01*
X83508368Y-58938475D01*
X83751589Y-59100990D01*
X84021842Y-59212932D01*
X84308740Y-59270000D01*
X84601260Y-59270000D01*
X84888158Y-59212932D01*
X85158411Y-59100990D01*
X85401632Y-58938475D01*
X85608475Y-58731632D01*
X85725000Y-58557240D01*
X85841525Y-58731632D01*
X86048368Y-58938475D01*
X86291589Y-59100990D01*
X86561842Y-59212932D01*
X86848740Y-59270000D01*
X87141260Y-59270000D01*
X87428158Y-59212932D01*
X87698411Y-59100990D01*
X87941632Y-58938475D01*
X88148475Y-58731632D01*
X88270195Y-58549466D01*
X88339822Y-58666355D01*
X88534731Y-58882588D01*
X88768080Y-59056641D01*
X89030901Y-59181825D01*
X89178110Y-59226476D01*
X89408000Y-59105155D01*
X89408000Y-57912000D01*
X89662000Y-57912000D01*
X89662000Y-59105155D01*
X89891890Y-59226476D01*
X90039099Y-59181825D01*
X90301920Y-59056641D01*
X90535269Y-58882588D01*
X90730178Y-58666355D01*
X90805000Y-58540745D01*
X90879822Y-58666355D01*
X91074731Y-58882588D01*
X91308080Y-59056641D01*
X91570901Y-59181825D01*
X91718110Y-59226476D01*
X91948000Y-59105155D01*
X91948000Y-57912000D01*
X92202000Y-57912000D01*
X92202000Y-59105155D01*
X92431890Y-59226476D01*
X92579099Y-59181825D01*
X92841920Y-59056641D01*
X93075269Y-58882588D01*
X93270178Y-58666355D01*
X93345000Y-58540745D01*
X93419822Y-58666355D01*
X93614731Y-58882588D01*
X93848080Y-59056641D01*
X94110901Y-59181825D01*
X94258110Y-59226476D01*
X94488000Y-59105155D01*
X94488000Y-57912000D01*
X92202000Y-57912000D01*
X91948000Y-57912000D01*
X89662000Y-57912000D01*
X89408000Y-57912000D01*
X89388000Y-57912000D01*
X89388000Y-57658000D01*
X89408000Y-57658000D01*
X89408000Y-55372000D01*
X89662000Y-55372000D01*
X89662000Y-57658000D01*
X91948000Y-57658000D01*
X91948000Y-55372000D01*
X92202000Y-55372000D01*
X92202000Y-57658000D01*
X94488000Y-57658000D01*
X94488000Y-55372000D01*
X92202000Y-55372000D01*
X91948000Y-55372000D01*
X89662000Y-55372000D01*
X89408000Y-55372000D01*
X89388000Y-55372000D01*
X89388000Y-55118000D01*
X89408000Y-55118000D01*
X89408000Y-53924845D01*
X89662000Y-53924845D01*
X89662000Y-55118000D01*
X91948000Y-55118000D01*
X91948000Y-53924845D01*
X92202000Y-53924845D01*
X92202000Y-55118000D01*
X94488000Y-55118000D01*
X94488000Y-53924845D01*
X94742000Y-53924845D01*
X94742000Y-55118000D01*
X94762000Y-55118000D01*
X94762000Y-55372000D01*
X94742000Y-55372000D01*
X94742000Y-57658000D01*
X94762000Y-57658000D01*
X94762000Y-57912000D01*
X94742000Y-57912000D01*
X94742000Y-59105155D01*
X94971890Y-59226476D01*
X95119099Y-59181825D01*
X95381920Y-59056641D01*
X95615269Y-58882588D01*
X95810178Y-58666355D01*
X95879805Y-58549466D01*
X96001525Y-58731632D01*
X96208368Y-58938475D01*
X96451589Y-59100990D01*
X96721842Y-59212932D01*
X97008740Y-59270000D01*
X97301260Y-59270000D01*
X97588158Y-59212932D01*
X97858411Y-59100990D01*
X98101632Y-58938475D01*
X98308475Y-58731632D01*
X98470990Y-58488411D01*
X98582932Y-58218158D01*
X98640000Y-57931260D01*
X98640000Y-57638740D01*
X98582932Y-57351842D01*
X98470990Y-57081589D01*
X98308475Y-56838368D01*
X98176620Y-56706513D01*
X98249180Y-56684502D01*
X98359494Y-56625537D01*
X98456185Y-56546185D01*
X98535537Y-56449494D01*
X98594502Y-56339180D01*
X98630812Y-56219482D01*
X98643072Y-56095000D01*
X98643072Y-54395000D01*
X98630812Y-54270518D01*
X98594502Y-54150820D01*
X98535537Y-54040506D01*
X98456185Y-53943815D01*
X98359494Y-53864463D01*
X98249180Y-53805498D01*
X98129482Y-53769188D01*
X98005000Y-53756928D01*
X96305000Y-53756928D01*
X96180518Y-53769188D01*
X96060820Y-53805498D01*
X95950506Y-53864463D01*
X95853815Y-53943815D01*
X95774463Y-54040506D01*
X95715498Y-54150820D01*
X95691034Y-54231466D01*
X95615269Y-54147412D01*
X95381920Y-53973359D01*
X95119099Y-53848175D01*
X94971890Y-53803524D01*
X94742000Y-53924845D01*
X94488000Y-53924845D01*
X94258110Y-53803524D01*
X94110901Y-53848175D01*
X93848080Y-53973359D01*
X93614731Y-54147412D01*
X93419822Y-54363645D01*
X93345000Y-54489255D01*
X93270178Y-54363645D01*
X93075269Y-54147412D01*
X92841920Y-53973359D01*
X92579099Y-53848175D01*
X92431890Y-53803524D01*
X92202000Y-53924845D01*
X91948000Y-53924845D01*
X91718110Y-53803524D01*
X91570901Y-53848175D01*
X91308080Y-53973359D01*
X91074731Y-54147412D01*
X90879822Y-54363645D01*
X90805000Y-54489255D01*
X90730178Y-54363645D01*
X90535269Y-54147412D01*
X90301920Y-53973359D01*
X90039099Y-53848175D01*
X89891890Y-53803524D01*
X89662000Y-53924845D01*
X89408000Y-53924845D01*
X89178110Y-53803524D01*
X89030901Y-53848175D01*
X88768080Y-53973359D01*
X88534731Y-54147412D01*
X88339822Y-54363645D01*
X88270195Y-54480534D01*
X88148475Y-54298368D01*
X87941632Y-54091525D01*
X87698411Y-53929010D01*
X87428158Y-53817068D01*
X87141260Y-53760000D01*
X86848740Y-53760000D01*
X86561842Y-53817068D01*
X86291589Y-53929010D01*
X86048368Y-54091525D01*
X85841525Y-54298368D01*
X85725000Y-54472760D01*
X85608475Y-54298368D01*
X85401632Y-54091525D01*
X85158411Y-53929010D01*
X84888158Y-53817068D01*
X84601260Y-53760000D01*
X84308740Y-53760000D01*
X84021842Y-53817068D01*
X83751589Y-53929010D01*
X83508368Y-54091525D01*
X83301525Y-54298368D01*
X83185000Y-54472760D01*
X83068475Y-54298368D01*
X82861632Y-54091525D01*
X82618411Y-53929010D01*
X82348158Y-53817068D01*
X82061260Y-53760000D01*
X81768740Y-53760000D01*
X81481842Y-53817068D01*
X81211589Y-53929010D01*
X80968368Y-54091525D01*
X80761525Y-54298368D01*
X80645000Y-54472760D01*
X80528475Y-54298368D01*
X80321632Y-54091525D01*
X80078411Y-53929010D01*
X79808158Y-53817068D01*
X79521260Y-53760000D01*
X79228740Y-53760000D01*
X78941842Y-53817068D01*
X78671589Y-53929010D01*
X78428368Y-54091525D01*
X78221525Y-54298368D01*
X78059010Y-54541589D01*
X77947068Y-54811842D01*
X77890000Y-55098740D01*
X70993341Y-55098740D01*
X71037476Y-55015110D01*
X70992825Y-54867901D01*
X70867641Y-54605080D01*
X70693588Y-54371731D01*
X70477355Y-54176822D01*
X70227252Y-54027843D01*
X69952891Y-53930519D01*
X69723000Y-54051186D01*
X69469000Y-54051186D01*
X69239109Y-53930519D01*
X68964748Y-54027843D01*
X68714645Y-54176822D01*
X68498412Y-54371731D01*
X68324359Y-54605080D01*
X68199175Y-54867901D01*
X68154524Y-55015110D01*
X38800310Y-55015110D01*
X38760000Y-47396615D01*
X38760000Y-46515872D01*
X40945000Y-46515872D01*
X40945000Y-46956128D01*
X41030890Y-47387925D01*
X41199369Y-47794669D01*
X41443962Y-48160729D01*
X41755271Y-48472038D01*
X42121331Y-48716631D01*
X42528075Y-48885110D01*
X42959872Y-48971000D01*
X43400128Y-48971000D01*
X43831925Y-48885110D01*
X44238669Y-48716631D01*
X44604729Y-48472038D01*
X44916038Y-48160729D01*
X45160631Y-47794669D01*
X45329110Y-47387925D01*
X45415000Y-46956128D01*
X45415000Y-46515872D01*
X128829000Y-46515872D01*
X128829000Y-46956128D01*
X128914890Y-47387925D01*
X129083369Y-47794669D01*
X129327962Y-48160729D01*
X129639271Y-48472038D01*
X130005331Y-48716631D01*
X130412075Y-48885110D01*
X130843872Y-48971000D01*
X131284128Y-48971000D01*
X131715925Y-48885110D01*
X132122669Y-48716631D01*
X132488729Y-48472038D01*
X132800038Y-48160729D01*
X133044631Y-47794669D01*
X133213110Y-47387925D01*
X133299000Y-46956128D01*
X133299000Y-46515872D01*
X133213110Y-46084075D01*
X133044631Y-45677331D01*
X132800038Y-45311271D01*
X132488729Y-44999962D01*
X132122669Y-44755369D01*
X131715925Y-44586890D01*
X131284128Y-44501000D01*
X130843872Y-44501000D01*
X130412075Y-44586890D01*
X130005331Y-44755369D01*
X129639271Y-44999962D01*
X129327962Y-45311271D01*
X129083369Y-45677331D01*
X128914890Y-46084075D01*
X128829000Y-46515872D01*
X45415000Y-46515872D01*
X45329110Y-46084075D01*
X45160631Y-45677331D01*
X44916038Y-45311271D01*
X44604729Y-44999962D01*
X44238669Y-44755369D01*
X43831925Y-44586890D01*
X43400128Y-44501000D01*
X42959872Y-44501000D01*
X42528075Y-44586890D01*
X42121331Y-44755369D01*
X41755271Y-44999962D01*
X41443962Y-45311271D01*
X41199369Y-45677331D01*
X41030890Y-46084075D01*
X40945000Y-46515872D01*
X38760000Y-46515872D01*
X38760000Y-43212279D01*
X38774722Y-43062131D01*
X38808953Y-42948754D01*
X38864555Y-42844181D01*
X38901404Y-42799000D01*
X135001000Y-42799000D01*
X135001000Y-138557000D01*
M02*
