G04 #@! TF.GenerationSoftware,KiCad,Pcbnew,(5.1.5)-3*
G04 #@! TF.CreationDate,2022-04-14T12:46:43+02:00*
G04 #@! TF.ProjectId,PMod_ADDAC,504d6f64-5f41-4444-9441-432e6b696361,rev?*
G04 #@! TF.SameCoordinates,Original*
G04 #@! TF.FileFunction,Soldermask,Bot*
G04 #@! TF.FilePolarity,Negative*
%FSLAX46Y46*%
G04 Gerber Fmt 4.6, Leading zero omitted, Abs format (unit mm)*
G04 Created by KiCad (PCBNEW (5.1.5)-3) date 2022-04-14 12:46:43*
%MOMM*%
%LPD*%
G04 APERTURE LIST*
%ADD10C,0.100000*%
G04 APERTURE END LIST*
D10*
G36*
X131439256Y-133011298D02*
G01*
X131545579Y-133032447D01*
X131846042Y-133156903D01*
X132116451Y-133337585D01*
X132346415Y-133567549D01*
X132527097Y-133837958D01*
X132527098Y-133837960D01*
X132651553Y-134138422D01*
X132678643Y-134274609D01*
X132715000Y-134457391D01*
X132715000Y-134782609D01*
X132651553Y-135101579D01*
X132527097Y-135402042D01*
X132346415Y-135672451D01*
X132116451Y-135902415D01*
X131846042Y-136083097D01*
X131545579Y-136207553D01*
X131439256Y-136228702D01*
X131226611Y-136271000D01*
X130901389Y-136271000D01*
X130688744Y-136228702D01*
X130582421Y-136207553D01*
X130281958Y-136083097D01*
X130011549Y-135902415D01*
X129781585Y-135672451D01*
X129600903Y-135402042D01*
X129476447Y-135101579D01*
X129413000Y-134782609D01*
X129413000Y-134457391D01*
X129449358Y-134274609D01*
X129476447Y-134138422D01*
X129600902Y-133837960D01*
X129600903Y-133837958D01*
X129781585Y-133567549D01*
X130011549Y-133337585D01*
X130281958Y-133156903D01*
X130582421Y-133032447D01*
X130688744Y-133011298D01*
X130901389Y-132969000D01*
X131226611Y-132969000D01*
X131439256Y-133011298D01*
G37*
G36*
X44063256Y-132503298D02*
G01*
X44169579Y-132524447D01*
X44470042Y-132648903D01*
X44740451Y-132829585D01*
X44970415Y-133059549D01*
X45151097Y-133329958D01*
X45249511Y-133567549D01*
X45275553Y-133630422D01*
X45339000Y-133949389D01*
X45339000Y-134274611D01*
X45296702Y-134487256D01*
X45275553Y-134593579D01*
X45151097Y-134894042D01*
X44970415Y-135164451D01*
X44740451Y-135394415D01*
X44470042Y-135575097D01*
X44169579Y-135699553D01*
X44063256Y-135720702D01*
X43850611Y-135763000D01*
X43525389Y-135763000D01*
X43312744Y-135720702D01*
X43206421Y-135699553D01*
X42905958Y-135575097D01*
X42635549Y-135394415D01*
X42405585Y-135164451D01*
X42224903Y-134894042D01*
X42100447Y-134593579D01*
X42079298Y-134487256D01*
X42037000Y-134274611D01*
X42037000Y-133949389D01*
X42100447Y-133630422D01*
X42126490Y-133567549D01*
X42224903Y-133329958D01*
X42405585Y-133059549D01*
X42635549Y-132829585D01*
X42905958Y-132648903D01*
X43206421Y-132524447D01*
X43312744Y-132503298D01*
X43525389Y-132461000D01*
X43850611Y-132461000D01*
X44063256Y-132503298D01*
G37*
G36*
X54864000Y-134316000D02*
G01*
X52832000Y-134316000D01*
X52832000Y-132384000D01*
X54864000Y-132384000D01*
X54864000Y-134316000D01*
G37*
G36*
X118364000Y-134062000D02*
G01*
X116332000Y-134062000D01*
X116332000Y-132130000D01*
X118364000Y-132130000D01*
X118364000Y-134062000D01*
G37*
G36*
X54101655Y-129162591D02*
G01*
X54173525Y-129176887D01*
X54376624Y-129261013D01*
X54559409Y-129383146D01*
X54714854Y-129538591D01*
X54836987Y-129721376D01*
X54921113Y-129924475D01*
X54964000Y-130140084D01*
X54964000Y-130359916D01*
X54921113Y-130575525D01*
X54836987Y-130778624D01*
X54714854Y-130961409D01*
X54559409Y-131116854D01*
X54376624Y-131238987D01*
X54173525Y-131323113D01*
X54101655Y-131337409D01*
X53957918Y-131366000D01*
X53738082Y-131366000D01*
X53594345Y-131337409D01*
X53522475Y-131323113D01*
X53319376Y-131238987D01*
X53136591Y-131116854D01*
X52981146Y-130961409D01*
X52859013Y-130778624D01*
X52774887Y-130575525D01*
X52732000Y-130359916D01*
X52732000Y-130140084D01*
X52774887Y-129924475D01*
X52859013Y-129721376D01*
X52981146Y-129538591D01*
X53136591Y-129383146D01*
X53319376Y-129261013D01*
X53522475Y-129176887D01*
X53594345Y-129162591D01*
X53738082Y-129134000D01*
X53957918Y-129134000D01*
X54101655Y-129162591D01*
G37*
G36*
X117601655Y-128908591D02*
G01*
X117673525Y-128922887D01*
X117876624Y-129007013D01*
X118059409Y-129129146D01*
X118214854Y-129284591D01*
X118336987Y-129467376D01*
X118421113Y-129670475D01*
X118464000Y-129886084D01*
X118464000Y-130105916D01*
X118421113Y-130321525D01*
X118336987Y-130524624D01*
X118214854Y-130707409D01*
X118059409Y-130862854D01*
X117876624Y-130984987D01*
X117673525Y-131069113D01*
X117601655Y-131083409D01*
X117457918Y-131112000D01*
X117238082Y-131112000D01*
X117094345Y-131083409D01*
X117022475Y-131069113D01*
X116819376Y-130984987D01*
X116636591Y-130862854D01*
X116481146Y-130707409D01*
X116359013Y-130524624D01*
X116274887Y-130321525D01*
X116232000Y-130105916D01*
X116232000Y-129886084D01*
X116274887Y-129670475D01*
X116359013Y-129467376D01*
X116481146Y-129284591D01*
X116636591Y-129129146D01*
X116819376Y-129007013D01*
X117022475Y-128922887D01*
X117094345Y-128908591D01*
X117238082Y-128880000D01*
X117457918Y-128880000D01*
X117601655Y-128908591D01*
G37*
G36*
X54101655Y-120862591D02*
G01*
X54173525Y-120876887D01*
X54376624Y-120961013D01*
X54559409Y-121083146D01*
X54714854Y-121238591D01*
X54836987Y-121421376D01*
X54921113Y-121624475D01*
X54964000Y-121840084D01*
X54964000Y-122059916D01*
X54921113Y-122275525D01*
X54836987Y-122478624D01*
X54714854Y-122661409D01*
X54559409Y-122816854D01*
X54376624Y-122938987D01*
X54173525Y-123023113D01*
X54101655Y-123037409D01*
X53957918Y-123066000D01*
X53738082Y-123066000D01*
X53594345Y-123037409D01*
X53522475Y-123023113D01*
X53319376Y-122938987D01*
X53136591Y-122816854D01*
X52981146Y-122661409D01*
X52859013Y-122478624D01*
X52774887Y-122275525D01*
X52732000Y-122059916D01*
X52732000Y-121840084D01*
X52774887Y-121624475D01*
X52859013Y-121421376D01*
X52981146Y-121238591D01*
X53136591Y-121083146D01*
X53319376Y-120961013D01*
X53522475Y-120876887D01*
X53594345Y-120862591D01*
X53738082Y-120834000D01*
X53957918Y-120834000D01*
X54101655Y-120862591D01*
G37*
G36*
X117601655Y-120608591D02*
G01*
X117673525Y-120622887D01*
X117876624Y-120707013D01*
X118059409Y-120829146D01*
X118214854Y-120984591D01*
X118336987Y-121167376D01*
X118421113Y-121370475D01*
X118464000Y-121586084D01*
X118464000Y-121805916D01*
X118421113Y-122021525D01*
X118336987Y-122224624D01*
X118214854Y-122407409D01*
X118059409Y-122562854D01*
X117876624Y-122684987D01*
X117673525Y-122769113D01*
X117601655Y-122783409D01*
X117457918Y-122812000D01*
X117238082Y-122812000D01*
X117094345Y-122783409D01*
X117022475Y-122769113D01*
X116819376Y-122684987D01*
X116636591Y-122562854D01*
X116481146Y-122407409D01*
X116359013Y-122224624D01*
X116274887Y-122021525D01*
X116232000Y-121805916D01*
X116232000Y-121586084D01*
X116274887Y-121370475D01*
X116359013Y-121167376D01*
X116481146Y-120984591D01*
X116636591Y-120829146D01*
X116819376Y-120707013D01*
X117022475Y-120622887D01*
X117094345Y-120608591D01*
X117238082Y-120580000D01*
X117457918Y-120580000D01*
X117601655Y-120608591D01*
G37*
G36*
X77464228Y-112465703D02*
G01*
X77619100Y-112529853D01*
X77758481Y-112622985D01*
X77877015Y-112741519D01*
X77970147Y-112880900D01*
X78034297Y-113035772D01*
X78067000Y-113200184D01*
X78067000Y-113367816D01*
X78034297Y-113532228D01*
X77970147Y-113687100D01*
X77877015Y-113826481D01*
X77758481Y-113945015D01*
X77619100Y-114038147D01*
X77464228Y-114102297D01*
X77299816Y-114135000D01*
X77132184Y-114135000D01*
X76967772Y-114102297D01*
X76812900Y-114038147D01*
X76673519Y-113945015D01*
X76554985Y-113826481D01*
X76461853Y-113687100D01*
X76397703Y-113532228D01*
X76365000Y-113367816D01*
X76365000Y-113200184D01*
X76397703Y-113035772D01*
X76461853Y-112880900D01*
X76554985Y-112741519D01*
X76673519Y-112622985D01*
X76812900Y-112529853D01*
X76967772Y-112465703D01*
X77132184Y-112433000D01*
X77299816Y-112433000D01*
X77464228Y-112465703D01*
G37*
G36*
X82464228Y-112465703D02*
G01*
X82619100Y-112529853D01*
X82758481Y-112622985D01*
X82877015Y-112741519D01*
X82970147Y-112880900D01*
X83034297Y-113035772D01*
X83067000Y-113200184D01*
X83067000Y-113367816D01*
X83034297Y-113532228D01*
X82970147Y-113687100D01*
X82877015Y-113826481D01*
X82758481Y-113945015D01*
X82619100Y-114038147D01*
X82464228Y-114102297D01*
X82299816Y-114135000D01*
X82132184Y-114135000D01*
X81967772Y-114102297D01*
X81812900Y-114038147D01*
X81673519Y-113945015D01*
X81554985Y-113826481D01*
X81461853Y-113687100D01*
X81397703Y-113532228D01*
X81365000Y-113367816D01*
X81365000Y-113200184D01*
X81397703Y-113035772D01*
X81461853Y-112880900D01*
X81554985Y-112741519D01*
X81673519Y-112622985D01*
X81812900Y-112529853D01*
X81967772Y-112465703D01*
X82132184Y-112433000D01*
X82299816Y-112433000D01*
X82464228Y-112465703D01*
G37*
G36*
X64206639Y-109581170D02*
G01*
X64330573Y-109632505D01*
X64330574Y-109632506D01*
X64442112Y-109707033D01*
X64536967Y-109801888D01*
X64536968Y-109801890D01*
X64611495Y-109913427D01*
X64662830Y-110037361D01*
X64689000Y-110168926D01*
X64689000Y-110303074D01*
X64662830Y-110434639D01*
X64611495Y-110558573D01*
X64611494Y-110558574D01*
X64536967Y-110670112D01*
X64442112Y-110764967D01*
X64385964Y-110802484D01*
X64330573Y-110839495D01*
X64206639Y-110890830D01*
X64075074Y-110917000D01*
X63940926Y-110917000D01*
X63809361Y-110890830D01*
X63685427Y-110839495D01*
X63630036Y-110802484D01*
X63573888Y-110764967D01*
X63479033Y-110670112D01*
X63404506Y-110558574D01*
X63404505Y-110558573D01*
X63353170Y-110434639D01*
X63327000Y-110303074D01*
X63327000Y-110168926D01*
X63353170Y-110037361D01*
X63404505Y-109913427D01*
X63479032Y-109801890D01*
X63479033Y-109801888D01*
X63573888Y-109707033D01*
X63685426Y-109632506D01*
X63685427Y-109632505D01*
X63809361Y-109581170D01*
X63940926Y-109555000D01*
X64075074Y-109555000D01*
X64206639Y-109581170D01*
G37*
G36*
X69286639Y-109581170D02*
G01*
X69410573Y-109632505D01*
X69410574Y-109632506D01*
X69522112Y-109707033D01*
X69616967Y-109801888D01*
X69616968Y-109801890D01*
X69691495Y-109913427D01*
X69742830Y-110037361D01*
X69769000Y-110168926D01*
X69769000Y-110303074D01*
X69742830Y-110434639D01*
X69691495Y-110558573D01*
X69691494Y-110558574D01*
X69616967Y-110670112D01*
X69522112Y-110764967D01*
X69465964Y-110802484D01*
X69410573Y-110839495D01*
X69286639Y-110890830D01*
X69155074Y-110917000D01*
X69020926Y-110917000D01*
X68889361Y-110890830D01*
X68765427Y-110839495D01*
X68710036Y-110802484D01*
X68653888Y-110764967D01*
X68559033Y-110670112D01*
X68484506Y-110558574D01*
X68484505Y-110558573D01*
X68433170Y-110434639D01*
X68407000Y-110303074D01*
X68407000Y-110168926D01*
X68433170Y-110037361D01*
X68484505Y-109913427D01*
X68559032Y-109801890D01*
X68559033Y-109801888D01*
X68653888Y-109707033D01*
X68765426Y-109632506D01*
X68765427Y-109632505D01*
X68889361Y-109581170D01*
X69020926Y-109555000D01*
X69155074Y-109555000D01*
X69286639Y-109581170D01*
G37*
G36*
X103880228Y-107893703D02*
G01*
X104035100Y-107957853D01*
X104174481Y-108050985D01*
X104293015Y-108169519D01*
X104386147Y-108308900D01*
X104450297Y-108463772D01*
X104483000Y-108628184D01*
X104483000Y-108795816D01*
X104450297Y-108960228D01*
X104386147Y-109115100D01*
X104293015Y-109254481D01*
X104174481Y-109373015D01*
X104035100Y-109466147D01*
X103880228Y-109530297D01*
X103715816Y-109563000D01*
X103548184Y-109563000D01*
X103383772Y-109530297D01*
X103228900Y-109466147D01*
X103089519Y-109373015D01*
X102970985Y-109254481D01*
X102877853Y-109115100D01*
X102813703Y-108960228D01*
X102781000Y-108795816D01*
X102781000Y-108628184D01*
X102813703Y-108463772D01*
X102877853Y-108308900D01*
X102970985Y-108169519D01*
X103089519Y-108050985D01*
X103228900Y-107957853D01*
X103383772Y-107893703D01*
X103548184Y-107861000D01*
X103715816Y-107861000D01*
X103880228Y-107893703D01*
G37*
G36*
X66746639Y-107041170D02*
G01*
X66870573Y-107092505D01*
X66880681Y-107099259D01*
X66982112Y-107167033D01*
X67076967Y-107261888D01*
X67076968Y-107261890D01*
X67151495Y-107373427D01*
X67202830Y-107497361D01*
X67229000Y-107628926D01*
X67229000Y-107763074D01*
X67202830Y-107894639D01*
X67151495Y-108018573D01*
X67151494Y-108018574D01*
X67076967Y-108130112D01*
X66982112Y-108224967D01*
X66925964Y-108262484D01*
X66870573Y-108299495D01*
X66746639Y-108350830D01*
X66615074Y-108377000D01*
X66480926Y-108377000D01*
X66349361Y-108350830D01*
X66225427Y-108299495D01*
X66170036Y-108262484D01*
X66113888Y-108224967D01*
X66019033Y-108130112D01*
X65944506Y-108018574D01*
X65944505Y-108018573D01*
X65893170Y-107894639D01*
X65867000Y-107763074D01*
X65867000Y-107628926D01*
X65893170Y-107497361D01*
X65944505Y-107373427D01*
X66019032Y-107261890D01*
X66019033Y-107261888D01*
X66113888Y-107167033D01*
X66215319Y-107099259D01*
X66225427Y-107092505D01*
X66349361Y-107041170D01*
X66480926Y-107015000D01*
X66615074Y-107015000D01*
X66746639Y-107041170D01*
G37*
G36*
X85457512Y-106291927D02*
G01*
X85606812Y-106321624D01*
X85770784Y-106389544D01*
X85918354Y-106488147D01*
X86043853Y-106613646D01*
X86142456Y-106761216D01*
X86210376Y-106925188D01*
X86245000Y-107099259D01*
X86245000Y-107276741D01*
X86210376Y-107450812D01*
X86142456Y-107614784D01*
X86043853Y-107762354D01*
X85918354Y-107887853D01*
X85770784Y-107986456D01*
X85606812Y-108054376D01*
X85457512Y-108084073D01*
X85432742Y-108089000D01*
X85255258Y-108089000D01*
X85230488Y-108084073D01*
X85081188Y-108054376D01*
X84917216Y-107986456D01*
X84769646Y-107887853D01*
X84644147Y-107762354D01*
X84545544Y-107614784D01*
X84477624Y-107450812D01*
X84443000Y-107276741D01*
X84443000Y-107099259D01*
X84477624Y-106925188D01*
X84545544Y-106761216D01*
X84644147Y-106613646D01*
X84769646Y-106488147D01*
X84917216Y-106389544D01*
X85081188Y-106321624D01*
X85230488Y-106291927D01*
X85255258Y-106287000D01*
X85432742Y-106287000D01*
X85457512Y-106291927D01*
G37*
G36*
X88785000Y-108089000D02*
G01*
X86983000Y-108089000D01*
X86983000Y-106287000D01*
X88785000Y-106287000D01*
X88785000Y-108089000D01*
G37*
G36*
X47569639Y-105390170D02*
G01*
X47693573Y-105441505D01*
X47748964Y-105478516D01*
X47805112Y-105516033D01*
X47899967Y-105610888D01*
X47899968Y-105610890D01*
X47974495Y-105722427D01*
X48025830Y-105846361D01*
X48052000Y-105977926D01*
X48052000Y-106112074D01*
X48025830Y-106243639D01*
X47974495Y-106367573D01*
X47974494Y-106367574D01*
X47899967Y-106479112D01*
X47805112Y-106573967D01*
X47748964Y-106611484D01*
X47693573Y-106648495D01*
X47569639Y-106699830D01*
X47438074Y-106726000D01*
X47303926Y-106726000D01*
X47172361Y-106699830D01*
X47048427Y-106648495D01*
X46993036Y-106611484D01*
X46936888Y-106573967D01*
X46842033Y-106479112D01*
X46767506Y-106367574D01*
X46767505Y-106367573D01*
X46716170Y-106243639D01*
X46690000Y-106112074D01*
X46690000Y-105977926D01*
X46716170Y-105846361D01*
X46767505Y-105722427D01*
X46842032Y-105610890D01*
X46842033Y-105610888D01*
X46936888Y-105516033D01*
X46993036Y-105478516D01*
X47048427Y-105441505D01*
X47172361Y-105390170D01*
X47303926Y-105364000D01*
X47438074Y-105364000D01*
X47569639Y-105390170D01*
G37*
G36*
X85457512Y-103751927D02*
G01*
X85606812Y-103781624D01*
X85770784Y-103849544D01*
X85918354Y-103948147D01*
X86043853Y-104073646D01*
X86142456Y-104221216D01*
X86210376Y-104385188D01*
X86245000Y-104559259D01*
X86245000Y-104736741D01*
X86210376Y-104910812D01*
X86142456Y-105074784D01*
X86043853Y-105222354D01*
X85918354Y-105347853D01*
X85770784Y-105446456D01*
X85606812Y-105514376D01*
X85457512Y-105544073D01*
X85432742Y-105549000D01*
X85255258Y-105549000D01*
X85230488Y-105544073D01*
X85081188Y-105514376D01*
X84917216Y-105446456D01*
X84769646Y-105347853D01*
X84644147Y-105222354D01*
X84545544Y-105074784D01*
X84477624Y-104910812D01*
X84443000Y-104736741D01*
X84443000Y-104559259D01*
X84477624Y-104385188D01*
X84545544Y-104221216D01*
X84644147Y-104073646D01*
X84769646Y-103948147D01*
X84917216Y-103849544D01*
X85081188Y-103781624D01*
X85230488Y-103751927D01*
X85255258Y-103747000D01*
X85432742Y-103747000D01*
X85457512Y-103751927D01*
G37*
G36*
X87997512Y-103751927D02*
G01*
X88146812Y-103781624D01*
X88310784Y-103849544D01*
X88458354Y-103948147D01*
X88583853Y-104073646D01*
X88682456Y-104221216D01*
X88750376Y-104385188D01*
X88785000Y-104559259D01*
X88785000Y-104736741D01*
X88750376Y-104910812D01*
X88682456Y-105074784D01*
X88583853Y-105222354D01*
X88458354Y-105347853D01*
X88310784Y-105446456D01*
X88146812Y-105514376D01*
X87997512Y-105544073D01*
X87972742Y-105549000D01*
X87795258Y-105549000D01*
X87770488Y-105544073D01*
X87621188Y-105514376D01*
X87457216Y-105446456D01*
X87309646Y-105347853D01*
X87184147Y-105222354D01*
X87085544Y-105074784D01*
X87017624Y-104910812D01*
X86983000Y-104736741D01*
X86983000Y-104559259D01*
X87017624Y-104385188D01*
X87085544Y-104221216D01*
X87184147Y-104073646D01*
X87309646Y-103948147D01*
X87457216Y-103849544D01*
X87621188Y-103781624D01*
X87770488Y-103751927D01*
X87795258Y-103747000D01*
X87972742Y-103747000D01*
X87997512Y-103751927D01*
G37*
G36*
X103880228Y-102893703D02*
G01*
X104035100Y-102957853D01*
X104174481Y-103050985D01*
X104293015Y-103169519D01*
X104386147Y-103308900D01*
X104450297Y-103463772D01*
X104483000Y-103628184D01*
X104483000Y-103795816D01*
X104450297Y-103960228D01*
X104386147Y-104115100D01*
X104293015Y-104254481D01*
X104174481Y-104373015D01*
X104035100Y-104466147D01*
X103880228Y-104530297D01*
X103715816Y-104563000D01*
X103548184Y-104563000D01*
X103383772Y-104530297D01*
X103228900Y-104466147D01*
X103089519Y-104373015D01*
X102970985Y-104254481D01*
X102877853Y-104115100D01*
X102813703Y-103960228D01*
X102781000Y-103795816D01*
X102781000Y-103628184D01*
X102813703Y-103463772D01*
X102877853Y-103308900D01*
X102970985Y-103169519D01*
X103089519Y-103050985D01*
X103228900Y-102957853D01*
X103383772Y-102893703D01*
X103548184Y-102861000D01*
X103715816Y-102861000D01*
X103880228Y-102893703D01*
G37*
G36*
X45029639Y-102850170D02*
G01*
X45153573Y-102901505D01*
X45208964Y-102938516D01*
X45265112Y-102976033D01*
X45359967Y-103070888D01*
X45359968Y-103070890D01*
X45434495Y-103182427D01*
X45485830Y-103306361D01*
X45512000Y-103437926D01*
X45512000Y-103572074D01*
X45485830Y-103703639D01*
X45434495Y-103827573D01*
X45434494Y-103827574D01*
X45359967Y-103939112D01*
X45265112Y-104033967D01*
X45208964Y-104071484D01*
X45153573Y-104108495D01*
X45029639Y-104159830D01*
X44898074Y-104186000D01*
X44763926Y-104186000D01*
X44632361Y-104159830D01*
X44508427Y-104108495D01*
X44453036Y-104071484D01*
X44396888Y-104033967D01*
X44302033Y-103939112D01*
X44227506Y-103827574D01*
X44227505Y-103827573D01*
X44176170Y-103703639D01*
X44150000Y-103572074D01*
X44150000Y-103437926D01*
X44176170Y-103306361D01*
X44227505Y-103182427D01*
X44302032Y-103070890D01*
X44302033Y-103070888D01*
X44396888Y-102976033D01*
X44453036Y-102938516D01*
X44508427Y-102901505D01*
X44632361Y-102850170D01*
X44763926Y-102824000D01*
X44898074Y-102824000D01*
X45029639Y-102850170D01*
G37*
G36*
X87997512Y-101211927D02*
G01*
X88146812Y-101241624D01*
X88310784Y-101309544D01*
X88458354Y-101408147D01*
X88583853Y-101533646D01*
X88682456Y-101681216D01*
X88750376Y-101845188D01*
X88785000Y-102019259D01*
X88785000Y-102196741D01*
X88750376Y-102370812D01*
X88682456Y-102534784D01*
X88583853Y-102682354D01*
X88458354Y-102807853D01*
X88310784Y-102906456D01*
X88146812Y-102974376D01*
X87997512Y-103004073D01*
X87972742Y-103009000D01*
X87795258Y-103009000D01*
X87770488Y-103004073D01*
X87621188Y-102974376D01*
X87457216Y-102906456D01*
X87309646Y-102807853D01*
X87184147Y-102682354D01*
X87085544Y-102534784D01*
X87017624Y-102370812D01*
X86983000Y-102196741D01*
X86983000Y-102019259D01*
X87017624Y-101845188D01*
X87085544Y-101681216D01*
X87184147Y-101533646D01*
X87309646Y-101408147D01*
X87457216Y-101309544D01*
X87621188Y-101241624D01*
X87770488Y-101211927D01*
X87795258Y-101207000D01*
X87972742Y-101207000D01*
X87997512Y-101211927D01*
G37*
G36*
X85457512Y-101211927D02*
G01*
X85606812Y-101241624D01*
X85770784Y-101309544D01*
X85918354Y-101408147D01*
X86043853Y-101533646D01*
X86142456Y-101681216D01*
X86210376Y-101845188D01*
X86245000Y-102019259D01*
X86245000Y-102196741D01*
X86210376Y-102370812D01*
X86142456Y-102534784D01*
X86043853Y-102682354D01*
X85918354Y-102807853D01*
X85770784Y-102906456D01*
X85606812Y-102974376D01*
X85457512Y-103004073D01*
X85432742Y-103009000D01*
X85255258Y-103009000D01*
X85230488Y-103004073D01*
X85081188Y-102974376D01*
X84917216Y-102906456D01*
X84769646Y-102807853D01*
X84644147Y-102682354D01*
X84545544Y-102534784D01*
X84477624Y-102370812D01*
X84443000Y-102196741D01*
X84443000Y-102019259D01*
X84477624Y-101845188D01*
X84545544Y-101681216D01*
X84644147Y-101533646D01*
X84769646Y-101408147D01*
X84917216Y-101309544D01*
X85081188Y-101241624D01*
X85230488Y-101211927D01*
X85255258Y-101207000D01*
X85432742Y-101207000D01*
X85457512Y-101211927D01*
G37*
G36*
X47569639Y-100310170D02*
G01*
X47693573Y-100361505D01*
X47748964Y-100398516D01*
X47805112Y-100436033D01*
X47899967Y-100530888D01*
X47899968Y-100530890D01*
X47974495Y-100642427D01*
X48025830Y-100766361D01*
X48052000Y-100897926D01*
X48052000Y-101032074D01*
X48025830Y-101163639D01*
X47974495Y-101287573D01*
X47974494Y-101287574D01*
X47899967Y-101399112D01*
X47805112Y-101493967D01*
X47748964Y-101531484D01*
X47693573Y-101568495D01*
X47569639Y-101619830D01*
X47438074Y-101646000D01*
X47303926Y-101646000D01*
X47172361Y-101619830D01*
X47048427Y-101568495D01*
X46993036Y-101531484D01*
X46936888Y-101493967D01*
X46842033Y-101399112D01*
X46767506Y-101287574D01*
X46767505Y-101287573D01*
X46716170Y-101163639D01*
X46690000Y-101032074D01*
X46690000Y-100897926D01*
X46716170Y-100766361D01*
X46767505Y-100642427D01*
X46842032Y-100530890D01*
X46842033Y-100530888D01*
X46936888Y-100436033D01*
X46993036Y-100398516D01*
X47048427Y-100361505D01*
X47172361Y-100310170D01*
X47303926Y-100284000D01*
X47438074Y-100284000D01*
X47569639Y-100310170D01*
G37*
G36*
X87997512Y-98671927D02*
G01*
X88146812Y-98701624D01*
X88310784Y-98769544D01*
X88458354Y-98868147D01*
X88583853Y-98993646D01*
X88682456Y-99141216D01*
X88750376Y-99305188D01*
X88785000Y-99479259D01*
X88785000Y-99656741D01*
X88750376Y-99830812D01*
X88682456Y-99994784D01*
X88583853Y-100142354D01*
X88458354Y-100267853D01*
X88310784Y-100366456D01*
X88146812Y-100434376D01*
X87997512Y-100464073D01*
X87972742Y-100469000D01*
X87795258Y-100469000D01*
X87770488Y-100464073D01*
X87621188Y-100434376D01*
X87457216Y-100366456D01*
X87309646Y-100267853D01*
X87184147Y-100142354D01*
X87085544Y-99994784D01*
X87017624Y-99830812D01*
X86983000Y-99656741D01*
X86983000Y-99479259D01*
X87017624Y-99305188D01*
X87085544Y-99141216D01*
X87184147Y-98993646D01*
X87309646Y-98868147D01*
X87457216Y-98769544D01*
X87621188Y-98701624D01*
X87770488Y-98671927D01*
X87795258Y-98667000D01*
X87972742Y-98667000D01*
X87997512Y-98671927D01*
G37*
G36*
X85457512Y-98671927D02*
G01*
X85606812Y-98701624D01*
X85770784Y-98769544D01*
X85918354Y-98868147D01*
X86043853Y-98993646D01*
X86142456Y-99141216D01*
X86210376Y-99305188D01*
X86245000Y-99479259D01*
X86245000Y-99656741D01*
X86210376Y-99830812D01*
X86142456Y-99994784D01*
X86043853Y-100142354D01*
X85918354Y-100267853D01*
X85770784Y-100366456D01*
X85606812Y-100434376D01*
X85457512Y-100464073D01*
X85432742Y-100469000D01*
X85255258Y-100469000D01*
X85230488Y-100464073D01*
X85081188Y-100434376D01*
X84917216Y-100366456D01*
X84769646Y-100267853D01*
X84644147Y-100142354D01*
X84545544Y-99994784D01*
X84477624Y-99830812D01*
X84443000Y-99656741D01*
X84443000Y-99479259D01*
X84477624Y-99305188D01*
X84545544Y-99141216D01*
X84644147Y-98993646D01*
X84769646Y-98868147D01*
X84917216Y-98769544D01*
X85081188Y-98701624D01*
X85230488Y-98671927D01*
X85255258Y-98667000D01*
X85432742Y-98667000D01*
X85457512Y-98671927D01*
G37*
G36*
X87997512Y-96131927D02*
G01*
X88146812Y-96161624D01*
X88310784Y-96229544D01*
X88458354Y-96328147D01*
X88583853Y-96453646D01*
X88682456Y-96601216D01*
X88750376Y-96765188D01*
X88785000Y-96939259D01*
X88785000Y-97116741D01*
X88750376Y-97290812D01*
X88682456Y-97454784D01*
X88583853Y-97602354D01*
X88458354Y-97727853D01*
X88310784Y-97826456D01*
X88146812Y-97894376D01*
X87997512Y-97924073D01*
X87972742Y-97929000D01*
X87795258Y-97929000D01*
X87770488Y-97924073D01*
X87621188Y-97894376D01*
X87457216Y-97826456D01*
X87309646Y-97727853D01*
X87184147Y-97602354D01*
X87085544Y-97454784D01*
X87017624Y-97290812D01*
X86983000Y-97116741D01*
X86983000Y-96939259D01*
X87017624Y-96765188D01*
X87085544Y-96601216D01*
X87184147Y-96453646D01*
X87309646Y-96328147D01*
X87457216Y-96229544D01*
X87621188Y-96161624D01*
X87770488Y-96131927D01*
X87795258Y-96127000D01*
X87972742Y-96127000D01*
X87997512Y-96131927D01*
G37*
G36*
X85457512Y-96131927D02*
G01*
X85606812Y-96161624D01*
X85770784Y-96229544D01*
X85918354Y-96328147D01*
X86043853Y-96453646D01*
X86142456Y-96601216D01*
X86210376Y-96765188D01*
X86245000Y-96939259D01*
X86245000Y-97116741D01*
X86210376Y-97290812D01*
X86142456Y-97454784D01*
X86043853Y-97602354D01*
X85918354Y-97727853D01*
X85770784Y-97826456D01*
X85606812Y-97894376D01*
X85457512Y-97924073D01*
X85432742Y-97929000D01*
X85255258Y-97929000D01*
X85230488Y-97924073D01*
X85081188Y-97894376D01*
X84917216Y-97826456D01*
X84769646Y-97727853D01*
X84644147Y-97602354D01*
X84545544Y-97454784D01*
X84477624Y-97290812D01*
X84443000Y-97116741D01*
X84443000Y-96939259D01*
X84477624Y-96765188D01*
X84545544Y-96601216D01*
X84644147Y-96453646D01*
X84769646Y-96328147D01*
X84917216Y-96229544D01*
X85081188Y-96161624D01*
X85230488Y-96131927D01*
X85255258Y-96127000D01*
X85432742Y-96127000D01*
X85457512Y-96131927D01*
G37*
G36*
X77435059Y-94781860D02*
G01*
X77571732Y-94838472D01*
X77694735Y-94920660D01*
X77799340Y-95025265D01*
X77881528Y-95148268D01*
X77938140Y-95284941D01*
X77967000Y-95430033D01*
X77967000Y-95577967D01*
X77938140Y-95723059D01*
X77881528Y-95859732D01*
X77799340Y-95982735D01*
X77694735Y-96087340D01*
X77571732Y-96169528D01*
X77571731Y-96169529D01*
X77571730Y-96169529D01*
X77435059Y-96226140D01*
X77289968Y-96255000D01*
X77142032Y-96255000D01*
X76996941Y-96226140D01*
X76860270Y-96169529D01*
X76860269Y-96169529D01*
X76860268Y-96169528D01*
X76737265Y-96087340D01*
X76632660Y-95982735D01*
X76550472Y-95859732D01*
X76493860Y-95723059D01*
X76465000Y-95577967D01*
X76465000Y-95430033D01*
X76493860Y-95284941D01*
X76550472Y-95148268D01*
X76632660Y-95025265D01*
X76737265Y-94920660D01*
X76860268Y-94838472D01*
X76996941Y-94781860D01*
X77142032Y-94753000D01*
X77289968Y-94753000D01*
X77435059Y-94781860D01*
G37*
G36*
X67783059Y-94649860D02*
G01*
X67919732Y-94706472D01*
X68042735Y-94788660D01*
X68147340Y-94893265D01*
X68229528Y-95016268D01*
X68286140Y-95152941D01*
X68315000Y-95298033D01*
X68315000Y-95445967D01*
X68286140Y-95591059D01*
X68229528Y-95727732D01*
X68147340Y-95850735D01*
X68042735Y-95955340D01*
X67919732Y-96037528D01*
X67919731Y-96037529D01*
X67919730Y-96037529D01*
X67783059Y-96094140D01*
X67637968Y-96123000D01*
X67490032Y-96123000D01*
X67344941Y-96094140D01*
X67208270Y-96037529D01*
X67208269Y-96037529D01*
X67208268Y-96037528D01*
X67085265Y-95955340D01*
X66980660Y-95850735D01*
X66898472Y-95727732D01*
X66841860Y-95591059D01*
X66813000Y-95445967D01*
X66813000Y-95298033D01*
X66841860Y-95152941D01*
X66898472Y-95016268D01*
X66980660Y-94893265D01*
X67085265Y-94788660D01*
X67208268Y-94706472D01*
X67344941Y-94649860D01*
X67490032Y-94621000D01*
X67637968Y-94621000D01*
X67783059Y-94649860D01*
G37*
G36*
X85457512Y-93591927D02*
G01*
X85606812Y-93621624D01*
X85770784Y-93689544D01*
X85918354Y-93788147D01*
X86043853Y-93913646D01*
X86142456Y-94061216D01*
X86210376Y-94225188D01*
X86245000Y-94399259D01*
X86245000Y-94576741D01*
X86210376Y-94750812D01*
X86142456Y-94914784D01*
X86043853Y-95062354D01*
X85918354Y-95187853D01*
X85770784Y-95286456D01*
X85606812Y-95354376D01*
X85457512Y-95384073D01*
X85432742Y-95389000D01*
X85255258Y-95389000D01*
X85230488Y-95384073D01*
X85081188Y-95354376D01*
X84917216Y-95286456D01*
X84769646Y-95187853D01*
X84644147Y-95062354D01*
X84545544Y-94914784D01*
X84477624Y-94750812D01*
X84443000Y-94576741D01*
X84443000Y-94399259D01*
X84477624Y-94225188D01*
X84545544Y-94061216D01*
X84644147Y-93913646D01*
X84769646Y-93788147D01*
X84917216Y-93689544D01*
X85081188Y-93621624D01*
X85230488Y-93591927D01*
X85255258Y-93587000D01*
X85432742Y-93587000D01*
X85457512Y-93591927D01*
G37*
G36*
X87997512Y-93591927D02*
G01*
X88146812Y-93621624D01*
X88310784Y-93689544D01*
X88458354Y-93788147D01*
X88583853Y-93913646D01*
X88682456Y-94061216D01*
X88750376Y-94225188D01*
X88785000Y-94399259D01*
X88785000Y-94576741D01*
X88750376Y-94750812D01*
X88682456Y-94914784D01*
X88583853Y-95062354D01*
X88458354Y-95187853D01*
X88310784Y-95286456D01*
X88146812Y-95354376D01*
X87997512Y-95384073D01*
X87972742Y-95389000D01*
X87795258Y-95389000D01*
X87770488Y-95384073D01*
X87621188Y-95354376D01*
X87457216Y-95286456D01*
X87309646Y-95187853D01*
X87184147Y-95062354D01*
X87085544Y-94914784D01*
X87017624Y-94750812D01*
X86983000Y-94576741D01*
X86983000Y-94399259D01*
X87017624Y-94225188D01*
X87085544Y-94061216D01*
X87184147Y-93913646D01*
X87309646Y-93788147D01*
X87457216Y-93689544D01*
X87621188Y-93621624D01*
X87770488Y-93591927D01*
X87795258Y-93587000D01*
X87972742Y-93587000D01*
X87997512Y-93591927D01*
G37*
G36*
X77435059Y-92881860D02*
G01*
X77571732Y-92938472D01*
X77694735Y-93020660D01*
X77799340Y-93125265D01*
X77881528Y-93248268D01*
X77938140Y-93384941D01*
X77967000Y-93530033D01*
X77967000Y-93677967D01*
X77938140Y-93823059D01*
X77881528Y-93959732D01*
X77799340Y-94082735D01*
X77694735Y-94187340D01*
X77571732Y-94269528D01*
X77571731Y-94269529D01*
X77571730Y-94269529D01*
X77435059Y-94326140D01*
X77289968Y-94355000D01*
X77142032Y-94355000D01*
X76996941Y-94326140D01*
X76860270Y-94269529D01*
X76860269Y-94269529D01*
X76860268Y-94269528D01*
X76737265Y-94187340D01*
X76632660Y-94082735D01*
X76550472Y-93959732D01*
X76493860Y-93823059D01*
X76465000Y-93677967D01*
X76465000Y-93530033D01*
X76493860Y-93384941D01*
X76550472Y-93248268D01*
X76632660Y-93125265D01*
X76737265Y-93020660D01*
X76860268Y-92938472D01*
X76996941Y-92881860D01*
X77142032Y-92853000D01*
X77289968Y-92853000D01*
X77435059Y-92881860D01*
G37*
G36*
X67783059Y-92749860D02*
G01*
X67919732Y-92806472D01*
X68042735Y-92888660D01*
X68147340Y-92993265D01*
X68229528Y-93116268D01*
X68229529Y-93116270D01*
X68286140Y-93252941D01*
X68315000Y-93398032D01*
X68315000Y-93545968D01*
X68286442Y-93689544D01*
X68286140Y-93691059D01*
X68229528Y-93827732D01*
X68147340Y-93950735D01*
X68042735Y-94055340D01*
X67919732Y-94137528D01*
X67919731Y-94137529D01*
X67919730Y-94137529D01*
X67783059Y-94194140D01*
X67637968Y-94223000D01*
X67490032Y-94223000D01*
X67344941Y-94194140D01*
X67208270Y-94137529D01*
X67208269Y-94137529D01*
X67208268Y-94137528D01*
X67085265Y-94055340D01*
X66980660Y-93950735D01*
X66898472Y-93827732D01*
X66841860Y-93691059D01*
X66841559Y-93689544D01*
X66813000Y-93545968D01*
X66813000Y-93398032D01*
X66841860Y-93252941D01*
X66898471Y-93116270D01*
X66898472Y-93116268D01*
X66980660Y-92993265D01*
X67085265Y-92888660D01*
X67208268Y-92806472D01*
X67344941Y-92749860D01*
X67490032Y-92721000D01*
X67637968Y-92721000D01*
X67783059Y-92749860D01*
G37*
G36*
X71463000Y-93815000D02*
G01*
X69761000Y-93815000D01*
X69761000Y-92113000D01*
X71463000Y-92113000D01*
X71463000Y-93815000D01*
G37*
G36*
X103337911Y-86753000D02*
G01*
X103459734Y-86777232D01*
X103669203Y-86863997D01*
X103857720Y-86989960D01*
X104018040Y-87150280D01*
X104144003Y-87338797D01*
X104230768Y-87548266D01*
X104275000Y-87770636D01*
X104275000Y-87997364D01*
X104230768Y-88219734D01*
X104144003Y-88429203D01*
X104018040Y-88617720D01*
X103857720Y-88778040D01*
X103669203Y-88904003D01*
X103459734Y-88990768D01*
X103348549Y-89012884D01*
X103237365Y-89035000D01*
X103010635Y-89035000D01*
X102899451Y-89012884D01*
X102788266Y-88990768D01*
X102578797Y-88904003D01*
X102390280Y-88778040D01*
X102229960Y-88617720D01*
X102103997Y-88429203D01*
X102017232Y-88219734D01*
X101973000Y-87997364D01*
X101973000Y-87770636D01*
X102017232Y-87548266D01*
X102103997Y-87338797D01*
X102229960Y-87150280D01*
X102390280Y-86989960D01*
X102578797Y-86863997D01*
X102788266Y-86777232D01*
X102910089Y-86753000D01*
X103010635Y-86733000D01*
X103237365Y-86733000D01*
X103337911Y-86753000D01*
G37*
G36*
X94115000Y-89035000D02*
G01*
X91813000Y-89035000D01*
X91813000Y-86733000D01*
X94115000Y-86733000D01*
X94115000Y-89035000D01*
G37*
G36*
X79641000Y-86753000D02*
G01*
X77839000Y-86753000D01*
X77839000Y-84951000D01*
X79641000Y-84951000D01*
X79641000Y-86753000D01*
G37*
G36*
X70860228Y-84525703D02*
G01*
X71015100Y-84589853D01*
X71154481Y-84682985D01*
X71273015Y-84801519D01*
X71366147Y-84940900D01*
X71430297Y-85095772D01*
X71463000Y-85260184D01*
X71463000Y-85427816D01*
X71430297Y-85592228D01*
X71366147Y-85747100D01*
X71273015Y-85886481D01*
X71154481Y-86005015D01*
X71015100Y-86098147D01*
X70860228Y-86162297D01*
X70695816Y-86195000D01*
X70528184Y-86195000D01*
X70363772Y-86162297D01*
X70208900Y-86098147D01*
X70069519Y-86005015D01*
X69950985Y-85886481D01*
X69857853Y-85747100D01*
X69793703Y-85592228D01*
X69761000Y-85427816D01*
X69761000Y-85260184D01*
X69793703Y-85095772D01*
X69857853Y-84940900D01*
X69950985Y-84801519D01*
X70069519Y-84682985D01*
X70208900Y-84589853D01*
X70363772Y-84525703D01*
X70528184Y-84493000D01*
X70695816Y-84493000D01*
X70860228Y-84525703D01*
G37*
G36*
X78853512Y-82415927D02*
G01*
X79002812Y-82445624D01*
X79166784Y-82513544D01*
X79314354Y-82612147D01*
X79439853Y-82737646D01*
X79538456Y-82885216D01*
X79606376Y-83049188D01*
X79641000Y-83223259D01*
X79641000Y-83400741D01*
X79606376Y-83574812D01*
X79538456Y-83738784D01*
X79439853Y-83886354D01*
X79314354Y-84011853D01*
X79166784Y-84110456D01*
X79002812Y-84178376D01*
X78853512Y-84208073D01*
X78828742Y-84213000D01*
X78651258Y-84213000D01*
X78626488Y-84208073D01*
X78477188Y-84178376D01*
X78313216Y-84110456D01*
X78165646Y-84011853D01*
X78040147Y-83886354D01*
X77941544Y-83738784D01*
X77873624Y-83574812D01*
X77839000Y-83400741D01*
X77839000Y-83223259D01*
X77873624Y-83049188D01*
X77941544Y-82885216D01*
X78040147Y-82737646D01*
X78165646Y-82612147D01*
X78313216Y-82513544D01*
X78477188Y-82445624D01*
X78626488Y-82415927D01*
X78651258Y-82411000D01*
X78828742Y-82411000D01*
X78853512Y-82415927D01*
G37*
G36*
X78853512Y-79875927D02*
G01*
X79002812Y-79905624D01*
X79166784Y-79973544D01*
X79314354Y-80072147D01*
X79439853Y-80197646D01*
X79538456Y-80345216D01*
X79606376Y-80509188D01*
X79641000Y-80683259D01*
X79641000Y-80860741D01*
X79606376Y-81034812D01*
X79538456Y-81198784D01*
X79439853Y-81346354D01*
X79314354Y-81471853D01*
X79166784Y-81570456D01*
X79002812Y-81638376D01*
X78853512Y-81668073D01*
X78828742Y-81673000D01*
X78651258Y-81673000D01*
X78626488Y-81668073D01*
X78477188Y-81638376D01*
X78313216Y-81570456D01*
X78165646Y-81471853D01*
X78040147Y-81346354D01*
X77941544Y-81198784D01*
X77873624Y-81034812D01*
X77839000Y-80860741D01*
X77839000Y-80683259D01*
X77873624Y-80509188D01*
X77941544Y-80345216D01*
X78040147Y-80197646D01*
X78165646Y-80072147D01*
X78313216Y-79973544D01*
X78477188Y-79905624D01*
X78626488Y-79875927D01*
X78651258Y-79871000D01*
X78828742Y-79871000D01*
X78853512Y-79875927D01*
G37*
G36*
X97998228Y-69031703D02*
G01*
X98153100Y-69095853D01*
X98292481Y-69188985D01*
X98411015Y-69307519D01*
X98504147Y-69446900D01*
X98568297Y-69601772D01*
X98601000Y-69766184D01*
X98601000Y-69933816D01*
X98568297Y-70098228D01*
X98504147Y-70253100D01*
X98411015Y-70392481D01*
X98292481Y-70511015D01*
X98153100Y-70604147D01*
X97998228Y-70668297D01*
X97833816Y-70701000D01*
X97666184Y-70701000D01*
X97501772Y-70668297D01*
X97346900Y-70604147D01*
X97207519Y-70511015D01*
X97088985Y-70392481D01*
X96995853Y-70253100D01*
X96931703Y-70098228D01*
X96899000Y-69933816D01*
X96899000Y-69766184D01*
X96931703Y-69601772D01*
X96995853Y-69446900D01*
X97088985Y-69307519D01*
X97207519Y-69188985D01*
X97346900Y-69095853D01*
X97501772Y-69031703D01*
X97666184Y-68999000D01*
X97833816Y-68999000D01*
X97998228Y-69031703D01*
G37*
G36*
X80298228Y-69031703D02*
G01*
X80453100Y-69095853D01*
X80592481Y-69188985D01*
X80711015Y-69307519D01*
X80804147Y-69446900D01*
X80868297Y-69601772D01*
X80901000Y-69766184D01*
X80901000Y-69933816D01*
X80868297Y-70098228D01*
X80804147Y-70253100D01*
X80711015Y-70392481D01*
X80592481Y-70511015D01*
X80453100Y-70604147D01*
X80298228Y-70668297D01*
X80133816Y-70701000D01*
X79966184Y-70701000D01*
X79801772Y-70668297D01*
X79646900Y-70604147D01*
X79507519Y-70511015D01*
X79388985Y-70392481D01*
X79295853Y-70253100D01*
X79231703Y-70098228D01*
X79199000Y-69933816D01*
X79199000Y-69766184D01*
X79231703Y-69601772D01*
X79295853Y-69446900D01*
X79388985Y-69307519D01*
X79507519Y-69188985D01*
X79646900Y-69095853D01*
X79801772Y-69031703D01*
X79966184Y-68999000D01*
X80133816Y-68999000D01*
X80298228Y-69031703D01*
G37*
G36*
X83401000Y-70701000D02*
G01*
X81699000Y-70701000D01*
X81699000Y-68999000D01*
X83401000Y-68999000D01*
X83401000Y-70701000D01*
G37*
G36*
X90378228Y-69031703D02*
G01*
X90533100Y-69095853D01*
X90672481Y-69188985D01*
X90791015Y-69307519D01*
X90884147Y-69446900D01*
X90948297Y-69601772D01*
X90981000Y-69766184D01*
X90981000Y-69933816D01*
X90948297Y-70098228D01*
X90884147Y-70253100D01*
X90791015Y-70392481D01*
X90672481Y-70511015D01*
X90533100Y-70604147D01*
X90378228Y-70668297D01*
X90213816Y-70701000D01*
X90046184Y-70701000D01*
X89881772Y-70668297D01*
X89726900Y-70604147D01*
X89587519Y-70511015D01*
X89468985Y-70392481D01*
X89375853Y-70253100D01*
X89311703Y-70098228D01*
X89279000Y-69933816D01*
X89279000Y-69766184D01*
X89311703Y-69601772D01*
X89375853Y-69446900D01*
X89468985Y-69307519D01*
X89587519Y-69188985D01*
X89726900Y-69095853D01*
X89881772Y-69031703D01*
X90046184Y-68999000D01*
X90213816Y-68999000D01*
X90378228Y-69031703D01*
G37*
G36*
X88481000Y-70701000D02*
G01*
X86779000Y-70701000D01*
X86779000Y-68999000D01*
X88481000Y-68999000D01*
X88481000Y-70701000D01*
G37*
G36*
X96101000Y-70701000D02*
G01*
X94399000Y-70701000D01*
X94399000Y-68999000D01*
X96101000Y-68999000D01*
X96101000Y-70701000D01*
G37*
G36*
X85309059Y-62899860D02*
G01*
X85445732Y-62956472D01*
X85568735Y-63038660D01*
X85673340Y-63143265D01*
X85755528Y-63266268D01*
X85812140Y-63402941D01*
X85841000Y-63548033D01*
X85841000Y-63695967D01*
X85812140Y-63841059D01*
X85755528Y-63977732D01*
X85673340Y-64100735D01*
X85568735Y-64205340D01*
X85445732Y-64287528D01*
X85445731Y-64287529D01*
X85445730Y-64287529D01*
X85309059Y-64344140D01*
X85163968Y-64373000D01*
X85016032Y-64373000D01*
X84870941Y-64344140D01*
X84734270Y-64287529D01*
X84734269Y-64287529D01*
X84734268Y-64287528D01*
X84611265Y-64205340D01*
X84506660Y-64100735D01*
X84424472Y-63977732D01*
X84367860Y-63841059D01*
X84339000Y-63695967D01*
X84339000Y-63548033D01*
X84367860Y-63402941D01*
X84424472Y-63266268D01*
X84506660Y-63143265D01*
X84611265Y-63038660D01*
X84734268Y-62956472D01*
X84870941Y-62899860D01*
X85016032Y-62871000D01*
X85163968Y-62871000D01*
X85309059Y-62899860D01*
G37*
G36*
X92421059Y-62777860D02*
G01*
X92557732Y-62834472D01*
X92680735Y-62916660D01*
X92785340Y-63021265D01*
X92867528Y-63144268D01*
X92924140Y-63280941D01*
X92953000Y-63426033D01*
X92953000Y-63573967D01*
X92924140Y-63719059D01*
X92867528Y-63855732D01*
X92785340Y-63978735D01*
X92680735Y-64083340D01*
X92557732Y-64165528D01*
X92557731Y-64165529D01*
X92557730Y-64165529D01*
X92421059Y-64222140D01*
X92275968Y-64251000D01*
X92128032Y-64251000D01*
X91982941Y-64222140D01*
X91846270Y-64165529D01*
X91846269Y-64165529D01*
X91846268Y-64165528D01*
X91723265Y-64083340D01*
X91618660Y-63978735D01*
X91536472Y-63855732D01*
X91479860Y-63719059D01*
X91451000Y-63573967D01*
X91451000Y-63426033D01*
X91479860Y-63280941D01*
X91536472Y-63144268D01*
X91618660Y-63021265D01*
X91723265Y-62916660D01*
X91846268Y-62834472D01*
X91982941Y-62777860D01*
X92128032Y-62749000D01*
X92275968Y-62749000D01*
X92421059Y-62777860D01*
G37*
G36*
X99787059Y-62777860D02*
G01*
X99923732Y-62834472D01*
X100046735Y-62916660D01*
X100151340Y-63021265D01*
X100233528Y-63144268D01*
X100290140Y-63280941D01*
X100319000Y-63426033D01*
X100319000Y-63573967D01*
X100290140Y-63719059D01*
X100233528Y-63855732D01*
X100151340Y-63978735D01*
X100046735Y-64083340D01*
X99923732Y-64165528D01*
X99923731Y-64165529D01*
X99923730Y-64165529D01*
X99787059Y-64222140D01*
X99641968Y-64251000D01*
X99494032Y-64251000D01*
X99348941Y-64222140D01*
X99212270Y-64165529D01*
X99212269Y-64165529D01*
X99212268Y-64165528D01*
X99089265Y-64083340D01*
X98984660Y-63978735D01*
X98902472Y-63855732D01*
X98845860Y-63719059D01*
X98817000Y-63573967D01*
X98817000Y-63426033D01*
X98845860Y-63280941D01*
X98902472Y-63144268D01*
X98984660Y-63021265D01*
X99089265Y-62916660D01*
X99212268Y-62834472D01*
X99348941Y-62777860D01*
X99494032Y-62749000D01*
X99641968Y-62749000D01*
X99787059Y-62777860D01*
G37*
G36*
X85309059Y-60999860D02*
G01*
X85445732Y-61056472D01*
X85568735Y-61138660D01*
X85673340Y-61243265D01*
X85755528Y-61366268D01*
X85812140Y-61502941D01*
X85841000Y-61648033D01*
X85841000Y-61795967D01*
X85812140Y-61941059D01*
X85755528Y-62077732D01*
X85673340Y-62200735D01*
X85568735Y-62305340D01*
X85445732Y-62387528D01*
X85445731Y-62387529D01*
X85445730Y-62387529D01*
X85309059Y-62444140D01*
X85163968Y-62473000D01*
X85016032Y-62473000D01*
X84870941Y-62444140D01*
X84734270Y-62387529D01*
X84734269Y-62387529D01*
X84734268Y-62387528D01*
X84611265Y-62305340D01*
X84506660Y-62200735D01*
X84424472Y-62077732D01*
X84367860Y-61941059D01*
X84339000Y-61795967D01*
X84339000Y-61648033D01*
X84367860Y-61502941D01*
X84424472Y-61366268D01*
X84506660Y-61243265D01*
X84611265Y-61138660D01*
X84734268Y-61056472D01*
X84870941Y-60999860D01*
X85016032Y-60971000D01*
X85163968Y-60971000D01*
X85309059Y-60999860D01*
G37*
G36*
X92421059Y-60877860D02*
G01*
X92557732Y-60934472D01*
X92680735Y-61016660D01*
X92785340Y-61121265D01*
X92867528Y-61244268D01*
X92924140Y-61380941D01*
X92953000Y-61526033D01*
X92953000Y-61673967D01*
X92924140Y-61819059D01*
X92867528Y-61955732D01*
X92785340Y-62078735D01*
X92680735Y-62183340D01*
X92557732Y-62265528D01*
X92557731Y-62265529D01*
X92557730Y-62265529D01*
X92421059Y-62322140D01*
X92275968Y-62351000D01*
X92128032Y-62351000D01*
X91982941Y-62322140D01*
X91846270Y-62265529D01*
X91846269Y-62265529D01*
X91846268Y-62265528D01*
X91723265Y-62183340D01*
X91618660Y-62078735D01*
X91536472Y-61955732D01*
X91479860Y-61819059D01*
X91451000Y-61673967D01*
X91451000Y-61526033D01*
X91479860Y-61380941D01*
X91536472Y-61244268D01*
X91618660Y-61121265D01*
X91723265Y-61016660D01*
X91846268Y-60934472D01*
X91982941Y-60877860D01*
X92128032Y-60849000D01*
X92275968Y-60849000D01*
X92421059Y-60877860D01*
G37*
G36*
X99787059Y-60877860D02*
G01*
X99923732Y-60934472D01*
X100046735Y-61016660D01*
X100151340Y-61121265D01*
X100233528Y-61244268D01*
X100290140Y-61380941D01*
X100319000Y-61526033D01*
X100319000Y-61673967D01*
X100290140Y-61819059D01*
X100233528Y-61955732D01*
X100151340Y-62078735D01*
X100046735Y-62183340D01*
X99923732Y-62265528D01*
X99923731Y-62265529D01*
X99923730Y-62265529D01*
X99787059Y-62322140D01*
X99641968Y-62351000D01*
X99494032Y-62351000D01*
X99348941Y-62322140D01*
X99212270Y-62265529D01*
X99212269Y-62265529D01*
X99212268Y-62265528D01*
X99089265Y-62183340D01*
X98984660Y-62078735D01*
X98902472Y-61955732D01*
X98845860Y-61819059D01*
X98817000Y-61673967D01*
X98817000Y-61526033D01*
X98845860Y-61380941D01*
X98902472Y-61244268D01*
X98984660Y-61121265D01*
X99089265Y-61016660D01*
X99212268Y-60934472D01*
X99348941Y-60877860D01*
X99494032Y-60849000D01*
X99641968Y-60849000D01*
X99787059Y-60877860D01*
G37*
G36*
X70497000Y-58813000D02*
G01*
X68695000Y-58813000D01*
X68695000Y-57011000D01*
X70497000Y-57011000D01*
X70497000Y-58813000D01*
G37*
G36*
X94728512Y-56888927D02*
G01*
X94877812Y-56918624D01*
X95041784Y-56986544D01*
X95189354Y-57085147D01*
X95314853Y-57210646D01*
X95413456Y-57358216D01*
X95481376Y-57522188D01*
X95516000Y-57696259D01*
X95516000Y-57873741D01*
X95481376Y-58047812D01*
X95413456Y-58211784D01*
X95314853Y-58359354D01*
X95189354Y-58484853D01*
X95041784Y-58583456D01*
X94877812Y-58651376D01*
X94728512Y-58681073D01*
X94703742Y-58686000D01*
X94526258Y-58686000D01*
X94501488Y-58681073D01*
X94352188Y-58651376D01*
X94188216Y-58583456D01*
X94040646Y-58484853D01*
X93915147Y-58359354D01*
X93816544Y-58211784D01*
X93748624Y-58047812D01*
X93714000Y-57873741D01*
X93714000Y-57696259D01*
X93748624Y-57522188D01*
X93816544Y-57358216D01*
X93915147Y-57210646D01*
X94040646Y-57085147D01*
X94188216Y-56986544D01*
X94352188Y-56918624D01*
X94501488Y-56888927D01*
X94526258Y-56884000D01*
X94703742Y-56884000D01*
X94728512Y-56888927D01*
G37*
G36*
X79488512Y-56888927D02*
G01*
X79637812Y-56918624D01*
X79801784Y-56986544D01*
X79949354Y-57085147D01*
X80074853Y-57210646D01*
X80173456Y-57358216D01*
X80241376Y-57522188D01*
X80276000Y-57696259D01*
X80276000Y-57873741D01*
X80241376Y-58047812D01*
X80173456Y-58211784D01*
X80074853Y-58359354D01*
X79949354Y-58484853D01*
X79801784Y-58583456D01*
X79637812Y-58651376D01*
X79488512Y-58681073D01*
X79463742Y-58686000D01*
X79286258Y-58686000D01*
X79261488Y-58681073D01*
X79112188Y-58651376D01*
X78948216Y-58583456D01*
X78800646Y-58484853D01*
X78675147Y-58359354D01*
X78576544Y-58211784D01*
X78508624Y-58047812D01*
X78474000Y-57873741D01*
X78474000Y-57696259D01*
X78508624Y-57522188D01*
X78576544Y-57358216D01*
X78675147Y-57210646D01*
X78800646Y-57085147D01*
X78948216Y-56986544D01*
X79112188Y-56918624D01*
X79261488Y-56888927D01*
X79286258Y-56884000D01*
X79463742Y-56884000D01*
X79488512Y-56888927D01*
G37*
G36*
X82028512Y-56888927D02*
G01*
X82177812Y-56918624D01*
X82341784Y-56986544D01*
X82489354Y-57085147D01*
X82614853Y-57210646D01*
X82713456Y-57358216D01*
X82781376Y-57522188D01*
X82816000Y-57696259D01*
X82816000Y-57873741D01*
X82781376Y-58047812D01*
X82713456Y-58211784D01*
X82614853Y-58359354D01*
X82489354Y-58484853D01*
X82341784Y-58583456D01*
X82177812Y-58651376D01*
X82028512Y-58681073D01*
X82003742Y-58686000D01*
X81826258Y-58686000D01*
X81801488Y-58681073D01*
X81652188Y-58651376D01*
X81488216Y-58583456D01*
X81340646Y-58484853D01*
X81215147Y-58359354D01*
X81116544Y-58211784D01*
X81048624Y-58047812D01*
X81014000Y-57873741D01*
X81014000Y-57696259D01*
X81048624Y-57522188D01*
X81116544Y-57358216D01*
X81215147Y-57210646D01*
X81340646Y-57085147D01*
X81488216Y-56986544D01*
X81652188Y-56918624D01*
X81801488Y-56888927D01*
X81826258Y-56884000D01*
X82003742Y-56884000D01*
X82028512Y-56888927D01*
G37*
G36*
X84568512Y-56888927D02*
G01*
X84717812Y-56918624D01*
X84881784Y-56986544D01*
X85029354Y-57085147D01*
X85154853Y-57210646D01*
X85253456Y-57358216D01*
X85321376Y-57522188D01*
X85356000Y-57696259D01*
X85356000Y-57873741D01*
X85321376Y-58047812D01*
X85253456Y-58211784D01*
X85154853Y-58359354D01*
X85029354Y-58484853D01*
X84881784Y-58583456D01*
X84717812Y-58651376D01*
X84568512Y-58681073D01*
X84543742Y-58686000D01*
X84366258Y-58686000D01*
X84341488Y-58681073D01*
X84192188Y-58651376D01*
X84028216Y-58583456D01*
X83880646Y-58484853D01*
X83755147Y-58359354D01*
X83656544Y-58211784D01*
X83588624Y-58047812D01*
X83554000Y-57873741D01*
X83554000Y-57696259D01*
X83588624Y-57522188D01*
X83656544Y-57358216D01*
X83755147Y-57210646D01*
X83880646Y-57085147D01*
X84028216Y-56986544D01*
X84192188Y-56918624D01*
X84341488Y-56888927D01*
X84366258Y-56884000D01*
X84543742Y-56884000D01*
X84568512Y-56888927D01*
G37*
G36*
X87108512Y-56888927D02*
G01*
X87257812Y-56918624D01*
X87421784Y-56986544D01*
X87569354Y-57085147D01*
X87694853Y-57210646D01*
X87793456Y-57358216D01*
X87861376Y-57522188D01*
X87896000Y-57696259D01*
X87896000Y-57873741D01*
X87861376Y-58047812D01*
X87793456Y-58211784D01*
X87694853Y-58359354D01*
X87569354Y-58484853D01*
X87421784Y-58583456D01*
X87257812Y-58651376D01*
X87108512Y-58681073D01*
X87083742Y-58686000D01*
X86906258Y-58686000D01*
X86881488Y-58681073D01*
X86732188Y-58651376D01*
X86568216Y-58583456D01*
X86420646Y-58484853D01*
X86295147Y-58359354D01*
X86196544Y-58211784D01*
X86128624Y-58047812D01*
X86094000Y-57873741D01*
X86094000Y-57696259D01*
X86128624Y-57522188D01*
X86196544Y-57358216D01*
X86295147Y-57210646D01*
X86420646Y-57085147D01*
X86568216Y-56986544D01*
X86732188Y-56918624D01*
X86881488Y-56888927D01*
X86906258Y-56884000D01*
X87083742Y-56884000D01*
X87108512Y-56888927D01*
G37*
G36*
X97268512Y-56888927D02*
G01*
X97417812Y-56918624D01*
X97581784Y-56986544D01*
X97729354Y-57085147D01*
X97854853Y-57210646D01*
X97953456Y-57358216D01*
X98021376Y-57522188D01*
X98056000Y-57696259D01*
X98056000Y-57873741D01*
X98021376Y-58047812D01*
X97953456Y-58211784D01*
X97854853Y-58359354D01*
X97729354Y-58484853D01*
X97581784Y-58583456D01*
X97417812Y-58651376D01*
X97268512Y-58681073D01*
X97243742Y-58686000D01*
X97066258Y-58686000D01*
X97041488Y-58681073D01*
X96892188Y-58651376D01*
X96728216Y-58583456D01*
X96580646Y-58484853D01*
X96455147Y-58359354D01*
X96356544Y-58211784D01*
X96288624Y-58047812D01*
X96254000Y-57873741D01*
X96254000Y-57696259D01*
X96288624Y-57522188D01*
X96356544Y-57358216D01*
X96455147Y-57210646D01*
X96580646Y-57085147D01*
X96728216Y-56986544D01*
X96892188Y-56918624D01*
X97041488Y-56888927D01*
X97066258Y-56884000D01*
X97243742Y-56884000D01*
X97268512Y-56888927D01*
G37*
G36*
X89648512Y-56888927D02*
G01*
X89797812Y-56918624D01*
X89961784Y-56986544D01*
X90109354Y-57085147D01*
X90234853Y-57210646D01*
X90333456Y-57358216D01*
X90401376Y-57522188D01*
X90436000Y-57696259D01*
X90436000Y-57873741D01*
X90401376Y-58047812D01*
X90333456Y-58211784D01*
X90234853Y-58359354D01*
X90109354Y-58484853D01*
X89961784Y-58583456D01*
X89797812Y-58651376D01*
X89648512Y-58681073D01*
X89623742Y-58686000D01*
X89446258Y-58686000D01*
X89421488Y-58681073D01*
X89272188Y-58651376D01*
X89108216Y-58583456D01*
X88960646Y-58484853D01*
X88835147Y-58359354D01*
X88736544Y-58211784D01*
X88668624Y-58047812D01*
X88634000Y-57873741D01*
X88634000Y-57696259D01*
X88668624Y-57522188D01*
X88736544Y-57358216D01*
X88835147Y-57210646D01*
X88960646Y-57085147D01*
X89108216Y-56986544D01*
X89272188Y-56918624D01*
X89421488Y-56888927D01*
X89446258Y-56884000D01*
X89623742Y-56884000D01*
X89648512Y-56888927D01*
G37*
G36*
X92188512Y-56888927D02*
G01*
X92337812Y-56918624D01*
X92501784Y-56986544D01*
X92649354Y-57085147D01*
X92774853Y-57210646D01*
X92873456Y-57358216D01*
X92941376Y-57522188D01*
X92976000Y-57696259D01*
X92976000Y-57873741D01*
X92941376Y-58047812D01*
X92873456Y-58211784D01*
X92774853Y-58359354D01*
X92649354Y-58484853D01*
X92501784Y-58583456D01*
X92337812Y-58651376D01*
X92188512Y-58681073D01*
X92163742Y-58686000D01*
X91986258Y-58686000D01*
X91961488Y-58681073D01*
X91812188Y-58651376D01*
X91648216Y-58583456D01*
X91500646Y-58484853D01*
X91375147Y-58359354D01*
X91276544Y-58211784D01*
X91208624Y-58047812D01*
X91174000Y-57873741D01*
X91174000Y-57696259D01*
X91208624Y-57522188D01*
X91276544Y-57358216D01*
X91375147Y-57210646D01*
X91500646Y-57085147D01*
X91648216Y-56986544D01*
X91812188Y-56918624D01*
X91961488Y-56888927D01*
X91986258Y-56884000D01*
X92163742Y-56884000D01*
X92188512Y-56888927D01*
G37*
G36*
X69709512Y-54475927D02*
G01*
X69858812Y-54505624D01*
X70022784Y-54573544D01*
X70170354Y-54672147D01*
X70295853Y-54797646D01*
X70394456Y-54945216D01*
X70462376Y-55109188D01*
X70497000Y-55283259D01*
X70497000Y-55460741D01*
X70462376Y-55634812D01*
X70394456Y-55798784D01*
X70295853Y-55946354D01*
X70170354Y-56071853D01*
X70022784Y-56170456D01*
X69858812Y-56238376D01*
X69709512Y-56268073D01*
X69684742Y-56273000D01*
X69507258Y-56273000D01*
X69482488Y-56268073D01*
X69333188Y-56238376D01*
X69169216Y-56170456D01*
X69021646Y-56071853D01*
X68896147Y-55946354D01*
X68797544Y-55798784D01*
X68729624Y-55634812D01*
X68695000Y-55460741D01*
X68695000Y-55283259D01*
X68729624Y-55109188D01*
X68797544Y-54945216D01*
X68896147Y-54797646D01*
X69021646Y-54672147D01*
X69169216Y-54573544D01*
X69333188Y-54505624D01*
X69482488Y-54475927D01*
X69507258Y-54471000D01*
X69684742Y-54471000D01*
X69709512Y-54475927D01*
G37*
G36*
X92188512Y-54348927D02*
G01*
X92337812Y-54378624D01*
X92501784Y-54446544D01*
X92649354Y-54545147D01*
X92774853Y-54670646D01*
X92873456Y-54818216D01*
X92941376Y-54982188D01*
X92976000Y-55156259D01*
X92976000Y-55333741D01*
X92941376Y-55507812D01*
X92873456Y-55671784D01*
X92774853Y-55819354D01*
X92649354Y-55944853D01*
X92501784Y-56043456D01*
X92337812Y-56111376D01*
X92188512Y-56141073D01*
X92163742Y-56146000D01*
X91986258Y-56146000D01*
X91961488Y-56141073D01*
X91812188Y-56111376D01*
X91648216Y-56043456D01*
X91500646Y-55944853D01*
X91375147Y-55819354D01*
X91276544Y-55671784D01*
X91208624Y-55507812D01*
X91174000Y-55333741D01*
X91174000Y-55156259D01*
X91208624Y-54982188D01*
X91276544Y-54818216D01*
X91375147Y-54670646D01*
X91500646Y-54545147D01*
X91648216Y-54446544D01*
X91812188Y-54378624D01*
X91961488Y-54348927D01*
X91986258Y-54344000D01*
X92163742Y-54344000D01*
X92188512Y-54348927D01*
G37*
G36*
X87108512Y-54348927D02*
G01*
X87257812Y-54378624D01*
X87421784Y-54446544D01*
X87569354Y-54545147D01*
X87694853Y-54670646D01*
X87793456Y-54818216D01*
X87861376Y-54982188D01*
X87896000Y-55156259D01*
X87896000Y-55333741D01*
X87861376Y-55507812D01*
X87793456Y-55671784D01*
X87694853Y-55819354D01*
X87569354Y-55944853D01*
X87421784Y-56043456D01*
X87257812Y-56111376D01*
X87108512Y-56141073D01*
X87083742Y-56146000D01*
X86906258Y-56146000D01*
X86881488Y-56141073D01*
X86732188Y-56111376D01*
X86568216Y-56043456D01*
X86420646Y-55944853D01*
X86295147Y-55819354D01*
X86196544Y-55671784D01*
X86128624Y-55507812D01*
X86094000Y-55333741D01*
X86094000Y-55156259D01*
X86128624Y-54982188D01*
X86196544Y-54818216D01*
X86295147Y-54670646D01*
X86420646Y-54545147D01*
X86568216Y-54446544D01*
X86732188Y-54378624D01*
X86881488Y-54348927D01*
X86906258Y-54344000D01*
X87083742Y-54344000D01*
X87108512Y-54348927D01*
G37*
G36*
X94728512Y-54348927D02*
G01*
X94877812Y-54378624D01*
X95041784Y-54446544D01*
X95189354Y-54545147D01*
X95314853Y-54670646D01*
X95413456Y-54818216D01*
X95481376Y-54982188D01*
X95516000Y-55156259D01*
X95516000Y-55333741D01*
X95481376Y-55507812D01*
X95413456Y-55671784D01*
X95314853Y-55819354D01*
X95189354Y-55944853D01*
X95041784Y-56043456D01*
X94877812Y-56111376D01*
X94728512Y-56141073D01*
X94703742Y-56146000D01*
X94526258Y-56146000D01*
X94501488Y-56141073D01*
X94352188Y-56111376D01*
X94188216Y-56043456D01*
X94040646Y-55944853D01*
X93915147Y-55819354D01*
X93816544Y-55671784D01*
X93748624Y-55507812D01*
X93714000Y-55333741D01*
X93714000Y-55156259D01*
X93748624Y-54982188D01*
X93816544Y-54818216D01*
X93915147Y-54670646D01*
X94040646Y-54545147D01*
X94188216Y-54446544D01*
X94352188Y-54378624D01*
X94501488Y-54348927D01*
X94526258Y-54344000D01*
X94703742Y-54344000D01*
X94728512Y-54348927D01*
G37*
G36*
X84568512Y-54348927D02*
G01*
X84717812Y-54378624D01*
X84881784Y-54446544D01*
X85029354Y-54545147D01*
X85154853Y-54670646D01*
X85253456Y-54818216D01*
X85321376Y-54982188D01*
X85356000Y-55156259D01*
X85356000Y-55333741D01*
X85321376Y-55507812D01*
X85253456Y-55671784D01*
X85154853Y-55819354D01*
X85029354Y-55944853D01*
X84881784Y-56043456D01*
X84717812Y-56111376D01*
X84568512Y-56141073D01*
X84543742Y-56146000D01*
X84366258Y-56146000D01*
X84341488Y-56141073D01*
X84192188Y-56111376D01*
X84028216Y-56043456D01*
X83880646Y-55944853D01*
X83755147Y-55819354D01*
X83656544Y-55671784D01*
X83588624Y-55507812D01*
X83554000Y-55333741D01*
X83554000Y-55156259D01*
X83588624Y-54982188D01*
X83656544Y-54818216D01*
X83755147Y-54670646D01*
X83880646Y-54545147D01*
X84028216Y-54446544D01*
X84192188Y-54378624D01*
X84341488Y-54348927D01*
X84366258Y-54344000D01*
X84543742Y-54344000D01*
X84568512Y-54348927D01*
G37*
G36*
X98056000Y-56146000D02*
G01*
X96254000Y-56146000D01*
X96254000Y-54344000D01*
X98056000Y-54344000D01*
X98056000Y-56146000D01*
G37*
G36*
X82028512Y-54348927D02*
G01*
X82177812Y-54378624D01*
X82341784Y-54446544D01*
X82489354Y-54545147D01*
X82614853Y-54670646D01*
X82713456Y-54818216D01*
X82781376Y-54982188D01*
X82816000Y-55156259D01*
X82816000Y-55333741D01*
X82781376Y-55507812D01*
X82713456Y-55671784D01*
X82614853Y-55819354D01*
X82489354Y-55944853D01*
X82341784Y-56043456D01*
X82177812Y-56111376D01*
X82028512Y-56141073D01*
X82003742Y-56146000D01*
X81826258Y-56146000D01*
X81801488Y-56141073D01*
X81652188Y-56111376D01*
X81488216Y-56043456D01*
X81340646Y-55944853D01*
X81215147Y-55819354D01*
X81116544Y-55671784D01*
X81048624Y-55507812D01*
X81014000Y-55333741D01*
X81014000Y-55156259D01*
X81048624Y-54982188D01*
X81116544Y-54818216D01*
X81215147Y-54670646D01*
X81340646Y-54545147D01*
X81488216Y-54446544D01*
X81652188Y-54378624D01*
X81801488Y-54348927D01*
X81826258Y-54344000D01*
X82003742Y-54344000D01*
X82028512Y-54348927D01*
G37*
G36*
X79488512Y-54348927D02*
G01*
X79637812Y-54378624D01*
X79801784Y-54446544D01*
X79949354Y-54545147D01*
X80074853Y-54670646D01*
X80173456Y-54818216D01*
X80241376Y-54982188D01*
X80276000Y-55156259D01*
X80276000Y-55333741D01*
X80241376Y-55507812D01*
X80173456Y-55671784D01*
X80074853Y-55819354D01*
X79949354Y-55944853D01*
X79801784Y-56043456D01*
X79637812Y-56111376D01*
X79488512Y-56141073D01*
X79463742Y-56146000D01*
X79286258Y-56146000D01*
X79261488Y-56141073D01*
X79112188Y-56111376D01*
X78948216Y-56043456D01*
X78800646Y-55944853D01*
X78675147Y-55819354D01*
X78576544Y-55671784D01*
X78508624Y-55507812D01*
X78474000Y-55333741D01*
X78474000Y-55156259D01*
X78508624Y-54982188D01*
X78576544Y-54818216D01*
X78675147Y-54670646D01*
X78800646Y-54545147D01*
X78948216Y-54446544D01*
X79112188Y-54378624D01*
X79261488Y-54348927D01*
X79286258Y-54344000D01*
X79463742Y-54344000D01*
X79488512Y-54348927D01*
G37*
G36*
X89648512Y-54348927D02*
G01*
X89797812Y-54378624D01*
X89961784Y-54446544D01*
X90109354Y-54545147D01*
X90234853Y-54670646D01*
X90333456Y-54818216D01*
X90401376Y-54982188D01*
X90436000Y-55156259D01*
X90436000Y-55333741D01*
X90401376Y-55507812D01*
X90333456Y-55671784D01*
X90234853Y-55819354D01*
X90109354Y-55944853D01*
X89961784Y-56043456D01*
X89797812Y-56111376D01*
X89648512Y-56141073D01*
X89623742Y-56146000D01*
X89446258Y-56146000D01*
X89421488Y-56141073D01*
X89272188Y-56111376D01*
X89108216Y-56043456D01*
X88960646Y-55944853D01*
X88835147Y-55819354D01*
X88736544Y-55671784D01*
X88668624Y-55507812D01*
X88634000Y-55333741D01*
X88634000Y-55156259D01*
X88668624Y-54982188D01*
X88736544Y-54818216D01*
X88835147Y-54670646D01*
X88960646Y-54545147D01*
X89108216Y-54446544D01*
X89272188Y-54378624D01*
X89421488Y-54348927D01*
X89446258Y-54344000D01*
X89623742Y-54344000D01*
X89648512Y-54348927D01*
G37*
G36*
X43555256Y-45127298D02*
G01*
X43661579Y-45148447D01*
X43962042Y-45272903D01*
X44232451Y-45453585D01*
X44462415Y-45683549D01*
X44643097Y-45953958D01*
X44767553Y-46254421D01*
X44831000Y-46573391D01*
X44831000Y-46898609D01*
X44767553Y-47217579D01*
X44643097Y-47518042D01*
X44462415Y-47788451D01*
X44232451Y-48018415D01*
X43962042Y-48199097D01*
X43661579Y-48323553D01*
X43555256Y-48344702D01*
X43342611Y-48387000D01*
X43017389Y-48387000D01*
X42804744Y-48344702D01*
X42698421Y-48323553D01*
X42397958Y-48199097D01*
X42127549Y-48018415D01*
X41897585Y-47788451D01*
X41716903Y-47518042D01*
X41592447Y-47217579D01*
X41529000Y-46898609D01*
X41529000Y-46573391D01*
X41592447Y-46254421D01*
X41716903Y-45953958D01*
X41897585Y-45683549D01*
X42127549Y-45453585D01*
X42397958Y-45272903D01*
X42698421Y-45148447D01*
X42804744Y-45127298D01*
X43017389Y-45085000D01*
X43342611Y-45085000D01*
X43555256Y-45127298D01*
G37*
G36*
X131439256Y-45127298D02*
G01*
X131545579Y-45148447D01*
X131846042Y-45272903D01*
X132116451Y-45453585D01*
X132346415Y-45683549D01*
X132527097Y-45953958D01*
X132651553Y-46254421D01*
X132715000Y-46573391D01*
X132715000Y-46898609D01*
X132651553Y-47217579D01*
X132527097Y-47518042D01*
X132346415Y-47788451D01*
X132116451Y-48018415D01*
X131846042Y-48199097D01*
X131545579Y-48323553D01*
X131439256Y-48344702D01*
X131226611Y-48387000D01*
X130901389Y-48387000D01*
X130688744Y-48344702D01*
X130582421Y-48323553D01*
X130281958Y-48199097D01*
X130011549Y-48018415D01*
X129781585Y-47788451D01*
X129600903Y-47518042D01*
X129476447Y-47217579D01*
X129413000Y-46898609D01*
X129413000Y-46573391D01*
X129476447Y-46254421D01*
X129600903Y-45953958D01*
X129781585Y-45683549D01*
X130011549Y-45453585D01*
X130281958Y-45272903D01*
X130582421Y-45148447D01*
X130688744Y-45127298D01*
X130901389Y-45085000D01*
X131226611Y-45085000D01*
X131439256Y-45127298D01*
G37*
M02*
