M48
; DRILL file {KiCad (5.1.5)-3} date 14/04/2022 12:46:37
; FORMAT={-:-/ absolute / metric / decimal}
; #@! TF.CreationDate,2022-04-14T12:46:37+02:00
; #@! TF.GenerationSoftware,Kicad,Pcbnew,(5.1.5)-3
; #@! TF.FileFunction,Plated,1,2,PTH
FMAT,2
METRIC
T1C0.400
T2C0.700
T3C0.800
T4C1.000
T5C1.100
T6C1.220
T7C1.420
T8C1.430
%
G90
G05
T1
X42.164Y-110.236
X51.308Y-113.792
X52.832Y-106.172
X65.532Y-96.012
X65.532Y-103.124
X72.136Y-94.488
X72.136Y-96.012
X72.136Y-117.348
X73.66Y-76.2
X73.66Y-103.124
X74.168Y-89.408
X74.168Y-98.044
X74.168Y-106.172
X74.676Y-123.952
X75.401Y-101.092
X75.692Y-104.648
X75.692Y-108.204
X77.724Y-60.96
X78.74Y-101.6
X79.248Y-115.824
X80.264Y-117.856
X86.868Y-124.968
X87.376Y-60.452
X87.376Y-113.792
X88.392Y-118.364
X88.392Y-119.888
X89.408Y-129.54
X89.897Y-103.143
X89.902Y-102.122
X89.907Y-101.101
X89.911Y-100.081
X90.932Y-115.316
X90.932Y-120.904
X90.932Y-126.492
X93.472Y-115.316
X93.472Y-120.904
X93.472Y-126.492
X96.012Y-115.316
X96.012Y-120.904
X96.012Y-126.492
X97.025Y-86.868
X98.044Y-91.44
X98.552Y-94.488
X98.552Y-115.316
X98.552Y-120.904
X98.552Y-126.492
X98.751Y-90.733
X100.584Y-118.364
X100.584Y-119.888
X106.172Y-103.124
X106.68Y-114.3
X108.914Y-105.969
X109.728Y-98.552
X121.92Y-114.808
T2
X67.564Y-93.472
X67.564Y-95.372
X64.008Y-110.236
X66.548Y-107.696
X69.088Y-110.236
X99.568Y-61.6
X99.568Y-63.5
X77.216Y-93.604
X77.216Y-95.504
X92.202Y-61.6
X92.202Y-63.5
X85.09Y-61.722
X85.09Y-63.622
X44.831Y-103.505
X47.371Y-100.965
X47.371Y-106.045
T3
X80.05Y-69.85
X82.55Y-69.85
X103.632Y-103.712
X103.632Y-108.712
X77.216Y-113.284
X82.216Y-113.284
X95.25Y-69.85
X97.75Y-69.85
X87.63Y-69.85
X90.13Y-69.85
X70.612Y-85.344
X70.612Y-92.964
T4
X78.74Y-80.772
X78.74Y-83.312
X78.74Y-85.852
X79.375Y-55.245
X79.375Y-57.785
X81.915Y-55.245
X81.915Y-57.785
X84.455Y-55.245
X84.455Y-57.785
X86.995Y-55.245
X86.995Y-57.785
X89.535Y-55.245
X89.535Y-57.785
X92.075Y-55.245
X92.075Y-57.785
X94.615Y-55.245
X94.615Y-57.785
X97.155Y-55.245
X97.155Y-57.785
X85.344Y-94.488
X85.344Y-97.028
X85.344Y-99.568
X85.344Y-102.108
X85.344Y-104.648
X85.344Y-107.188
X87.884Y-94.488
X87.884Y-97.028
X87.884Y-99.568
X87.884Y-102.108
X87.884Y-104.648
X87.884Y-107.188
X69.596Y-55.372
X69.596Y-57.912
T5
X92.964Y-87.884
X103.124Y-87.884
T6
X53.848Y-133.35
X117.348Y-133.096
T7
X53.848Y-130.25
X117.348Y-129.996
T8
X53.848Y-121.95
X117.348Y-121.696
T0
M30
