%FSLAX45Y45*%
G04 Gerber Fmt 4.5, Leading zero omitted, Abs format (unit mm)*
G04 Created by KiCad (PCBNEW (5.1.5)-3) date 2022-04-14 12:46:40*
%MOMM*%
%LPD*%
G04 APERTURE LIST*
%TA.AperFunction,Profile*%
%ADD10C,0.050000*%
%TD*%
%ADD11C,0.200000*%
%ADD12C,0.300000*%
G04 APERTURE END LIST*
D10*
X13589000Y-13843000D02*
G75*
G02X13462000Y-13970000I-127000J0D01*
G01*
X3937000Y-13970000D02*
G75*
G02X3810000Y-13843000I0J127000D01*
G01*
X3810000Y-4318000D02*
G75*
G02X3937000Y-4191000I127000J0D01*
G01*
X13462000Y-4191000D02*
G75*
G02X13589000Y-4318000I0J-127000D01*
G01*
X3810000Y-4318000D02*
X3810000Y-13843000D01*
X13462000Y-4191000D02*
X3937000Y-4191000D01*
X13589000Y-13843000D02*
X13589000Y-4318000D01*
X3937000Y-13970000D02*
X13462000Y-13970000D01*
D11*
X4208800Y-13251200D02*
X4528800Y-13571200D01*
X4528800Y-13251200D02*
X4208800Y-13571200D01*
X4158000Y-4513600D02*
X4478000Y-4833600D01*
X4478000Y-4513600D02*
X4158000Y-4833600D01*
X12946400Y-4513600D02*
X13266400Y-4833600D01*
X13266400Y-4513600D02*
X12946400Y-4833600D01*
X12946400Y-13302000D02*
X13266400Y-13622000D01*
X13266400Y-13302000D02*
X12946400Y-13622000D01*
D12*
X4093928Y-14438214D02*
X4093928Y-14138214D01*
X4165357Y-14138214D01*
X4208214Y-14152500D01*
X4236786Y-14181071D01*
X4251071Y-14209643D01*
X4265357Y-14266786D01*
X4265357Y-14309643D01*
X4251071Y-14366786D01*
X4236786Y-14395357D01*
X4208214Y-14423929D01*
X4165357Y-14438214D01*
X4093928Y-14438214D01*
X4393928Y-14438214D02*
X4393928Y-14238214D01*
X4393928Y-14295357D02*
X4408214Y-14266786D01*
X4422500Y-14252500D01*
X4451071Y-14238214D01*
X4479643Y-14238214D01*
X4579643Y-14438214D02*
X4579643Y-14238214D01*
X4579643Y-14138214D02*
X4565357Y-14152500D01*
X4579643Y-14166786D01*
X4593928Y-14152500D01*
X4579643Y-14138214D01*
X4579643Y-14166786D01*
X4765357Y-14438214D02*
X4736786Y-14423929D01*
X4722500Y-14395357D01*
X4722500Y-14138214D01*
X4922500Y-14438214D02*
X4893928Y-14423929D01*
X4879643Y-14395357D01*
X4879643Y-14138214D01*
X5265357Y-14438214D02*
X5265357Y-14138214D01*
X5365357Y-14352500D01*
X5465357Y-14138214D01*
X5465357Y-14438214D01*
X5736786Y-14438214D02*
X5736786Y-14281071D01*
X5722500Y-14252500D01*
X5693928Y-14238214D01*
X5636786Y-14238214D01*
X5608214Y-14252500D01*
X5736786Y-14423929D02*
X5708214Y-14438214D01*
X5636786Y-14438214D01*
X5608214Y-14423929D01*
X5593928Y-14395357D01*
X5593928Y-14366786D01*
X5608214Y-14338214D01*
X5636786Y-14323929D01*
X5708214Y-14323929D01*
X5736786Y-14309643D01*
X5879643Y-14238214D02*
X5879643Y-14538214D01*
X5879643Y-14252500D02*
X5908214Y-14238214D01*
X5965357Y-14238214D01*
X5993928Y-14252500D01*
X6008214Y-14266786D01*
X6022500Y-14295357D01*
X6022500Y-14381071D01*
X6008214Y-14409643D01*
X5993928Y-14423929D01*
X5965357Y-14438214D01*
X5908214Y-14438214D01*
X5879643Y-14423929D01*
X6151071Y-14409643D02*
X6165357Y-14423929D01*
X6151071Y-14438214D01*
X6136786Y-14423929D01*
X6151071Y-14409643D01*
X6151071Y-14438214D01*
X6151071Y-14252500D02*
X6165357Y-14266786D01*
X6151071Y-14281071D01*
X6136786Y-14266786D01*
X6151071Y-14252500D01*
X6151071Y-14281071D01*
X3487500Y-14772500D02*
X3807500Y-15092500D01*
X3807500Y-14772500D02*
X3487500Y-15092500D01*
X4065357Y-14768214D02*
X4251071Y-14768214D01*
X4151071Y-14882500D01*
X4193928Y-14882500D01*
X4222500Y-14896786D01*
X4236786Y-14911071D01*
X4251071Y-14939643D01*
X4251071Y-15011071D01*
X4236786Y-15039643D01*
X4222500Y-15053929D01*
X4193928Y-15068214D01*
X4108214Y-15068214D01*
X4079643Y-15053929D01*
X4065357Y-15039643D01*
X4379643Y-15039643D02*
X4393928Y-15053929D01*
X4379643Y-15068214D01*
X4365357Y-15053929D01*
X4379643Y-15039643D01*
X4379643Y-15068214D01*
X4508214Y-14796786D02*
X4522500Y-14782500D01*
X4551071Y-14768214D01*
X4622500Y-14768214D01*
X4651071Y-14782500D01*
X4665357Y-14796786D01*
X4679643Y-14825357D01*
X4679643Y-14853929D01*
X4665357Y-14896786D01*
X4493928Y-15068214D01*
X4679643Y-15068214D01*
X4865357Y-14768214D02*
X4893928Y-14768214D01*
X4922500Y-14782500D01*
X4936786Y-14796786D01*
X4951071Y-14825357D01*
X4965357Y-14882500D01*
X4965357Y-14953929D01*
X4951071Y-15011071D01*
X4936786Y-15039643D01*
X4922500Y-15053929D01*
X4893928Y-15068214D01*
X4865357Y-15068214D01*
X4836786Y-15053929D01*
X4822500Y-15039643D01*
X4808214Y-15011071D01*
X4793928Y-14953929D01*
X4793928Y-14882500D01*
X4808214Y-14825357D01*
X4822500Y-14796786D01*
X4836786Y-14782500D01*
X4865357Y-14768214D01*
X5093928Y-15068214D02*
X5093928Y-14868214D01*
X5093928Y-14896786D02*
X5108214Y-14882500D01*
X5136786Y-14868214D01*
X5179643Y-14868214D01*
X5208214Y-14882500D01*
X5222500Y-14911071D01*
X5222500Y-15068214D01*
X5222500Y-14911071D02*
X5236786Y-14882500D01*
X5265357Y-14868214D01*
X5308214Y-14868214D01*
X5336786Y-14882500D01*
X5351071Y-14911071D01*
X5351071Y-15068214D01*
X5493928Y-15068214D02*
X5493928Y-14868214D01*
X5493928Y-14896786D02*
X5508214Y-14882500D01*
X5536786Y-14868214D01*
X5579643Y-14868214D01*
X5608214Y-14882500D01*
X5622500Y-14911071D01*
X5622500Y-15068214D01*
X5622500Y-14911071D02*
X5636786Y-14882500D01*
X5665357Y-14868214D01*
X5708214Y-14868214D01*
X5736786Y-14882500D01*
X5751071Y-14911071D01*
X5751071Y-15068214D01*
X6336786Y-14753929D02*
X6079643Y-15139643D01*
X6722500Y-14768214D02*
X6751071Y-14768214D01*
X6779643Y-14782500D01*
X6793928Y-14796786D01*
X6808214Y-14825357D01*
X6822500Y-14882500D01*
X6822500Y-14953929D01*
X6808214Y-15011071D01*
X6793928Y-15039643D01*
X6779643Y-15053929D01*
X6751071Y-15068214D01*
X6722500Y-15068214D01*
X6693928Y-15053929D01*
X6679643Y-15039643D01*
X6665357Y-15011071D01*
X6651071Y-14953929D01*
X6651071Y-14882500D01*
X6665357Y-14825357D01*
X6679643Y-14796786D01*
X6693928Y-14782500D01*
X6722500Y-14768214D01*
X6951071Y-15039643D02*
X6965357Y-15053929D01*
X6951071Y-15068214D01*
X6936786Y-15053929D01*
X6951071Y-15039643D01*
X6951071Y-15068214D01*
X7251071Y-15068214D02*
X7079643Y-15068214D01*
X7165357Y-15068214D02*
X7165357Y-14768214D01*
X7136786Y-14811071D01*
X7108214Y-14839643D01*
X7079643Y-14853929D01*
X7365357Y-14796786D02*
X7379643Y-14782500D01*
X7408214Y-14768214D01*
X7479643Y-14768214D01*
X7508214Y-14782500D01*
X7522500Y-14796786D01*
X7536786Y-14825357D01*
X7536786Y-14853929D01*
X7522500Y-14896786D01*
X7351071Y-15068214D01*
X7536786Y-15068214D01*
X7793928Y-14768214D02*
X7736786Y-14768214D01*
X7708214Y-14782500D01*
X7693928Y-14796786D01*
X7665357Y-14839643D01*
X7651071Y-14896786D01*
X7651071Y-15011071D01*
X7665357Y-15039643D01*
X7679643Y-15053929D01*
X7708214Y-15068214D01*
X7765357Y-15068214D01*
X7793928Y-15053929D01*
X7808214Y-15039643D01*
X7822500Y-15011071D01*
X7822500Y-14939643D01*
X7808214Y-14911071D01*
X7793928Y-14896786D01*
X7765357Y-14882500D01*
X7708214Y-14882500D01*
X7679643Y-14896786D01*
X7665357Y-14911071D01*
X7651071Y-14939643D01*
X7936786Y-14768214D02*
X7936786Y-14825357D01*
X8051071Y-14768214D02*
X8051071Y-14825357D01*
X8493928Y-15182500D02*
X8479643Y-15168214D01*
X8451071Y-15125357D01*
X8436786Y-15096786D01*
X8422500Y-15053929D01*
X8408214Y-14982500D01*
X8408214Y-14925357D01*
X8422500Y-14853929D01*
X8436786Y-14811071D01*
X8451071Y-14782500D01*
X8479643Y-14739643D01*
X8493928Y-14725357D01*
X8736786Y-14868214D02*
X8736786Y-15068214D01*
X8665357Y-14753929D02*
X8593928Y-14968214D01*
X8779643Y-14968214D01*
X9122500Y-15068214D02*
X9122500Y-14768214D01*
X9251071Y-15068214D02*
X9251071Y-14911071D01*
X9236786Y-14882500D01*
X9208214Y-14868214D01*
X9165357Y-14868214D01*
X9136786Y-14882500D01*
X9122500Y-14896786D01*
X9436786Y-15068214D02*
X9408214Y-15053929D01*
X9393928Y-15039643D01*
X9379643Y-15011071D01*
X9379643Y-14925357D01*
X9393928Y-14896786D01*
X9408214Y-14882500D01*
X9436786Y-14868214D01*
X9479643Y-14868214D01*
X9508214Y-14882500D01*
X9522500Y-14896786D01*
X9536786Y-14925357D01*
X9536786Y-15011071D01*
X9522500Y-15039643D01*
X9508214Y-15053929D01*
X9479643Y-15068214D01*
X9436786Y-15068214D01*
X9708214Y-15068214D02*
X9679643Y-15053929D01*
X9665357Y-15025357D01*
X9665357Y-14768214D01*
X9936786Y-15053929D02*
X9908214Y-15068214D01*
X9851071Y-15068214D01*
X9822500Y-15053929D01*
X9808214Y-15025357D01*
X9808214Y-14911071D01*
X9822500Y-14882500D01*
X9851071Y-14868214D01*
X9908214Y-14868214D01*
X9936786Y-14882500D01*
X9951071Y-14911071D01*
X9951071Y-14939643D01*
X9808214Y-14968214D01*
X10065357Y-15053929D02*
X10093928Y-15068214D01*
X10151071Y-15068214D01*
X10179643Y-15053929D01*
X10193928Y-15025357D01*
X10193928Y-15011071D01*
X10179643Y-14982500D01*
X10151071Y-14968214D01*
X10108214Y-14968214D01*
X10079643Y-14953929D01*
X10065357Y-14925357D01*
X10065357Y-14911071D01*
X10079643Y-14882500D01*
X10108214Y-14868214D01*
X10151071Y-14868214D01*
X10179643Y-14882500D01*
X10293928Y-15182500D02*
X10308214Y-15168214D01*
X10336786Y-15125357D01*
X10351071Y-15096786D01*
X10365357Y-15053929D01*
X10379643Y-14982500D01*
X10379643Y-14925357D01*
X10365357Y-14853929D01*
X10351071Y-14811071D01*
X10336786Y-14782500D01*
X10308214Y-14739643D01*
X10293928Y-14725357D01*
X10836786Y-15182500D02*
X10822500Y-15168214D01*
X10793928Y-15125357D01*
X10779643Y-15096786D01*
X10765357Y-15053929D01*
X10751071Y-14982500D01*
X10751071Y-14925357D01*
X10765357Y-14853929D01*
X10779643Y-14811071D01*
X10793928Y-14782500D01*
X10822500Y-14739643D01*
X10836786Y-14725357D01*
X10951071Y-14868214D02*
X10951071Y-15068214D01*
X10951071Y-14896786D02*
X10965357Y-14882500D01*
X10993928Y-14868214D01*
X11036786Y-14868214D01*
X11065357Y-14882500D01*
X11079643Y-14911071D01*
X11079643Y-15068214D01*
X11265357Y-15068214D02*
X11236786Y-15053929D01*
X11222500Y-15039643D01*
X11208214Y-15011071D01*
X11208214Y-14925357D01*
X11222500Y-14896786D01*
X11236786Y-14882500D01*
X11265357Y-14868214D01*
X11308214Y-14868214D01*
X11336786Y-14882500D01*
X11351071Y-14896786D01*
X11365357Y-14925357D01*
X11365357Y-15011071D01*
X11351071Y-15039643D01*
X11336786Y-15053929D01*
X11308214Y-15068214D01*
X11265357Y-15068214D01*
X11451071Y-14868214D02*
X11565357Y-14868214D01*
X11493928Y-14768214D02*
X11493928Y-15025357D01*
X11508214Y-15053929D01*
X11536786Y-15068214D01*
X11565357Y-15068214D01*
X11893928Y-14868214D02*
X11893928Y-15168214D01*
X11893928Y-14882500D02*
X11922500Y-14868214D01*
X11979643Y-14868214D01*
X12008214Y-14882500D01*
X12022500Y-14896786D01*
X12036786Y-14925357D01*
X12036786Y-15011071D01*
X12022500Y-15039643D01*
X12008214Y-15053929D01*
X11979643Y-15068214D01*
X11922500Y-15068214D01*
X11893928Y-15053929D01*
X12208214Y-15068214D02*
X12179643Y-15053929D01*
X12165357Y-15025357D01*
X12165357Y-14768214D01*
X12451071Y-15068214D02*
X12451071Y-14911071D01*
X12436786Y-14882500D01*
X12408214Y-14868214D01*
X12351071Y-14868214D01*
X12322500Y-14882500D01*
X12451071Y-15053929D02*
X12422500Y-15068214D01*
X12351071Y-15068214D01*
X12322500Y-15053929D01*
X12308214Y-15025357D01*
X12308214Y-14996786D01*
X12322500Y-14968214D01*
X12351071Y-14953929D01*
X12422500Y-14953929D01*
X12451071Y-14939643D01*
X12551071Y-14868214D02*
X12665357Y-14868214D01*
X12593928Y-14768214D02*
X12593928Y-15025357D01*
X12608214Y-15053929D01*
X12636786Y-15068214D01*
X12665357Y-15068214D01*
X12879643Y-15053929D02*
X12851071Y-15068214D01*
X12793928Y-15068214D01*
X12765357Y-15053929D01*
X12751071Y-15025357D01*
X12751071Y-14911071D01*
X12765357Y-14882500D01*
X12793928Y-14868214D01*
X12851071Y-14868214D01*
X12879643Y-14882500D01*
X12893928Y-14911071D01*
X12893928Y-14939643D01*
X12751071Y-14968214D01*
X13151071Y-15068214D02*
X13151071Y-14768214D01*
X13151071Y-15053929D02*
X13122500Y-15068214D01*
X13065357Y-15068214D01*
X13036786Y-15053929D01*
X13022500Y-15039643D01*
X13008214Y-15011071D01*
X13008214Y-14925357D01*
X13022500Y-14896786D01*
X13036786Y-14882500D01*
X13065357Y-14868214D01*
X13122500Y-14868214D01*
X13151071Y-14882500D01*
X13265357Y-15182500D02*
X13279643Y-15168214D01*
X13308214Y-15125357D01*
X13322500Y-15096786D01*
X13336786Y-15053929D01*
X13351071Y-14982500D01*
X13351071Y-14925357D01*
X13336786Y-14853929D01*
X13322500Y-14811071D01*
X13308214Y-14782500D01*
X13279643Y-14739643D01*
X13265357Y-14725357D01*
M02*
