%FSLAX45Y45*%
G04 Gerber Fmt 4.5, Leading zero omitted, Abs format (unit mm)*
G04 Created by KiCad (PCBNEW (5.1.5)-3) date 2022-04-14 12:46:40*
%MOMM*%
%LPD*%
G04 APERTURE LIST*
%TA.AperFunction,Profile*%
%ADD10C,0.050000*%
%TD*%
%ADD11C,0.200000*%
%ADD12C,0.300000*%
G04 APERTURE END LIST*
D10*
X13589000Y-13843000D02*
G75*
G02X13462000Y-13970000I-127000J0D01*
G01*
X3937000Y-13970000D02*
G75*
G02X3810000Y-13843000I0J127000D01*
G01*
X3810000Y-4318000D02*
G75*
G02X3937000Y-4191000I127000J0D01*
G01*
X13462000Y-4191000D02*
G75*
G02X13589000Y-4318000I0J-127000D01*
G01*
X3810000Y-4318000D02*
X3810000Y-13843000D01*
X13462000Y-4191000D02*
X3937000Y-4191000D01*
X13589000Y-13843000D02*
X13589000Y-4318000D01*
X3937000Y-13970000D02*
X13462000Y-13970000D01*
D11*
X4196400Y-11003600D02*
X4236400Y-11043600D01*
X4236400Y-11003600D02*
X4196400Y-11043600D01*
X5110800Y-11359200D02*
X5150800Y-11399200D01*
X5150800Y-11359200D02*
X5110800Y-11399200D01*
X5263200Y-10597200D02*
X5303200Y-10637200D01*
X5303200Y-10597200D02*
X5263200Y-10637200D01*
X6533200Y-9581200D02*
X6573200Y-9621200D01*
X6573200Y-9581200D02*
X6533200Y-9621200D01*
X6533200Y-10292400D02*
X6573200Y-10332400D01*
X6573200Y-10292400D02*
X6533200Y-10332400D01*
X7193600Y-9428800D02*
X7233600Y-9468800D01*
X7233600Y-9428800D02*
X7193600Y-9468800D01*
X7193600Y-9581200D02*
X7233600Y-9621200D01*
X7233600Y-9581200D02*
X7193600Y-9621200D01*
X7193600Y-11714800D02*
X7233600Y-11754800D01*
X7233600Y-11714800D02*
X7193600Y-11754800D01*
X7346000Y-7600000D02*
X7386000Y-7640000D01*
X7386000Y-7600000D02*
X7346000Y-7640000D01*
X7346000Y-10292400D02*
X7386000Y-10332400D01*
X7386000Y-10292400D02*
X7346000Y-10332400D01*
X7396800Y-8920800D02*
X7436800Y-8960800D01*
X7436800Y-8920800D02*
X7396800Y-8960800D01*
X7396800Y-9784400D02*
X7436800Y-9824400D01*
X7436800Y-9784400D02*
X7396800Y-9824400D01*
X7396800Y-10597200D02*
X7436800Y-10637200D01*
X7436800Y-10597200D02*
X7396800Y-10637200D01*
X7447600Y-12375200D02*
X7487600Y-12415200D01*
X7487600Y-12375200D02*
X7447600Y-12415200D01*
X7520100Y-10089200D02*
X7560100Y-10129200D01*
X7560100Y-10089200D02*
X7520100Y-10129200D01*
X7549200Y-10444800D02*
X7589200Y-10484800D01*
X7589200Y-10444800D02*
X7549200Y-10484800D01*
X7549200Y-10800400D02*
X7589200Y-10840400D01*
X7589200Y-10800400D02*
X7549200Y-10840400D01*
X7752400Y-6076000D02*
X7792400Y-6116000D01*
X7792400Y-6076000D02*
X7752400Y-6116000D01*
X7854000Y-10140000D02*
X7894000Y-10180000D01*
X7894000Y-10140000D02*
X7854000Y-10180000D01*
X7904800Y-11562400D02*
X7944800Y-11602400D01*
X7944800Y-11562400D02*
X7904800Y-11602400D01*
X8006400Y-11765600D02*
X8046400Y-11805600D01*
X8046400Y-11765600D02*
X8006400Y-11805600D01*
X8666800Y-12476800D02*
X8706800Y-12516800D01*
X8706800Y-12476800D02*
X8666800Y-12516800D01*
X8717600Y-6025200D02*
X8757600Y-6065200D01*
X8757600Y-6025200D02*
X8717600Y-6065200D01*
X8717600Y-11359200D02*
X8757600Y-11399200D01*
X8757600Y-11359200D02*
X8717600Y-11399200D01*
X8819200Y-11816400D02*
X8859200Y-11856400D01*
X8859200Y-11816400D02*
X8819200Y-11856400D01*
X8819200Y-11968800D02*
X8859200Y-12008800D01*
X8859200Y-11968800D02*
X8819200Y-12008800D01*
X8920800Y-12934000D02*
X8960800Y-12974000D01*
X8960800Y-12934000D02*
X8920800Y-12974000D01*
X8969739Y-10294261D02*
X9009739Y-10334261D01*
X9009739Y-10294261D02*
X8969739Y-10334261D01*
X8970204Y-10192196D02*
X9010204Y-10232196D01*
X9010204Y-10192196D02*
X8970204Y-10232196D01*
X8970669Y-10090131D02*
X9010669Y-10130131D01*
X9010669Y-10090131D02*
X8970669Y-10130131D01*
X8971135Y-9988065D02*
X9011135Y-10028065D01*
X9011135Y-9988065D02*
X8971135Y-10028065D01*
X9073200Y-11511600D02*
X9113200Y-11551600D01*
X9113200Y-11511600D02*
X9073200Y-11551600D01*
X9073200Y-12070400D02*
X9113200Y-12110400D01*
X9113200Y-12070400D02*
X9073200Y-12110400D01*
X9073200Y-12629200D02*
X9113200Y-12669200D01*
X9113200Y-12629200D02*
X9073200Y-12669200D01*
X9327200Y-11511600D02*
X9367200Y-11551600D01*
X9367200Y-11511600D02*
X9327200Y-11551600D01*
X9327200Y-12070400D02*
X9367200Y-12110400D01*
X9367200Y-12070400D02*
X9327200Y-12110400D01*
X9327200Y-12629200D02*
X9367200Y-12669200D01*
X9367200Y-12629200D02*
X9327200Y-12669200D01*
X9581200Y-11511600D02*
X9621200Y-11551600D01*
X9621200Y-11511600D02*
X9581200Y-11551600D01*
X9581200Y-12070400D02*
X9621200Y-12110400D01*
X9621200Y-12070400D02*
X9581200Y-12110400D01*
X9581200Y-12629200D02*
X9621200Y-12669200D01*
X9621200Y-12629200D02*
X9581200Y-12669200D01*
X9682500Y-8666800D02*
X9722500Y-8706800D01*
X9722500Y-8666800D02*
X9682500Y-8706800D01*
X9784400Y-9124000D02*
X9824400Y-9164000D01*
X9824400Y-9124000D02*
X9784400Y-9164000D01*
X9835200Y-9428800D02*
X9875200Y-9468800D01*
X9875200Y-9428800D02*
X9835200Y-9468800D01*
X9835200Y-11511600D02*
X9875200Y-11551600D01*
X9875200Y-11511600D02*
X9835200Y-11551600D01*
X9835200Y-12070400D02*
X9875200Y-12110400D01*
X9875200Y-12070400D02*
X9835200Y-12110400D01*
X9835200Y-12629200D02*
X9875200Y-12669200D01*
X9875200Y-12629200D02*
X9835200Y-12669200D01*
X9855111Y-9053289D02*
X9895111Y-9093289D01*
X9895111Y-9053289D02*
X9855111Y-9093289D01*
X10038400Y-11816400D02*
X10078400Y-11856400D01*
X10078400Y-11816400D02*
X10038400Y-11856400D01*
X10038400Y-11968800D02*
X10078400Y-12008800D01*
X10078400Y-11968800D02*
X10038400Y-12008800D01*
X10597200Y-10292400D02*
X10637200Y-10332400D01*
X10637200Y-10292400D02*
X10597200Y-10332400D01*
X10648000Y-11410000D02*
X10688000Y-11450000D01*
X10688000Y-11410000D02*
X10648000Y-11450000D01*
X10871450Y-10576950D02*
X10911450Y-10616950D01*
X10911450Y-10576950D02*
X10871450Y-10616950D01*
X10952800Y-9835200D02*
X10992800Y-9875200D01*
X10992800Y-9835200D02*
X10952800Y-9875200D01*
X12172000Y-11460800D02*
X12212000Y-11500800D01*
X12212000Y-11460800D02*
X12172000Y-11500800D01*
X6791400Y-9347200D02*
G75*
G03X6791400Y-9347200I-35000J0D01*
G01*
X6791400Y-9537200D02*
G75*
G03X6791400Y-9537200I-35000J0D01*
G01*
X6435800Y-11023600D02*
G75*
G03X6435800Y-11023600I-35000J0D01*
G01*
X6689800Y-10769600D02*
G75*
G03X6689800Y-10769600I-35000J0D01*
G01*
X6943800Y-11023600D02*
G75*
G03X6943800Y-11023600I-35000J0D01*
G01*
X9991800Y-6160000D02*
G75*
G03X9991800Y-6160000I-35000J0D01*
G01*
X9991800Y-6350000D02*
G75*
G03X9991800Y-6350000I-35000J0D01*
G01*
X7756600Y-9360400D02*
G75*
G03X7756600Y-9360400I-35000J0D01*
G01*
X7756600Y-9550400D02*
G75*
G03X7756600Y-9550400I-35000J0D01*
G01*
X9255200Y-6160000D02*
G75*
G03X9255200Y-6160000I-35000J0D01*
G01*
X9255200Y-6350000D02*
G75*
G03X9255200Y-6350000I-35000J0D01*
G01*
X8544000Y-6172200D02*
G75*
G03X8544000Y-6172200I-35000J0D01*
G01*
X8544000Y-6362200D02*
G75*
G03X8544000Y-6362200I-35000J0D01*
G01*
X4518100Y-10350500D02*
G75*
G03X4518100Y-10350500I-35000J0D01*
G01*
X4772100Y-10096500D02*
G75*
G03X4772100Y-10096500I-35000J0D01*
G01*
X4772100Y-10604500D02*
G75*
G03X4772100Y-10604500I-35000J0D01*
G01*
X8005000Y-6945000D02*
X8005000Y-7025000D01*
X7965000Y-6985000D02*
X8045000Y-6985000D01*
X8255000Y-6945000D02*
X8255000Y-7025000D01*
X8215000Y-6985000D02*
X8295000Y-6985000D01*
X10363200Y-10331200D02*
X10363200Y-10411200D01*
X10323200Y-10371200D02*
X10403200Y-10371200D01*
X10363200Y-10831200D02*
X10363200Y-10911200D01*
X10323200Y-10871200D02*
X10403200Y-10871200D01*
X7721600Y-11288400D02*
X7721600Y-11368400D01*
X7681600Y-11328400D02*
X7761600Y-11328400D01*
X8221600Y-11288400D02*
X8221600Y-11368400D01*
X8181600Y-11328400D02*
X8261600Y-11328400D01*
X9525000Y-6945000D02*
X9525000Y-7025000D01*
X9485000Y-6985000D02*
X9565000Y-6985000D01*
X9775000Y-6945000D02*
X9775000Y-7025000D01*
X9735000Y-6985000D02*
X9815000Y-6985000D01*
X8763000Y-6945000D02*
X8763000Y-7025000D01*
X8723000Y-6985000D02*
X8803000Y-6985000D01*
X9013000Y-6945000D02*
X9013000Y-7025000D01*
X8973000Y-6985000D02*
X9053000Y-6985000D01*
X7061200Y-8494400D02*
X7061200Y-8574400D01*
X7021200Y-8534400D02*
X7101200Y-8534400D01*
X7061200Y-9256400D02*
X7061200Y-9336400D01*
X7021200Y-9296400D02*
X7101200Y-9296400D01*
X7909356Y-8112556D02*
X7909356Y-8041844D01*
X7838644Y-8041844D01*
X7838644Y-8112556D01*
X7909356Y-8112556D01*
X7909356Y-8366556D02*
X7909356Y-8295844D01*
X7838644Y-8295844D01*
X7838644Y-8366556D01*
X7909356Y-8366556D01*
X7909356Y-8620556D02*
X7909356Y-8549844D01*
X7838644Y-8549844D01*
X7838644Y-8620556D01*
X7909356Y-8620556D01*
X7972856Y-5559856D02*
X7972856Y-5489144D01*
X7902144Y-5489144D01*
X7902144Y-5559856D01*
X7972856Y-5559856D01*
X7972856Y-5813856D02*
X7972856Y-5743144D01*
X7902144Y-5743144D01*
X7902144Y-5813856D01*
X7972856Y-5813856D01*
X8226856Y-5559856D02*
X8226856Y-5489144D01*
X8156144Y-5489144D01*
X8156144Y-5559856D01*
X8226856Y-5559856D01*
X8226856Y-5813856D02*
X8226856Y-5743144D01*
X8156144Y-5743144D01*
X8156144Y-5813856D01*
X8226856Y-5813856D01*
X8480856Y-5559856D02*
X8480856Y-5489144D01*
X8410144Y-5489144D01*
X8410144Y-5559856D01*
X8480856Y-5559856D01*
X8480856Y-5813856D02*
X8480856Y-5743144D01*
X8410144Y-5743144D01*
X8410144Y-5813856D01*
X8480856Y-5813856D01*
X8734856Y-5559856D02*
X8734856Y-5489144D01*
X8664144Y-5489144D01*
X8664144Y-5559856D01*
X8734856Y-5559856D01*
X8734856Y-5813856D02*
X8734856Y-5743144D01*
X8664144Y-5743144D01*
X8664144Y-5813856D01*
X8734856Y-5813856D01*
X8988856Y-5559856D02*
X8988856Y-5489144D01*
X8918144Y-5489144D01*
X8918144Y-5559856D01*
X8988856Y-5559856D01*
X8988856Y-5813856D02*
X8988856Y-5743144D01*
X8918144Y-5743144D01*
X8918144Y-5813856D01*
X8988856Y-5813856D01*
X9242856Y-5559856D02*
X9242856Y-5489144D01*
X9172144Y-5489144D01*
X9172144Y-5559856D01*
X9242856Y-5559856D01*
X9242856Y-5813856D02*
X9242856Y-5743144D01*
X9172144Y-5743144D01*
X9172144Y-5813856D01*
X9242856Y-5813856D01*
X9496856Y-5559856D02*
X9496856Y-5489144D01*
X9426144Y-5489144D01*
X9426144Y-5559856D01*
X9496856Y-5559856D01*
X9496856Y-5813856D02*
X9496856Y-5743144D01*
X9426144Y-5743144D01*
X9426144Y-5813856D01*
X9496856Y-5813856D01*
X9750856Y-5559856D02*
X9750856Y-5489144D01*
X9680144Y-5489144D01*
X9680144Y-5559856D01*
X9750856Y-5559856D01*
X9750856Y-5813856D02*
X9750856Y-5743144D01*
X9680144Y-5743144D01*
X9680144Y-5813856D01*
X9750856Y-5813856D01*
X8569756Y-9484156D02*
X8569756Y-9413444D01*
X8499044Y-9413444D01*
X8499044Y-9484156D01*
X8569756Y-9484156D01*
X8569756Y-9738156D02*
X8569756Y-9667444D01*
X8499044Y-9667444D01*
X8499044Y-9738156D01*
X8569756Y-9738156D01*
X8569756Y-9992156D02*
X8569756Y-9921444D01*
X8499044Y-9921444D01*
X8499044Y-9992156D01*
X8569756Y-9992156D01*
X8569756Y-10246156D02*
X8569756Y-10175444D01*
X8499044Y-10175444D01*
X8499044Y-10246156D01*
X8569756Y-10246156D01*
X8569756Y-10500156D02*
X8569756Y-10429444D01*
X8499044Y-10429444D01*
X8499044Y-10500156D01*
X8569756Y-10500156D01*
X8569756Y-10754156D02*
X8569756Y-10683444D01*
X8499044Y-10683444D01*
X8499044Y-10754156D01*
X8569756Y-10754156D01*
X8823756Y-9484156D02*
X8823756Y-9413444D01*
X8753044Y-9413444D01*
X8753044Y-9484156D01*
X8823756Y-9484156D01*
X8823756Y-9738156D02*
X8823756Y-9667444D01*
X8753044Y-9667444D01*
X8753044Y-9738156D01*
X8823756Y-9738156D01*
X8823756Y-9992156D02*
X8823756Y-9921444D01*
X8753044Y-9921444D01*
X8753044Y-9992156D01*
X8823756Y-9992156D01*
X8823756Y-10246156D02*
X8823756Y-10175444D01*
X8753044Y-10175444D01*
X8753044Y-10246156D01*
X8823756Y-10246156D01*
X8823756Y-10500156D02*
X8823756Y-10429444D01*
X8753044Y-10429444D01*
X8753044Y-10500156D01*
X8823756Y-10500156D01*
X8823756Y-10754156D02*
X8823756Y-10683444D01*
X8753044Y-10683444D01*
X8753044Y-10754156D01*
X8823756Y-10754156D01*
X6994956Y-5572556D02*
X6994956Y-5501844D01*
X6924244Y-5501844D01*
X6924244Y-5572556D01*
X6994956Y-5572556D01*
X6994956Y-5826556D02*
X6994956Y-5755844D01*
X6924244Y-5755844D01*
X6924244Y-5826556D01*
X6994956Y-5826556D01*
X9296400Y-8843400D02*
X9351400Y-8788400D01*
X9296400Y-8733400D01*
X9241400Y-8788400D01*
X9296400Y-8843400D01*
X10312400Y-8843400D02*
X10367400Y-8788400D01*
X10312400Y-8733400D01*
X10257400Y-8788400D01*
X10312400Y-8843400D01*
X5323800Y-13274000D02*
X5445800Y-13396000D01*
X5445800Y-13274000D02*
X5323800Y-13396000D01*
X5445800Y-13335000D02*
G75*
G03X5445800Y-13335000I-61000J0D01*
G01*
X11673800Y-13248600D02*
X11795800Y-13370600D01*
X11795800Y-13248600D02*
X11673800Y-13370600D01*
X11795800Y-13309600D02*
G75*
G03X11795800Y-13309600I-61000J0D01*
G01*
X5313800Y-12954000D02*
X5455800Y-13096000D01*
X5455800Y-12954000D02*
X5313800Y-13096000D01*
X5384800Y-12954000D02*
X5384800Y-13096000D01*
X5313800Y-13025000D02*
X5455800Y-13025000D01*
X11663800Y-12928600D02*
X11805800Y-13070600D01*
X11805800Y-12928600D02*
X11663800Y-13070600D01*
X11734800Y-12928600D02*
X11734800Y-13070600D01*
X11663800Y-12999600D02*
X11805800Y-12999600D01*
X5313300Y-12123500D02*
X5456300Y-12266500D01*
X5456300Y-12123500D02*
X5313300Y-12266500D01*
X5435359Y-12245559D02*
X5435359Y-12144441D01*
X5334241Y-12144441D01*
X5334241Y-12245559D01*
X5435359Y-12245559D01*
X11663300Y-12098100D02*
X11806300Y-12241100D01*
X11806300Y-12098100D02*
X11663300Y-12241100D01*
X11785359Y-12220159D02*
X11785359Y-12119041D01*
X11684241Y-12119041D01*
X11684241Y-12220159D01*
X11785359Y-12220159D01*
D12*
X4093928Y-14438214D02*
X4093928Y-14138214D01*
X4165357Y-14138214D01*
X4208214Y-14152500D01*
X4236786Y-14181071D01*
X4251071Y-14209643D01*
X4265357Y-14266786D01*
X4265357Y-14309643D01*
X4251071Y-14366786D01*
X4236786Y-14395357D01*
X4208214Y-14423929D01*
X4165357Y-14438214D01*
X4093928Y-14438214D01*
X4393928Y-14438214D02*
X4393928Y-14238214D01*
X4393928Y-14295357D02*
X4408214Y-14266786D01*
X4422500Y-14252500D01*
X4451071Y-14238214D01*
X4479643Y-14238214D01*
X4579643Y-14438214D02*
X4579643Y-14238214D01*
X4579643Y-14138214D02*
X4565357Y-14152500D01*
X4579643Y-14166786D01*
X4593928Y-14152500D01*
X4579643Y-14138214D01*
X4579643Y-14166786D01*
X4765357Y-14438214D02*
X4736786Y-14423929D01*
X4722500Y-14395357D01*
X4722500Y-14138214D01*
X4922500Y-14438214D02*
X4893928Y-14423929D01*
X4879643Y-14395357D01*
X4879643Y-14138214D01*
X5265357Y-14438214D02*
X5265357Y-14138214D01*
X5365357Y-14352500D01*
X5465357Y-14138214D01*
X5465357Y-14438214D01*
X5736786Y-14438214D02*
X5736786Y-14281071D01*
X5722500Y-14252500D01*
X5693928Y-14238214D01*
X5636786Y-14238214D01*
X5608214Y-14252500D01*
X5736786Y-14423929D02*
X5708214Y-14438214D01*
X5636786Y-14438214D01*
X5608214Y-14423929D01*
X5593928Y-14395357D01*
X5593928Y-14366786D01*
X5608214Y-14338214D01*
X5636786Y-14323929D01*
X5708214Y-14323929D01*
X5736786Y-14309643D01*
X5879643Y-14238214D02*
X5879643Y-14538214D01*
X5879643Y-14252500D02*
X5908214Y-14238214D01*
X5965357Y-14238214D01*
X5993928Y-14252500D01*
X6008214Y-14266786D01*
X6022500Y-14295357D01*
X6022500Y-14381071D01*
X6008214Y-14409643D01*
X5993928Y-14423929D01*
X5965357Y-14438214D01*
X5908214Y-14438214D01*
X5879643Y-14423929D01*
X6151071Y-14409643D02*
X6165357Y-14423929D01*
X6151071Y-14438214D01*
X6136786Y-14423929D01*
X6151071Y-14409643D01*
X6151071Y-14438214D01*
X6151071Y-14252500D02*
X6165357Y-14266786D01*
X6151071Y-14281071D01*
X6136786Y-14266786D01*
X6151071Y-14252500D01*
X6151071Y-14281071D01*
X3767500Y-14912500D02*
X3807500Y-14952500D01*
X3807500Y-14912500D02*
X3767500Y-14952500D01*
X4151071Y-14768214D02*
X4179643Y-14768214D01*
X4208214Y-14782500D01*
X4222500Y-14796786D01*
X4236786Y-14825357D01*
X4251071Y-14882500D01*
X4251071Y-14953929D01*
X4236786Y-15011071D01*
X4222500Y-15039643D01*
X4208214Y-15053929D01*
X4179643Y-15068214D01*
X4151071Y-15068214D01*
X4122500Y-15053929D01*
X4108214Y-15039643D01*
X4093928Y-15011071D01*
X4079643Y-14953929D01*
X4079643Y-14882500D01*
X4093928Y-14825357D01*
X4108214Y-14796786D01*
X4122500Y-14782500D01*
X4151071Y-14768214D01*
X4379643Y-15039643D02*
X4393928Y-15053929D01*
X4379643Y-15068214D01*
X4365357Y-15053929D01*
X4379643Y-15039643D01*
X4379643Y-15068214D01*
X4651071Y-14868214D02*
X4651071Y-15068214D01*
X4579643Y-14753929D02*
X4508214Y-14968214D01*
X4693928Y-14968214D01*
X4865357Y-14768214D02*
X4893928Y-14768214D01*
X4922500Y-14782500D01*
X4936786Y-14796786D01*
X4951071Y-14825357D01*
X4965357Y-14882500D01*
X4965357Y-14953929D01*
X4951071Y-15011071D01*
X4936786Y-15039643D01*
X4922500Y-15053929D01*
X4893928Y-15068214D01*
X4865357Y-15068214D01*
X4836786Y-15053929D01*
X4822500Y-15039643D01*
X4808214Y-15011071D01*
X4793928Y-14953929D01*
X4793928Y-14882500D01*
X4808214Y-14825357D01*
X4822500Y-14796786D01*
X4836786Y-14782500D01*
X4865357Y-14768214D01*
X5093928Y-15068214D02*
X5093928Y-14868214D01*
X5093928Y-14896786D02*
X5108214Y-14882500D01*
X5136786Y-14868214D01*
X5179643Y-14868214D01*
X5208214Y-14882500D01*
X5222500Y-14911071D01*
X5222500Y-15068214D01*
X5222500Y-14911071D02*
X5236786Y-14882500D01*
X5265357Y-14868214D01*
X5308214Y-14868214D01*
X5336786Y-14882500D01*
X5351071Y-14911071D01*
X5351071Y-15068214D01*
X5493928Y-15068214D02*
X5493928Y-14868214D01*
X5493928Y-14896786D02*
X5508214Y-14882500D01*
X5536786Y-14868214D01*
X5579643Y-14868214D01*
X5608214Y-14882500D01*
X5622500Y-14911071D01*
X5622500Y-15068214D01*
X5622500Y-14911071D02*
X5636786Y-14882500D01*
X5665357Y-14868214D01*
X5708214Y-14868214D01*
X5736786Y-14882500D01*
X5751071Y-14911071D01*
X5751071Y-15068214D01*
X6336786Y-14753929D02*
X6079643Y-15139643D01*
X6722500Y-14768214D02*
X6751071Y-14768214D01*
X6779643Y-14782500D01*
X6793928Y-14796786D01*
X6808214Y-14825357D01*
X6822500Y-14882500D01*
X6822500Y-14953929D01*
X6808214Y-15011071D01*
X6793928Y-15039643D01*
X6779643Y-15053929D01*
X6751071Y-15068214D01*
X6722500Y-15068214D01*
X6693928Y-15053929D01*
X6679643Y-15039643D01*
X6665357Y-15011071D01*
X6651071Y-14953929D01*
X6651071Y-14882500D01*
X6665357Y-14825357D01*
X6679643Y-14796786D01*
X6693928Y-14782500D01*
X6722500Y-14768214D01*
X6951071Y-15039643D02*
X6965357Y-15053929D01*
X6951071Y-15068214D01*
X6936786Y-15053929D01*
X6951071Y-15039643D01*
X6951071Y-15068214D01*
X7151071Y-14768214D02*
X7179643Y-14768214D01*
X7208214Y-14782500D01*
X7222500Y-14796786D01*
X7236786Y-14825357D01*
X7251071Y-14882500D01*
X7251071Y-14953929D01*
X7236786Y-15011071D01*
X7222500Y-15039643D01*
X7208214Y-15053929D01*
X7179643Y-15068214D01*
X7151071Y-15068214D01*
X7122500Y-15053929D01*
X7108214Y-15039643D01*
X7093928Y-15011071D01*
X7079643Y-14953929D01*
X7079643Y-14882500D01*
X7093928Y-14825357D01*
X7108214Y-14796786D01*
X7122500Y-14782500D01*
X7151071Y-14768214D01*
X7536786Y-15068214D02*
X7365357Y-15068214D01*
X7451071Y-15068214D02*
X7451071Y-14768214D01*
X7422500Y-14811071D01*
X7393928Y-14839643D01*
X7365357Y-14853929D01*
X7793928Y-14768214D02*
X7736786Y-14768214D01*
X7708214Y-14782500D01*
X7693928Y-14796786D01*
X7665357Y-14839643D01*
X7651071Y-14896786D01*
X7651071Y-15011071D01*
X7665357Y-15039643D01*
X7679643Y-15053929D01*
X7708214Y-15068214D01*
X7765357Y-15068214D01*
X7793928Y-15053929D01*
X7808214Y-15039643D01*
X7822500Y-15011071D01*
X7822500Y-14939643D01*
X7808214Y-14911071D01*
X7793928Y-14896786D01*
X7765357Y-14882500D01*
X7708214Y-14882500D01*
X7679643Y-14896786D01*
X7665357Y-14911071D01*
X7651071Y-14939643D01*
X7936786Y-14768214D02*
X7936786Y-14825357D01*
X8051071Y-14768214D02*
X8051071Y-14825357D01*
X8493928Y-15182500D02*
X8479643Y-15168214D01*
X8451071Y-15125357D01*
X8436786Y-15096786D01*
X8422500Y-15053929D01*
X8408214Y-14982500D01*
X8408214Y-14925357D01*
X8422500Y-14853929D01*
X8436786Y-14811071D01*
X8451071Y-14782500D01*
X8479643Y-14739643D01*
X8493928Y-14725357D01*
X8751071Y-14768214D02*
X8608214Y-14768214D01*
X8593928Y-14911071D01*
X8608214Y-14896786D01*
X8636786Y-14882500D01*
X8708214Y-14882500D01*
X8736786Y-14896786D01*
X8751071Y-14911071D01*
X8765357Y-14939643D01*
X8765357Y-15011071D01*
X8751071Y-15039643D01*
X8736786Y-15053929D01*
X8708214Y-15068214D01*
X8636786Y-15068214D01*
X8608214Y-15053929D01*
X8593928Y-15039643D01*
X9022500Y-14868214D02*
X9022500Y-15068214D01*
X8951071Y-14753929D02*
X8879643Y-14968214D01*
X9065357Y-14968214D01*
X9408214Y-15068214D02*
X9408214Y-14768214D01*
X9536786Y-15068214D02*
X9536786Y-14911071D01*
X9522500Y-14882500D01*
X9493928Y-14868214D01*
X9451071Y-14868214D01*
X9422500Y-14882500D01*
X9408214Y-14896786D01*
X9722500Y-15068214D02*
X9693928Y-15053929D01*
X9679643Y-15039643D01*
X9665357Y-15011071D01*
X9665357Y-14925357D01*
X9679643Y-14896786D01*
X9693928Y-14882500D01*
X9722500Y-14868214D01*
X9765357Y-14868214D01*
X9793928Y-14882500D01*
X9808214Y-14896786D01*
X9822500Y-14925357D01*
X9822500Y-15011071D01*
X9808214Y-15039643D01*
X9793928Y-15053929D01*
X9765357Y-15068214D01*
X9722500Y-15068214D01*
X9993928Y-15068214D02*
X9965357Y-15053929D01*
X9951071Y-15025357D01*
X9951071Y-14768214D01*
X10222500Y-15053929D02*
X10193928Y-15068214D01*
X10136786Y-15068214D01*
X10108214Y-15053929D01*
X10093928Y-15025357D01*
X10093928Y-14911071D01*
X10108214Y-14882500D01*
X10136786Y-14868214D01*
X10193928Y-14868214D01*
X10222500Y-14882500D01*
X10236786Y-14911071D01*
X10236786Y-14939643D01*
X10093928Y-14968214D01*
X10351071Y-15053929D02*
X10379643Y-15068214D01*
X10436786Y-15068214D01*
X10465357Y-15053929D01*
X10479643Y-15025357D01*
X10479643Y-15011071D01*
X10465357Y-14982500D01*
X10436786Y-14968214D01*
X10393928Y-14968214D01*
X10365357Y-14953929D01*
X10351071Y-14925357D01*
X10351071Y-14911071D01*
X10365357Y-14882500D01*
X10393928Y-14868214D01*
X10436786Y-14868214D01*
X10465357Y-14882500D01*
X10579643Y-15182500D02*
X10593928Y-15168214D01*
X10622500Y-15125357D01*
X10636786Y-15096786D01*
X10651071Y-15053929D01*
X10665357Y-14982500D01*
X10665357Y-14925357D01*
X10651071Y-14853929D01*
X10636786Y-14811071D01*
X10622500Y-14782500D01*
X10593928Y-14739643D01*
X10579643Y-14725357D01*
X3807500Y-15328500D02*
G75*
G03X3807500Y-15328500I-35000J0D01*
G01*
X4151071Y-15164214D02*
X4179643Y-15164214D01*
X4208214Y-15178500D01*
X4222500Y-15192786D01*
X4236786Y-15221357D01*
X4251071Y-15278500D01*
X4251071Y-15349929D01*
X4236786Y-15407071D01*
X4222500Y-15435643D01*
X4208214Y-15449929D01*
X4179643Y-15464214D01*
X4151071Y-15464214D01*
X4122500Y-15449929D01*
X4108214Y-15435643D01*
X4093928Y-15407071D01*
X4079643Y-15349929D01*
X4079643Y-15278500D01*
X4093928Y-15221357D01*
X4108214Y-15192786D01*
X4122500Y-15178500D01*
X4151071Y-15164214D01*
X4379643Y-15435643D02*
X4393928Y-15449929D01*
X4379643Y-15464214D01*
X4365357Y-15449929D01*
X4379643Y-15435643D01*
X4379643Y-15464214D01*
X4493928Y-15164214D02*
X4693928Y-15164214D01*
X4565357Y-15464214D01*
X4865357Y-15164214D02*
X4893928Y-15164214D01*
X4922500Y-15178500D01*
X4936786Y-15192786D01*
X4951071Y-15221357D01*
X4965357Y-15278500D01*
X4965357Y-15349929D01*
X4951071Y-15407071D01*
X4936786Y-15435643D01*
X4922500Y-15449929D01*
X4893928Y-15464214D01*
X4865357Y-15464214D01*
X4836786Y-15449929D01*
X4822500Y-15435643D01*
X4808214Y-15407071D01*
X4793928Y-15349929D01*
X4793928Y-15278500D01*
X4808214Y-15221357D01*
X4822500Y-15192786D01*
X4836786Y-15178500D01*
X4865357Y-15164214D01*
X5093928Y-15464214D02*
X5093928Y-15264214D01*
X5093928Y-15292786D02*
X5108214Y-15278500D01*
X5136786Y-15264214D01*
X5179643Y-15264214D01*
X5208214Y-15278500D01*
X5222500Y-15307071D01*
X5222500Y-15464214D01*
X5222500Y-15307071D02*
X5236786Y-15278500D01*
X5265357Y-15264214D01*
X5308214Y-15264214D01*
X5336786Y-15278500D01*
X5351071Y-15307071D01*
X5351071Y-15464214D01*
X5493928Y-15464214D02*
X5493928Y-15264214D01*
X5493928Y-15292786D02*
X5508214Y-15278500D01*
X5536786Y-15264214D01*
X5579643Y-15264214D01*
X5608214Y-15278500D01*
X5622500Y-15307071D01*
X5622500Y-15464214D01*
X5622500Y-15307071D02*
X5636786Y-15278500D01*
X5665357Y-15264214D01*
X5708214Y-15264214D01*
X5736786Y-15278500D01*
X5751071Y-15307071D01*
X5751071Y-15464214D01*
X6336786Y-15149929D02*
X6079643Y-15535643D01*
X6722500Y-15164214D02*
X6751071Y-15164214D01*
X6779643Y-15178500D01*
X6793928Y-15192786D01*
X6808214Y-15221357D01*
X6822500Y-15278500D01*
X6822500Y-15349929D01*
X6808214Y-15407071D01*
X6793928Y-15435643D01*
X6779643Y-15449929D01*
X6751071Y-15464214D01*
X6722500Y-15464214D01*
X6693928Y-15449929D01*
X6679643Y-15435643D01*
X6665357Y-15407071D01*
X6651071Y-15349929D01*
X6651071Y-15278500D01*
X6665357Y-15221357D01*
X6679643Y-15192786D01*
X6693928Y-15178500D01*
X6722500Y-15164214D01*
X6951071Y-15435643D02*
X6965357Y-15449929D01*
X6951071Y-15464214D01*
X6936786Y-15449929D01*
X6951071Y-15435643D01*
X6951071Y-15464214D01*
X7151071Y-15164214D02*
X7179643Y-15164214D01*
X7208214Y-15178500D01*
X7222500Y-15192786D01*
X7236786Y-15221357D01*
X7251071Y-15278500D01*
X7251071Y-15349929D01*
X7236786Y-15407071D01*
X7222500Y-15435643D01*
X7208214Y-15449929D01*
X7179643Y-15464214D01*
X7151071Y-15464214D01*
X7122500Y-15449929D01*
X7108214Y-15435643D01*
X7093928Y-15407071D01*
X7079643Y-15349929D01*
X7079643Y-15278500D01*
X7093928Y-15221357D01*
X7108214Y-15192786D01*
X7122500Y-15178500D01*
X7151071Y-15164214D01*
X7365357Y-15192786D02*
X7379643Y-15178500D01*
X7408214Y-15164214D01*
X7479643Y-15164214D01*
X7508214Y-15178500D01*
X7522500Y-15192786D01*
X7536786Y-15221357D01*
X7536786Y-15249929D01*
X7522500Y-15292786D01*
X7351071Y-15464214D01*
X7536786Y-15464214D01*
X7708214Y-15292786D02*
X7679643Y-15278500D01*
X7665357Y-15264214D01*
X7651071Y-15235643D01*
X7651071Y-15221357D01*
X7665357Y-15192786D01*
X7679643Y-15178500D01*
X7708214Y-15164214D01*
X7765357Y-15164214D01*
X7793928Y-15178500D01*
X7808214Y-15192786D01*
X7822500Y-15221357D01*
X7822500Y-15235643D01*
X7808214Y-15264214D01*
X7793928Y-15278500D01*
X7765357Y-15292786D01*
X7708214Y-15292786D01*
X7679643Y-15307071D01*
X7665357Y-15321357D01*
X7651071Y-15349929D01*
X7651071Y-15407071D01*
X7665357Y-15435643D01*
X7679643Y-15449929D01*
X7708214Y-15464214D01*
X7765357Y-15464214D01*
X7793928Y-15449929D01*
X7808214Y-15435643D01*
X7822500Y-15407071D01*
X7822500Y-15349929D01*
X7808214Y-15321357D01*
X7793928Y-15307071D01*
X7765357Y-15292786D01*
X7936786Y-15164214D02*
X7936786Y-15221357D01*
X8051071Y-15164214D02*
X8051071Y-15221357D01*
X8493928Y-15578500D02*
X8479643Y-15564214D01*
X8451071Y-15521357D01*
X8436786Y-15492786D01*
X8422500Y-15449929D01*
X8408214Y-15378500D01*
X8408214Y-15321357D01*
X8422500Y-15249929D01*
X8436786Y-15207071D01*
X8451071Y-15178500D01*
X8479643Y-15135643D01*
X8493928Y-15121357D01*
X8765357Y-15464214D02*
X8593928Y-15464214D01*
X8679643Y-15464214D02*
X8679643Y-15164214D01*
X8651071Y-15207071D01*
X8622500Y-15235643D01*
X8593928Y-15249929D01*
X9022500Y-15164214D02*
X8965357Y-15164214D01*
X8936786Y-15178500D01*
X8922500Y-15192786D01*
X8893928Y-15235643D01*
X8879643Y-15292786D01*
X8879643Y-15407071D01*
X8893928Y-15435643D01*
X8908214Y-15449929D01*
X8936786Y-15464214D01*
X8993928Y-15464214D01*
X9022500Y-15449929D01*
X9036786Y-15435643D01*
X9051071Y-15407071D01*
X9051071Y-15335643D01*
X9036786Y-15307071D01*
X9022500Y-15292786D01*
X8993928Y-15278500D01*
X8936786Y-15278500D01*
X8908214Y-15292786D01*
X8893928Y-15307071D01*
X8879643Y-15335643D01*
X9408214Y-15464214D02*
X9408214Y-15164214D01*
X9536786Y-15464214D02*
X9536786Y-15307071D01*
X9522500Y-15278500D01*
X9493928Y-15264214D01*
X9451071Y-15264214D01*
X9422500Y-15278500D01*
X9408214Y-15292786D01*
X9722500Y-15464214D02*
X9693928Y-15449929D01*
X9679643Y-15435643D01*
X9665357Y-15407071D01*
X9665357Y-15321357D01*
X9679643Y-15292786D01*
X9693928Y-15278500D01*
X9722500Y-15264214D01*
X9765357Y-15264214D01*
X9793928Y-15278500D01*
X9808214Y-15292786D01*
X9822500Y-15321357D01*
X9822500Y-15407071D01*
X9808214Y-15435643D01*
X9793928Y-15449929D01*
X9765357Y-15464214D01*
X9722500Y-15464214D01*
X9993928Y-15464214D02*
X9965357Y-15449929D01*
X9951071Y-15421357D01*
X9951071Y-15164214D01*
X10222500Y-15449929D02*
X10193928Y-15464214D01*
X10136786Y-15464214D01*
X10108214Y-15449929D01*
X10093928Y-15421357D01*
X10093928Y-15307071D01*
X10108214Y-15278500D01*
X10136786Y-15264214D01*
X10193928Y-15264214D01*
X10222500Y-15278500D01*
X10236786Y-15307071D01*
X10236786Y-15335643D01*
X10093928Y-15364214D01*
X10351071Y-15449929D02*
X10379643Y-15464214D01*
X10436786Y-15464214D01*
X10465357Y-15449929D01*
X10479643Y-15421357D01*
X10479643Y-15407071D01*
X10465357Y-15378500D01*
X10436786Y-15364214D01*
X10393928Y-15364214D01*
X10365357Y-15349929D01*
X10351071Y-15321357D01*
X10351071Y-15307071D01*
X10365357Y-15278500D01*
X10393928Y-15264214D01*
X10436786Y-15264214D01*
X10465357Y-15278500D01*
X10579643Y-15578500D02*
X10593928Y-15564214D01*
X10622500Y-15521357D01*
X10636786Y-15492786D01*
X10651071Y-15449929D01*
X10665357Y-15378500D01*
X10665357Y-15321357D01*
X10651071Y-15249929D01*
X10636786Y-15207071D01*
X10622500Y-15178500D01*
X10593928Y-15135643D01*
X10579643Y-15121357D01*
X3767500Y-15684500D02*
X3767500Y-15764500D01*
X3727500Y-15724500D02*
X3807500Y-15724500D01*
X4151071Y-15560214D02*
X4179643Y-15560214D01*
X4208214Y-15574500D01*
X4222500Y-15588786D01*
X4236786Y-15617357D01*
X4251071Y-15674500D01*
X4251071Y-15745929D01*
X4236786Y-15803071D01*
X4222500Y-15831643D01*
X4208214Y-15845929D01*
X4179643Y-15860214D01*
X4151071Y-15860214D01*
X4122500Y-15845929D01*
X4108214Y-15831643D01*
X4093928Y-15803071D01*
X4079643Y-15745929D01*
X4079643Y-15674500D01*
X4093928Y-15617357D01*
X4108214Y-15588786D01*
X4122500Y-15574500D01*
X4151071Y-15560214D01*
X4379643Y-15831643D02*
X4393928Y-15845929D01*
X4379643Y-15860214D01*
X4365357Y-15845929D01*
X4379643Y-15831643D01*
X4379643Y-15860214D01*
X4565357Y-15688786D02*
X4536786Y-15674500D01*
X4522500Y-15660214D01*
X4508214Y-15631643D01*
X4508214Y-15617357D01*
X4522500Y-15588786D01*
X4536786Y-15574500D01*
X4565357Y-15560214D01*
X4622500Y-15560214D01*
X4651071Y-15574500D01*
X4665357Y-15588786D01*
X4679643Y-15617357D01*
X4679643Y-15631643D01*
X4665357Y-15660214D01*
X4651071Y-15674500D01*
X4622500Y-15688786D01*
X4565357Y-15688786D01*
X4536786Y-15703071D01*
X4522500Y-15717357D01*
X4508214Y-15745929D01*
X4508214Y-15803071D01*
X4522500Y-15831643D01*
X4536786Y-15845929D01*
X4565357Y-15860214D01*
X4622500Y-15860214D01*
X4651071Y-15845929D01*
X4665357Y-15831643D01*
X4679643Y-15803071D01*
X4679643Y-15745929D01*
X4665357Y-15717357D01*
X4651071Y-15703071D01*
X4622500Y-15688786D01*
X4865357Y-15560214D02*
X4893928Y-15560214D01*
X4922500Y-15574500D01*
X4936786Y-15588786D01*
X4951071Y-15617357D01*
X4965357Y-15674500D01*
X4965357Y-15745929D01*
X4951071Y-15803071D01*
X4936786Y-15831643D01*
X4922500Y-15845929D01*
X4893928Y-15860214D01*
X4865357Y-15860214D01*
X4836786Y-15845929D01*
X4822500Y-15831643D01*
X4808214Y-15803071D01*
X4793928Y-15745929D01*
X4793928Y-15674500D01*
X4808214Y-15617357D01*
X4822500Y-15588786D01*
X4836786Y-15574500D01*
X4865357Y-15560214D01*
X5093928Y-15860214D02*
X5093928Y-15660214D01*
X5093928Y-15688786D02*
X5108214Y-15674500D01*
X5136786Y-15660214D01*
X5179643Y-15660214D01*
X5208214Y-15674500D01*
X5222500Y-15703071D01*
X5222500Y-15860214D01*
X5222500Y-15703071D02*
X5236786Y-15674500D01*
X5265357Y-15660214D01*
X5308214Y-15660214D01*
X5336786Y-15674500D01*
X5351071Y-15703071D01*
X5351071Y-15860214D01*
X5493928Y-15860214D02*
X5493928Y-15660214D01*
X5493928Y-15688786D02*
X5508214Y-15674500D01*
X5536786Y-15660214D01*
X5579643Y-15660214D01*
X5608214Y-15674500D01*
X5622500Y-15703071D01*
X5622500Y-15860214D01*
X5622500Y-15703071D02*
X5636786Y-15674500D01*
X5665357Y-15660214D01*
X5708214Y-15660214D01*
X5736786Y-15674500D01*
X5751071Y-15703071D01*
X5751071Y-15860214D01*
X6336786Y-15545929D02*
X6079643Y-15931643D01*
X6722500Y-15560214D02*
X6751071Y-15560214D01*
X6779643Y-15574500D01*
X6793928Y-15588786D01*
X6808214Y-15617357D01*
X6822500Y-15674500D01*
X6822500Y-15745929D01*
X6808214Y-15803071D01*
X6793928Y-15831643D01*
X6779643Y-15845929D01*
X6751071Y-15860214D01*
X6722500Y-15860214D01*
X6693928Y-15845929D01*
X6679643Y-15831643D01*
X6665357Y-15803071D01*
X6651071Y-15745929D01*
X6651071Y-15674500D01*
X6665357Y-15617357D01*
X6679643Y-15588786D01*
X6693928Y-15574500D01*
X6722500Y-15560214D01*
X6951071Y-15831643D02*
X6965357Y-15845929D01*
X6951071Y-15860214D01*
X6936786Y-15845929D01*
X6951071Y-15831643D01*
X6951071Y-15860214D01*
X7151071Y-15560214D02*
X7179643Y-15560214D01*
X7208214Y-15574500D01*
X7222500Y-15588786D01*
X7236786Y-15617357D01*
X7251071Y-15674500D01*
X7251071Y-15745929D01*
X7236786Y-15803071D01*
X7222500Y-15831643D01*
X7208214Y-15845929D01*
X7179643Y-15860214D01*
X7151071Y-15860214D01*
X7122500Y-15845929D01*
X7108214Y-15831643D01*
X7093928Y-15803071D01*
X7079643Y-15745929D01*
X7079643Y-15674500D01*
X7093928Y-15617357D01*
X7108214Y-15588786D01*
X7122500Y-15574500D01*
X7151071Y-15560214D01*
X7351071Y-15560214D02*
X7536786Y-15560214D01*
X7436786Y-15674500D01*
X7479643Y-15674500D01*
X7508214Y-15688786D01*
X7522500Y-15703071D01*
X7536786Y-15731643D01*
X7536786Y-15803071D01*
X7522500Y-15831643D01*
X7508214Y-15845929D01*
X7479643Y-15860214D01*
X7393928Y-15860214D01*
X7365357Y-15845929D01*
X7351071Y-15831643D01*
X7822500Y-15860214D02*
X7651071Y-15860214D01*
X7736786Y-15860214D02*
X7736786Y-15560214D01*
X7708214Y-15603071D01*
X7679643Y-15631643D01*
X7651071Y-15645929D01*
X7936786Y-15560214D02*
X7936786Y-15617357D01*
X8051071Y-15560214D02*
X8051071Y-15617357D01*
X8493928Y-15974500D02*
X8479643Y-15960214D01*
X8451071Y-15917357D01*
X8436786Y-15888786D01*
X8422500Y-15845929D01*
X8408214Y-15774500D01*
X8408214Y-15717357D01*
X8422500Y-15645929D01*
X8436786Y-15603071D01*
X8451071Y-15574500D01*
X8479643Y-15531643D01*
X8493928Y-15517357D01*
X8765357Y-15860214D02*
X8593928Y-15860214D01*
X8679643Y-15860214D02*
X8679643Y-15560214D01*
X8651071Y-15603071D01*
X8622500Y-15631643D01*
X8593928Y-15645929D01*
X8879643Y-15588786D02*
X8893928Y-15574500D01*
X8922500Y-15560214D01*
X8993928Y-15560214D01*
X9022500Y-15574500D01*
X9036786Y-15588786D01*
X9051071Y-15617357D01*
X9051071Y-15645929D01*
X9036786Y-15688786D01*
X8865357Y-15860214D01*
X9051071Y-15860214D01*
X9408214Y-15860214D02*
X9408214Y-15560214D01*
X9536786Y-15860214D02*
X9536786Y-15703071D01*
X9522500Y-15674500D01*
X9493928Y-15660214D01*
X9451071Y-15660214D01*
X9422500Y-15674500D01*
X9408214Y-15688786D01*
X9722500Y-15860214D02*
X9693928Y-15845929D01*
X9679643Y-15831643D01*
X9665357Y-15803071D01*
X9665357Y-15717357D01*
X9679643Y-15688786D01*
X9693928Y-15674500D01*
X9722500Y-15660214D01*
X9765357Y-15660214D01*
X9793928Y-15674500D01*
X9808214Y-15688786D01*
X9822500Y-15717357D01*
X9822500Y-15803071D01*
X9808214Y-15831643D01*
X9793928Y-15845929D01*
X9765357Y-15860214D01*
X9722500Y-15860214D01*
X9993928Y-15860214D02*
X9965357Y-15845929D01*
X9951071Y-15817357D01*
X9951071Y-15560214D01*
X10222500Y-15845929D02*
X10193928Y-15860214D01*
X10136786Y-15860214D01*
X10108214Y-15845929D01*
X10093928Y-15817357D01*
X10093928Y-15703071D01*
X10108214Y-15674500D01*
X10136786Y-15660214D01*
X10193928Y-15660214D01*
X10222500Y-15674500D01*
X10236786Y-15703071D01*
X10236786Y-15731643D01*
X10093928Y-15760214D01*
X10351071Y-15845929D02*
X10379643Y-15860214D01*
X10436786Y-15860214D01*
X10465357Y-15845929D01*
X10479643Y-15817357D01*
X10479643Y-15803071D01*
X10465357Y-15774500D01*
X10436786Y-15760214D01*
X10393928Y-15760214D01*
X10365357Y-15745929D01*
X10351071Y-15717357D01*
X10351071Y-15703071D01*
X10365357Y-15674500D01*
X10393928Y-15660214D01*
X10436786Y-15660214D01*
X10465357Y-15674500D01*
X10579643Y-15974500D02*
X10593928Y-15960214D01*
X10622500Y-15917357D01*
X10636786Y-15888786D01*
X10651071Y-15845929D01*
X10665357Y-15774500D01*
X10665357Y-15717357D01*
X10651071Y-15645929D01*
X10636786Y-15603071D01*
X10622500Y-15574500D01*
X10593928Y-15531643D01*
X10579643Y-15517357D01*
X3792856Y-16155856D02*
X3792856Y-16085144D01*
X3722144Y-16085144D01*
X3722144Y-16155856D01*
X3792856Y-16155856D01*
X4251071Y-16256214D02*
X4079643Y-16256214D01*
X4165357Y-16256214D02*
X4165357Y-15956214D01*
X4136786Y-15999071D01*
X4108214Y-16027643D01*
X4079643Y-16041929D01*
X4379643Y-16227643D02*
X4393928Y-16241929D01*
X4379643Y-16256214D01*
X4365357Y-16241929D01*
X4379643Y-16227643D01*
X4379643Y-16256214D01*
X4579643Y-15956214D02*
X4608214Y-15956214D01*
X4636786Y-15970500D01*
X4651071Y-15984786D01*
X4665357Y-16013357D01*
X4679643Y-16070500D01*
X4679643Y-16141929D01*
X4665357Y-16199071D01*
X4651071Y-16227643D01*
X4636786Y-16241929D01*
X4608214Y-16256214D01*
X4579643Y-16256214D01*
X4551071Y-16241929D01*
X4536786Y-16227643D01*
X4522500Y-16199071D01*
X4508214Y-16141929D01*
X4508214Y-16070500D01*
X4522500Y-16013357D01*
X4536786Y-15984786D01*
X4551071Y-15970500D01*
X4579643Y-15956214D01*
X4865357Y-15956214D02*
X4893928Y-15956214D01*
X4922500Y-15970500D01*
X4936786Y-15984786D01*
X4951071Y-16013357D01*
X4965357Y-16070500D01*
X4965357Y-16141929D01*
X4951071Y-16199071D01*
X4936786Y-16227643D01*
X4922500Y-16241929D01*
X4893928Y-16256214D01*
X4865357Y-16256214D01*
X4836786Y-16241929D01*
X4822500Y-16227643D01*
X4808214Y-16199071D01*
X4793928Y-16141929D01*
X4793928Y-16070500D01*
X4808214Y-16013357D01*
X4822500Y-15984786D01*
X4836786Y-15970500D01*
X4865357Y-15956214D01*
X5093928Y-16256214D02*
X5093928Y-16056214D01*
X5093928Y-16084786D02*
X5108214Y-16070500D01*
X5136786Y-16056214D01*
X5179643Y-16056214D01*
X5208214Y-16070500D01*
X5222500Y-16099071D01*
X5222500Y-16256214D01*
X5222500Y-16099071D02*
X5236786Y-16070500D01*
X5265357Y-16056214D01*
X5308214Y-16056214D01*
X5336786Y-16070500D01*
X5351071Y-16099071D01*
X5351071Y-16256214D01*
X5493928Y-16256214D02*
X5493928Y-16056214D01*
X5493928Y-16084786D02*
X5508214Y-16070500D01*
X5536786Y-16056214D01*
X5579643Y-16056214D01*
X5608214Y-16070500D01*
X5622500Y-16099071D01*
X5622500Y-16256214D01*
X5622500Y-16099071D02*
X5636786Y-16070500D01*
X5665357Y-16056214D01*
X5708214Y-16056214D01*
X5736786Y-16070500D01*
X5751071Y-16099071D01*
X5751071Y-16256214D01*
X6336786Y-15941929D02*
X6079643Y-16327643D01*
X6722500Y-15956214D02*
X6751071Y-15956214D01*
X6779643Y-15970500D01*
X6793928Y-15984786D01*
X6808214Y-16013357D01*
X6822500Y-16070500D01*
X6822500Y-16141929D01*
X6808214Y-16199071D01*
X6793928Y-16227643D01*
X6779643Y-16241929D01*
X6751071Y-16256214D01*
X6722500Y-16256214D01*
X6693928Y-16241929D01*
X6679643Y-16227643D01*
X6665357Y-16199071D01*
X6651071Y-16141929D01*
X6651071Y-16070500D01*
X6665357Y-16013357D01*
X6679643Y-15984786D01*
X6693928Y-15970500D01*
X6722500Y-15956214D01*
X6951071Y-16227643D02*
X6965357Y-16241929D01*
X6951071Y-16256214D01*
X6936786Y-16241929D01*
X6951071Y-16227643D01*
X6951071Y-16256214D01*
X7151071Y-15956214D02*
X7179643Y-15956214D01*
X7208214Y-15970500D01*
X7222500Y-15984786D01*
X7236786Y-16013357D01*
X7251071Y-16070500D01*
X7251071Y-16141929D01*
X7236786Y-16199071D01*
X7222500Y-16227643D01*
X7208214Y-16241929D01*
X7179643Y-16256214D01*
X7151071Y-16256214D01*
X7122500Y-16241929D01*
X7108214Y-16227643D01*
X7093928Y-16199071D01*
X7079643Y-16141929D01*
X7079643Y-16070500D01*
X7093928Y-16013357D01*
X7108214Y-15984786D01*
X7122500Y-15970500D01*
X7151071Y-15956214D01*
X7351071Y-15956214D02*
X7536786Y-15956214D01*
X7436786Y-16070500D01*
X7479643Y-16070500D01*
X7508214Y-16084786D01*
X7522500Y-16099071D01*
X7536786Y-16127643D01*
X7536786Y-16199071D01*
X7522500Y-16227643D01*
X7508214Y-16241929D01*
X7479643Y-16256214D01*
X7393928Y-16256214D01*
X7365357Y-16241929D01*
X7351071Y-16227643D01*
X7679643Y-16256214D02*
X7736786Y-16256214D01*
X7765357Y-16241929D01*
X7779643Y-16227643D01*
X7808214Y-16184786D01*
X7822500Y-16127643D01*
X7822500Y-16013357D01*
X7808214Y-15984786D01*
X7793928Y-15970500D01*
X7765357Y-15956214D01*
X7708214Y-15956214D01*
X7679643Y-15970500D01*
X7665357Y-15984786D01*
X7651071Y-16013357D01*
X7651071Y-16084786D01*
X7665357Y-16113357D01*
X7679643Y-16127643D01*
X7708214Y-16141929D01*
X7765357Y-16141929D01*
X7793928Y-16127643D01*
X7808214Y-16113357D01*
X7822500Y-16084786D01*
X7936786Y-15956214D02*
X7936786Y-16013357D01*
X8051071Y-15956214D02*
X8051071Y-16013357D01*
X8493928Y-16370500D02*
X8479643Y-16356214D01*
X8451071Y-16313357D01*
X8436786Y-16284786D01*
X8422500Y-16241929D01*
X8408214Y-16170500D01*
X8408214Y-16113357D01*
X8422500Y-16041929D01*
X8436786Y-15999071D01*
X8451071Y-15970500D01*
X8479643Y-15927643D01*
X8493928Y-15913357D01*
X8579643Y-15956214D02*
X8765357Y-15956214D01*
X8665357Y-16070500D01*
X8708214Y-16070500D01*
X8736786Y-16084786D01*
X8751071Y-16099071D01*
X8765357Y-16127643D01*
X8765357Y-16199071D01*
X8751071Y-16227643D01*
X8736786Y-16241929D01*
X8708214Y-16256214D01*
X8622500Y-16256214D01*
X8593928Y-16241929D01*
X8579643Y-16227643D01*
X8865357Y-15956214D02*
X9051071Y-15956214D01*
X8951071Y-16070500D01*
X8993928Y-16070500D01*
X9022500Y-16084786D01*
X9036786Y-16099071D01*
X9051071Y-16127643D01*
X9051071Y-16199071D01*
X9036786Y-16227643D01*
X9022500Y-16241929D01*
X8993928Y-16256214D01*
X8908214Y-16256214D01*
X8879643Y-16241929D01*
X8865357Y-16227643D01*
X9408214Y-16256214D02*
X9408214Y-15956214D01*
X9536786Y-16256214D02*
X9536786Y-16099071D01*
X9522500Y-16070500D01*
X9493928Y-16056214D01*
X9451071Y-16056214D01*
X9422500Y-16070500D01*
X9408214Y-16084786D01*
X9722500Y-16256214D02*
X9693928Y-16241929D01*
X9679643Y-16227643D01*
X9665357Y-16199071D01*
X9665357Y-16113357D01*
X9679643Y-16084786D01*
X9693928Y-16070500D01*
X9722500Y-16056214D01*
X9765357Y-16056214D01*
X9793928Y-16070500D01*
X9808214Y-16084786D01*
X9822500Y-16113357D01*
X9822500Y-16199071D01*
X9808214Y-16227643D01*
X9793928Y-16241929D01*
X9765357Y-16256214D01*
X9722500Y-16256214D01*
X9993928Y-16256214D02*
X9965357Y-16241929D01*
X9951071Y-16213357D01*
X9951071Y-15956214D01*
X10222500Y-16241929D02*
X10193928Y-16256214D01*
X10136786Y-16256214D01*
X10108214Y-16241929D01*
X10093928Y-16213357D01*
X10093928Y-16099071D01*
X10108214Y-16070500D01*
X10136786Y-16056214D01*
X10193928Y-16056214D01*
X10222500Y-16070500D01*
X10236786Y-16099071D01*
X10236786Y-16127643D01*
X10093928Y-16156214D01*
X10351071Y-16241929D02*
X10379643Y-16256214D01*
X10436786Y-16256214D01*
X10465357Y-16241929D01*
X10479643Y-16213357D01*
X10479643Y-16199071D01*
X10465357Y-16170500D01*
X10436786Y-16156214D01*
X10393928Y-16156214D01*
X10365357Y-16141929D01*
X10351071Y-16113357D01*
X10351071Y-16099071D01*
X10365357Y-16070500D01*
X10393928Y-16056214D01*
X10436786Y-16056214D01*
X10465357Y-16070500D01*
X10579643Y-16370500D02*
X10593928Y-16356214D01*
X10622500Y-16313357D01*
X10636786Y-16284786D01*
X10651071Y-16241929D01*
X10665357Y-16170500D01*
X10665357Y-16113357D01*
X10651071Y-16041929D01*
X10636786Y-15999071D01*
X10622500Y-15970500D01*
X10593928Y-15927643D01*
X10579643Y-15913357D01*
X3752500Y-16571500D02*
X3807500Y-16516500D01*
X3752500Y-16461500D01*
X3697500Y-16516500D01*
X3752500Y-16571500D01*
X4251071Y-16652214D02*
X4079643Y-16652214D01*
X4165357Y-16652214D02*
X4165357Y-16352214D01*
X4136786Y-16395071D01*
X4108214Y-16423643D01*
X4079643Y-16437929D01*
X4379643Y-16623643D02*
X4393928Y-16637929D01*
X4379643Y-16652214D01*
X4365357Y-16637929D01*
X4379643Y-16623643D01*
X4379643Y-16652214D01*
X4679643Y-16652214D02*
X4508214Y-16652214D01*
X4593928Y-16652214D02*
X4593928Y-16352214D01*
X4565357Y-16395071D01*
X4536786Y-16423643D01*
X4508214Y-16437929D01*
X4865357Y-16352214D02*
X4893928Y-16352214D01*
X4922500Y-16366500D01*
X4936786Y-16380786D01*
X4951071Y-16409357D01*
X4965357Y-16466500D01*
X4965357Y-16537929D01*
X4951071Y-16595071D01*
X4936786Y-16623643D01*
X4922500Y-16637929D01*
X4893928Y-16652214D01*
X4865357Y-16652214D01*
X4836786Y-16637929D01*
X4822500Y-16623643D01*
X4808214Y-16595071D01*
X4793928Y-16537929D01*
X4793928Y-16466500D01*
X4808214Y-16409357D01*
X4822500Y-16380786D01*
X4836786Y-16366500D01*
X4865357Y-16352214D01*
X5093928Y-16652214D02*
X5093928Y-16452214D01*
X5093928Y-16480786D02*
X5108214Y-16466500D01*
X5136786Y-16452214D01*
X5179643Y-16452214D01*
X5208214Y-16466500D01*
X5222500Y-16495071D01*
X5222500Y-16652214D01*
X5222500Y-16495071D02*
X5236786Y-16466500D01*
X5265357Y-16452214D01*
X5308214Y-16452214D01*
X5336786Y-16466500D01*
X5351071Y-16495071D01*
X5351071Y-16652214D01*
X5493928Y-16652214D02*
X5493928Y-16452214D01*
X5493928Y-16480786D02*
X5508214Y-16466500D01*
X5536786Y-16452214D01*
X5579643Y-16452214D01*
X5608214Y-16466500D01*
X5622500Y-16495071D01*
X5622500Y-16652214D01*
X5622500Y-16495071D02*
X5636786Y-16466500D01*
X5665357Y-16452214D01*
X5708214Y-16452214D01*
X5736786Y-16466500D01*
X5751071Y-16495071D01*
X5751071Y-16652214D01*
X6336786Y-16337929D02*
X6079643Y-16723643D01*
X6722500Y-16352214D02*
X6751071Y-16352214D01*
X6779643Y-16366500D01*
X6793928Y-16380786D01*
X6808214Y-16409357D01*
X6822500Y-16466500D01*
X6822500Y-16537929D01*
X6808214Y-16595071D01*
X6793928Y-16623643D01*
X6779643Y-16637929D01*
X6751071Y-16652214D01*
X6722500Y-16652214D01*
X6693928Y-16637929D01*
X6679643Y-16623643D01*
X6665357Y-16595071D01*
X6651071Y-16537929D01*
X6651071Y-16466500D01*
X6665357Y-16409357D01*
X6679643Y-16380786D01*
X6693928Y-16366500D01*
X6722500Y-16352214D01*
X6951071Y-16623643D02*
X6965357Y-16637929D01*
X6951071Y-16652214D01*
X6936786Y-16637929D01*
X6951071Y-16623643D01*
X6951071Y-16652214D01*
X7151071Y-16352214D02*
X7179643Y-16352214D01*
X7208214Y-16366500D01*
X7222500Y-16380786D01*
X7236786Y-16409357D01*
X7251071Y-16466500D01*
X7251071Y-16537929D01*
X7236786Y-16595071D01*
X7222500Y-16623643D01*
X7208214Y-16637929D01*
X7179643Y-16652214D01*
X7151071Y-16652214D01*
X7122500Y-16637929D01*
X7108214Y-16623643D01*
X7093928Y-16595071D01*
X7079643Y-16537929D01*
X7079643Y-16466500D01*
X7093928Y-16409357D01*
X7108214Y-16380786D01*
X7122500Y-16366500D01*
X7151071Y-16352214D01*
X7508214Y-16452214D02*
X7508214Y-16652214D01*
X7436786Y-16337929D02*
X7365357Y-16552214D01*
X7551071Y-16552214D01*
X7636786Y-16352214D02*
X7822500Y-16352214D01*
X7722500Y-16466500D01*
X7765357Y-16466500D01*
X7793928Y-16480786D01*
X7808214Y-16495071D01*
X7822500Y-16523643D01*
X7822500Y-16595071D01*
X7808214Y-16623643D01*
X7793928Y-16637929D01*
X7765357Y-16652214D01*
X7679643Y-16652214D01*
X7651071Y-16637929D01*
X7636786Y-16623643D01*
X7936786Y-16352214D02*
X7936786Y-16409357D01*
X8051071Y-16352214D02*
X8051071Y-16409357D01*
X8493928Y-16766500D02*
X8479643Y-16752214D01*
X8451071Y-16709357D01*
X8436786Y-16680786D01*
X8422500Y-16637929D01*
X8408214Y-16566500D01*
X8408214Y-16509357D01*
X8422500Y-16437929D01*
X8436786Y-16395071D01*
X8451071Y-16366500D01*
X8479643Y-16323643D01*
X8493928Y-16309357D01*
X8593928Y-16380786D02*
X8608214Y-16366500D01*
X8636786Y-16352214D01*
X8708214Y-16352214D01*
X8736786Y-16366500D01*
X8751071Y-16380786D01*
X8765357Y-16409357D01*
X8765357Y-16437929D01*
X8751071Y-16480786D01*
X8579643Y-16652214D01*
X8765357Y-16652214D01*
X9122500Y-16652214D02*
X9122500Y-16352214D01*
X9251071Y-16652214D02*
X9251071Y-16495071D01*
X9236786Y-16466500D01*
X9208214Y-16452214D01*
X9165357Y-16452214D01*
X9136786Y-16466500D01*
X9122500Y-16480786D01*
X9436786Y-16652214D02*
X9408214Y-16637929D01*
X9393928Y-16623643D01*
X9379643Y-16595071D01*
X9379643Y-16509357D01*
X9393928Y-16480786D01*
X9408214Y-16466500D01*
X9436786Y-16452214D01*
X9479643Y-16452214D01*
X9508214Y-16466500D01*
X9522500Y-16480786D01*
X9536786Y-16509357D01*
X9536786Y-16595071D01*
X9522500Y-16623643D01*
X9508214Y-16637929D01*
X9479643Y-16652214D01*
X9436786Y-16652214D01*
X9708214Y-16652214D02*
X9679643Y-16637929D01*
X9665357Y-16609357D01*
X9665357Y-16352214D01*
X9936786Y-16637929D02*
X9908214Y-16652214D01*
X9851071Y-16652214D01*
X9822500Y-16637929D01*
X9808214Y-16609357D01*
X9808214Y-16495071D01*
X9822500Y-16466500D01*
X9851071Y-16452214D01*
X9908214Y-16452214D01*
X9936786Y-16466500D01*
X9951071Y-16495071D01*
X9951071Y-16523643D01*
X9808214Y-16552214D01*
X10065357Y-16637929D02*
X10093928Y-16652214D01*
X10151071Y-16652214D01*
X10179643Y-16637929D01*
X10193928Y-16609357D01*
X10193928Y-16595071D01*
X10179643Y-16566500D01*
X10151071Y-16552214D01*
X10108214Y-16552214D01*
X10079643Y-16537929D01*
X10065357Y-16509357D01*
X10065357Y-16495071D01*
X10079643Y-16466500D01*
X10108214Y-16452214D01*
X10151071Y-16452214D01*
X10179643Y-16466500D01*
X10293928Y-16766500D02*
X10308214Y-16752214D01*
X10336786Y-16709357D01*
X10351071Y-16680786D01*
X10365357Y-16637929D01*
X10379643Y-16566500D01*
X10379643Y-16509357D01*
X10365357Y-16437929D01*
X10351071Y-16395071D01*
X10336786Y-16366500D01*
X10308214Y-16323643D01*
X10293928Y-16309357D01*
X3685500Y-16851500D02*
X3807500Y-16973500D01*
X3807500Y-16851500D02*
X3685500Y-16973500D01*
X3807500Y-16912500D02*
G75*
G03X3807500Y-16912500I-61000J0D01*
G01*
X4251071Y-17048214D02*
X4079643Y-17048214D01*
X4165357Y-17048214D02*
X4165357Y-16748214D01*
X4136786Y-16791072D01*
X4108214Y-16819643D01*
X4079643Y-16833929D01*
X4379643Y-17019643D02*
X4393928Y-17033929D01*
X4379643Y-17048214D01*
X4365357Y-17033929D01*
X4379643Y-17019643D01*
X4379643Y-17048214D01*
X4508214Y-16776786D02*
X4522500Y-16762500D01*
X4551071Y-16748214D01*
X4622500Y-16748214D01*
X4651071Y-16762500D01*
X4665357Y-16776786D01*
X4679643Y-16805357D01*
X4679643Y-16833929D01*
X4665357Y-16876786D01*
X4493928Y-17048214D01*
X4679643Y-17048214D01*
X4793928Y-16776786D02*
X4808214Y-16762500D01*
X4836786Y-16748214D01*
X4908214Y-16748214D01*
X4936786Y-16762500D01*
X4951071Y-16776786D01*
X4965357Y-16805357D01*
X4965357Y-16833929D01*
X4951071Y-16876786D01*
X4779643Y-17048214D01*
X4965357Y-17048214D01*
X5093928Y-17048214D02*
X5093928Y-16848214D01*
X5093928Y-16876786D02*
X5108214Y-16862500D01*
X5136786Y-16848214D01*
X5179643Y-16848214D01*
X5208214Y-16862500D01*
X5222500Y-16891072D01*
X5222500Y-17048214D01*
X5222500Y-16891072D02*
X5236786Y-16862500D01*
X5265357Y-16848214D01*
X5308214Y-16848214D01*
X5336786Y-16862500D01*
X5351071Y-16891072D01*
X5351071Y-17048214D01*
X5493928Y-17048214D02*
X5493928Y-16848214D01*
X5493928Y-16876786D02*
X5508214Y-16862500D01*
X5536786Y-16848214D01*
X5579643Y-16848214D01*
X5608214Y-16862500D01*
X5622500Y-16891072D01*
X5622500Y-17048214D01*
X5622500Y-16891072D02*
X5636786Y-16862500D01*
X5665357Y-16848214D01*
X5708214Y-16848214D01*
X5736786Y-16862500D01*
X5751071Y-16891072D01*
X5751071Y-17048214D01*
X6336786Y-16733929D02*
X6079643Y-17119643D01*
X6722500Y-16748214D02*
X6751071Y-16748214D01*
X6779643Y-16762500D01*
X6793928Y-16776786D01*
X6808214Y-16805357D01*
X6822500Y-16862500D01*
X6822500Y-16933929D01*
X6808214Y-16991072D01*
X6793928Y-17019643D01*
X6779643Y-17033929D01*
X6751071Y-17048214D01*
X6722500Y-17048214D01*
X6693928Y-17033929D01*
X6679643Y-17019643D01*
X6665357Y-16991072D01*
X6651071Y-16933929D01*
X6651071Y-16862500D01*
X6665357Y-16805357D01*
X6679643Y-16776786D01*
X6693928Y-16762500D01*
X6722500Y-16748214D01*
X6951071Y-17019643D02*
X6965357Y-17033929D01*
X6951071Y-17048214D01*
X6936786Y-17033929D01*
X6951071Y-17019643D01*
X6951071Y-17048214D01*
X7151071Y-16748214D02*
X7179643Y-16748214D01*
X7208214Y-16762500D01*
X7222500Y-16776786D01*
X7236786Y-16805357D01*
X7251071Y-16862500D01*
X7251071Y-16933929D01*
X7236786Y-16991072D01*
X7222500Y-17019643D01*
X7208214Y-17033929D01*
X7179643Y-17048214D01*
X7151071Y-17048214D01*
X7122500Y-17033929D01*
X7108214Y-17019643D01*
X7093928Y-16991072D01*
X7079643Y-16933929D01*
X7079643Y-16862500D01*
X7093928Y-16805357D01*
X7108214Y-16776786D01*
X7122500Y-16762500D01*
X7151071Y-16748214D01*
X7508214Y-16848214D02*
X7508214Y-17048214D01*
X7436786Y-16733929D02*
X7365357Y-16948214D01*
X7551071Y-16948214D01*
X7708214Y-16876786D02*
X7679643Y-16862500D01*
X7665357Y-16848214D01*
X7651071Y-16819643D01*
X7651071Y-16805357D01*
X7665357Y-16776786D01*
X7679643Y-16762500D01*
X7708214Y-16748214D01*
X7765357Y-16748214D01*
X7793928Y-16762500D01*
X7808214Y-16776786D01*
X7822500Y-16805357D01*
X7822500Y-16819643D01*
X7808214Y-16848214D01*
X7793928Y-16862500D01*
X7765357Y-16876786D01*
X7708214Y-16876786D01*
X7679643Y-16891072D01*
X7665357Y-16905357D01*
X7651071Y-16933929D01*
X7651071Y-16991072D01*
X7665357Y-17019643D01*
X7679643Y-17033929D01*
X7708214Y-17048214D01*
X7765357Y-17048214D01*
X7793928Y-17033929D01*
X7808214Y-17019643D01*
X7822500Y-16991072D01*
X7822500Y-16933929D01*
X7808214Y-16905357D01*
X7793928Y-16891072D01*
X7765357Y-16876786D01*
X7936786Y-16748214D02*
X7936786Y-16805357D01*
X8051071Y-16748214D02*
X8051071Y-16805357D01*
X8493928Y-17162500D02*
X8479643Y-17148214D01*
X8451071Y-17105357D01*
X8436786Y-17076786D01*
X8422500Y-17033929D01*
X8408214Y-16962500D01*
X8408214Y-16905357D01*
X8422500Y-16833929D01*
X8436786Y-16791072D01*
X8451071Y-16762500D01*
X8479643Y-16719643D01*
X8493928Y-16705357D01*
X8593928Y-16776786D02*
X8608214Y-16762500D01*
X8636786Y-16748214D01*
X8708214Y-16748214D01*
X8736786Y-16762500D01*
X8751071Y-16776786D01*
X8765357Y-16805357D01*
X8765357Y-16833929D01*
X8751071Y-16876786D01*
X8579643Y-17048214D01*
X8765357Y-17048214D01*
X9122500Y-17048214D02*
X9122500Y-16748214D01*
X9251071Y-17048214D02*
X9251071Y-16891072D01*
X9236786Y-16862500D01*
X9208214Y-16848214D01*
X9165357Y-16848214D01*
X9136786Y-16862500D01*
X9122500Y-16876786D01*
X9436786Y-17048214D02*
X9408214Y-17033929D01*
X9393928Y-17019643D01*
X9379643Y-16991072D01*
X9379643Y-16905357D01*
X9393928Y-16876786D01*
X9408214Y-16862500D01*
X9436786Y-16848214D01*
X9479643Y-16848214D01*
X9508214Y-16862500D01*
X9522500Y-16876786D01*
X9536786Y-16905357D01*
X9536786Y-16991072D01*
X9522500Y-17019643D01*
X9508214Y-17033929D01*
X9479643Y-17048214D01*
X9436786Y-17048214D01*
X9708214Y-17048214D02*
X9679643Y-17033929D01*
X9665357Y-17005357D01*
X9665357Y-16748214D01*
X9936786Y-17033929D02*
X9908214Y-17048214D01*
X9851071Y-17048214D01*
X9822500Y-17033929D01*
X9808214Y-17005357D01*
X9808214Y-16891072D01*
X9822500Y-16862500D01*
X9851071Y-16848214D01*
X9908214Y-16848214D01*
X9936786Y-16862500D01*
X9951071Y-16891072D01*
X9951071Y-16919643D01*
X9808214Y-16948214D01*
X10065357Y-17033929D02*
X10093928Y-17048214D01*
X10151071Y-17048214D01*
X10179643Y-17033929D01*
X10193928Y-17005357D01*
X10193928Y-16991072D01*
X10179643Y-16962500D01*
X10151071Y-16948214D01*
X10108214Y-16948214D01*
X10079643Y-16933929D01*
X10065357Y-16905357D01*
X10065357Y-16891072D01*
X10079643Y-16862500D01*
X10108214Y-16848214D01*
X10151071Y-16848214D01*
X10179643Y-16862500D01*
X10293928Y-17162500D02*
X10308214Y-17148214D01*
X10336786Y-17105357D01*
X10351071Y-17076786D01*
X10365357Y-17033929D01*
X10379643Y-16962500D01*
X10379643Y-16905357D01*
X10365357Y-16833929D01*
X10351071Y-16791072D01*
X10336786Y-16762500D01*
X10308214Y-16719643D01*
X10293928Y-16705357D01*
X3665500Y-17237500D02*
X3807500Y-17379500D01*
X3807500Y-17237500D02*
X3665500Y-17379500D01*
X3736500Y-17237500D02*
X3736500Y-17379500D01*
X3665500Y-17308500D02*
X3807500Y-17308500D01*
X4251071Y-17444214D02*
X4079643Y-17444214D01*
X4165357Y-17444214D02*
X4165357Y-17144214D01*
X4136786Y-17187072D01*
X4108214Y-17215643D01*
X4079643Y-17229929D01*
X4379643Y-17415643D02*
X4393928Y-17429929D01*
X4379643Y-17444214D01*
X4365357Y-17429929D01*
X4379643Y-17415643D01*
X4379643Y-17444214D01*
X4651071Y-17244214D02*
X4651071Y-17444214D01*
X4579643Y-17129929D02*
X4508214Y-17344214D01*
X4693928Y-17344214D01*
X4793928Y-17172786D02*
X4808214Y-17158500D01*
X4836786Y-17144214D01*
X4908214Y-17144214D01*
X4936786Y-17158500D01*
X4951071Y-17172786D01*
X4965357Y-17201357D01*
X4965357Y-17229929D01*
X4951071Y-17272786D01*
X4779643Y-17444214D01*
X4965357Y-17444214D01*
X5093928Y-17444214D02*
X5093928Y-17244214D01*
X5093928Y-17272786D02*
X5108214Y-17258500D01*
X5136786Y-17244214D01*
X5179643Y-17244214D01*
X5208214Y-17258500D01*
X5222500Y-17287072D01*
X5222500Y-17444214D01*
X5222500Y-17287072D02*
X5236786Y-17258500D01*
X5265357Y-17244214D01*
X5308214Y-17244214D01*
X5336786Y-17258500D01*
X5351071Y-17287072D01*
X5351071Y-17444214D01*
X5493928Y-17444214D02*
X5493928Y-17244214D01*
X5493928Y-17272786D02*
X5508214Y-17258500D01*
X5536786Y-17244214D01*
X5579643Y-17244214D01*
X5608214Y-17258500D01*
X5622500Y-17287072D01*
X5622500Y-17444214D01*
X5622500Y-17287072D02*
X5636786Y-17258500D01*
X5665357Y-17244214D01*
X5708214Y-17244214D01*
X5736786Y-17258500D01*
X5751071Y-17287072D01*
X5751071Y-17444214D01*
X6336786Y-17129929D02*
X6079643Y-17515643D01*
X6722500Y-17144214D02*
X6751071Y-17144214D01*
X6779643Y-17158500D01*
X6793928Y-17172786D01*
X6808214Y-17201357D01*
X6822500Y-17258500D01*
X6822500Y-17329929D01*
X6808214Y-17387072D01*
X6793928Y-17415643D01*
X6779643Y-17429929D01*
X6751071Y-17444214D01*
X6722500Y-17444214D01*
X6693928Y-17429929D01*
X6679643Y-17415643D01*
X6665357Y-17387072D01*
X6651071Y-17329929D01*
X6651071Y-17258500D01*
X6665357Y-17201357D01*
X6679643Y-17172786D01*
X6693928Y-17158500D01*
X6722500Y-17144214D01*
X6951071Y-17415643D02*
X6965357Y-17429929D01*
X6951071Y-17444214D01*
X6936786Y-17429929D01*
X6951071Y-17415643D01*
X6951071Y-17444214D01*
X7151071Y-17144214D02*
X7179643Y-17144214D01*
X7208214Y-17158500D01*
X7222500Y-17172786D01*
X7236786Y-17201357D01*
X7251071Y-17258500D01*
X7251071Y-17329929D01*
X7236786Y-17387072D01*
X7222500Y-17415643D01*
X7208214Y-17429929D01*
X7179643Y-17444214D01*
X7151071Y-17444214D01*
X7122500Y-17429929D01*
X7108214Y-17415643D01*
X7093928Y-17387072D01*
X7079643Y-17329929D01*
X7079643Y-17258500D01*
X7093928Y-17201357D01*
X7108214Y-17172786D01*
X7122500Y-17158500D01*
X7151071Y-17144214D01*
X7522500Y-17144214D02*
X7379643Y-17144214D01*
X7365357Y-17287072D01*
X7379643Y-17272786D01*
X7408214Y-17258500D01*
X7479643Y-17258500D01*
X7508214Y-17272786D01*
X7522500Y-17287072D01*
X7536786Y-17315643D01*
X7536786Y-17387072D01*
X7522500Y-17415643D01*
X7508214Y-17429929D01*
X7479643Y-17444214D01*
X7408214Y-17444214D01*
X7379643Y-17429929D01*
X7365357Y-17415643D01*
X7793928Y-17144214D02*
X7736786Y-17144214D01*
X7708214Y-17158500D01*
X7693928Y-17172786D01*
X7665357Y-17215643D01*
X7651071Y-17272786D01*
X7651071Y-17387072D01*
X7665357Y-17415643D01*
X7679643Y-17429929D01*
X7708214Y-17444214D01*
X7765357Y-17444214D01*
X7793928Y-17429929D01*
X7808214Y-17415643D01*
X7822500Y-17387072D01*
X7822500Y-17315643D01*
X7808214Y-17287072D01*
X7793928Y-17272786D01*
X7765357Y-17258500D01*
X7708214Y-17258500D01*
X7679643Y-17272786D01*
X7665357Y-17287072D01*
X7651071Y-17315643D01*
X7936786Y-17144214D02*
X7936786Y-17201357D01*
X8051071Y-17144214D02*
X8051071Y-17201357D01*
X8493928Y-17558500D02*
X8479643Y-17544214D01*
X8451071Y-17501357D01*
X8436786Y-17472786D01*
X8422500Y-17429929D01*
X8408214Y-17358500D01*
X8408214Y-17301357D01*
X8422500Y-17229929D01*
X8436786Y-17187072D01*
X8451071Y-17158500D01*
X8479643Y-17115643D01*
X8493928Y-17101357D01*
X8593928Y-17172786D02*
X8608214Y-17158500D01*
X8636786Y-17144214D01*
X8708214Y-17144214D01*
X8736786Y-17158500D01*
X8751071Y-17172786D01*
X8765357Y-17201357D01*
X8765357Y-17229929D01*
X8751071Y-17272786D01*
X8579643Y-17444214D01*
X8765357Y-17444214D01*
X9122500Y-17444214D02*
X9122500Y-17144214D01*
X9251071Y-17444214D02*
X9251071Y-17287072D01*
X9236786Y-17258500D01*
X9208214Y-17244214D01*
X9165357Y-17244214D01*
X9136786Y-17258500D01*
X9122500Y-17272786D01*
X9436786Y-17444214D02*
X9408214Y-17429929D01*
X9393928Y-17415643D01*
X9379643Y-17387072D01*
X9379643Y-17301357D01*
X9393928Y-17272786D01*
X9408214Y-17258500D01*
X9436786Y-17244214D01*
X9479643Y-17244214D01*
X9508214Y-17258500D01*
X9522500Y-17272786D01*
X9536786Y-17301357D01*
X9536786Y-17387072D01*
X9522500Y-17415643D01*
X9508214Y-17429929D01*
X9479643Y-17444214D01*
X9436786Y-17444214D01*
X9708214Y-17444214D02*
X9679643Y-17429929D01*
X9665357Y-17401357D01*
X9665357Y-17144214D01*
X9936786Y-17429929D02*
X9908214Y-17444214D01*
X9851071Y-17444214D01*
X9822500Y-17429929D01*
X9808214Y-17401357D01*
X9808214Y-17287072D01*
X9822500Y-17258500D01*
X9851071Y-17244214D01*
X9908214Y-17244214D01*
X9936786Y-17258500D01*
X9951071Y-17287072D01*
X9951071Y-17315643D01*
X9808214Y-17344214D01*
X10065357Y-17429929D02*
X10093928Y-17444214D01*
X10151071Y-17444214D01*
X10179643Y-17429929D01*
X10193928Y-17401357D01*
X10193928Y-17387072D01*
X10179643Y-17358500D01*
X10151071Y-17344214D01*
X10108214Y-17344214D01*
X10079643Y-17329929D01*
X10065357Y-17301357D01*
X10065357Y-17287072D01*
X10079643Y-17258500D01*
X10108214Y-17244214D01*
X10151071Y-17244214D01*
X10179643Y-17258500D01*
X10293928Y-17558500D02*
X10308214Y-17544214D01*
X10336786Y-17501357D01*
X10351071Y-17472786D01*
X10365357Y-17429929D01*
X10379643Y-17358500D01*
X10379643Y-17301357D01*
X10365357Y-17229929D01*
X10351071Y-17187072D01*
X10336786Y-17158500D01*
X10308214Y-17115643D01*
X10293928Y-17101357D01*
X3664500Y-17633000D02*
X3807500Y-17776000D01*
X3807500Y-17633000D02*
X3664500Y-17776000D01*
X3786558Y-17755059D02*
X3786558Y-17653942D01*
X3685441Y-17653942D01*
X3685441Y-17755059D01*
X3786558Y-17755059D01*
X4251071Y-17840214D02*
X4079643Y-17840214D01*
X4165357Y-17840214D02*
X4165357Y-17540214D01*
X4136786Y-17583072D01*
X4108214Y-17611643D01*
X4079643Y-17625929D01*
X4379643Y-17811643D02*
X4393928Y-17825929D01*
X4379643Y-17840214D01*
X4365357Y-17825929D01*
X4379643Y-17811643D01*
X4379643Y-17840214D01*
X4651071Y-17640214D02*
X4651071Y-17840214D01*
X4579643Y-17525929D02*
X4508214Y-17740214D01*
X4693928Y-17740214D01*
X4779643Y-17540214D02*
X4965357Y-17540214D01*
X4865357Y-17654500D01*
X4908214Y-17654500D01*
X4936786Y-17668786D01*
X4951071Y-17683072D01*
X4965357Y-17711643D01*
X4965357Y-17783072D01*
X4951071Y-17811643D01*
X4936786Y-17825929D01*
X4908214Y-17840214D01*
X4822500Y-17840214D01*
X4793928Y-17825929D01*
X4779643Y-17811643D01*
X5093928Y-17840214D02*
X5093928Y-17640214D01*
X5093928Y-17668786D02*
X5108214Y-17654500D01*
X5136786Y-17640214D01*
X5179643Y-17640214D01*
X5208214Y-17654500D01*
X5222500Y-17683072D01*
X5222500Y-17840214D01*
X5222500Y-17683072D02*
X5236786Y-17654500D01*
X5265357Y-17640214D01*
X5308214Y-17640214D01*
X5336786Y-17654500D01*
X5351071Y-17683072D01*
X5351071Y-17840214D01*
X5493928Y-17840214D02*
X5493928Y-17640214D01*
X5493928Y-17668786D02*
X5508214Y-17654500D01*
X5536786Y-17640214D01*
X5579643Y-17640214D01*
X5608214Y-17654500D01*
X5622500Y-17683072D01*
X5622500Y-17840214D01*
X5622500Y-17683072D02*
X5636786Y-17654500D01*
X5665357Y-17640214D01*
X5708214Y-17640214D01*
X5736786Y-17654500D01*
X5751071Y-17683072D01*
X5751071Y-17840214D01*
X6336786Y-17525929D02*
X6079643Y-17911643D01*
X6722500Y-17540214D02*
X6751071Y-17540214D01*
X6779643Y-17554500D01*
X6793928Y-17568786D01*
X6808214Y-17597357D01*
X6822500Y-17654500D01*
X6822500Y-17725929D01*
X6808214Y-17783072D01*
X6793928Y-17811643D01*
X6779643Y-17825929D01*
X6751071Y-17840214D01*
X6722500Y-17840214D01*
X6693928Y-17825929D01*
X6679643Y-17811643D01*
X6665357Y-17783072D01*
X6651071Y-17725929D01*
X6651071Y-17654500D01*
X6665357Y-17597357D01*
X6679643Y-17568786D01*
X6693928Y-17554500D01*
X6722500Y-17540214D01*
X6951071Y-17811643D02*
X6965357Y-17825929D01*
X6951071Y-17840214D01*
X6936786Y-17825929D01*
X6951071Y-17811643D01*
X6951071Y-17840214D01*
X7151071Y-17540214D02*
X7179643Y-17540214D01*
X7208214Y-17554500D01*
X7222500Y-17568786D01*
X7236786Y-17597357D01*
X7251071Y-17654500D01*
X7251071Y-17725929D01*
X7236786Y-17783072D01*
X7222500Y-17811643D01*
X7208214Y-17825929D01*
X7179643Y-17840214D01*
X7151071Y-17840214D01*
X7122500Y-17825929D01*
X7108214Y-17811643D01*
X7093928Y-17783072D01*
X7079643Y-17725929D01*
X7079643Y-17654500D01*
X7093928Y-17597357D01*
X7108214Y-17568786D01*
X7122500Y-17554500D01*
X7151071Y-17540214D01*
X7522500Y-17540214D02*
X7379643Y-17540214D01*
X7365357Y-17683072D01*
X7379643Y-17668786D01*
X7408214Y-17654500D01*
X7479643Y-17654500D01*
X7508214Y-17668786D01*
X7522500Y-17683072D01*
X7536786Y-17711643D01*
X7536786Y-17783072D01*
X7522500Y-17811643D01*
X7508214Y-17825929D01*
X7479643Y-17840214D01*
X7408214Y-17840214D01*
X7379643Y-17825929D01*
X7365357Y-17811643D01*
X7793928Y-17540214D02*
X7736786Y-17540214D01*
X7708214Y-17554500D01*
X7693928Y-17568786D01*
X7665357Y-17611643D01*
X7651071Y-17668786D01*
X7651071Y-17783072D01*
X7665357Y-17811643D01*
X7679643Y-17825929D01*
X7708214Y-17840214D01*
X7765357Y-17840214D01*
X7793928Y-17825929D01*
X7808214Y-17811643D01*
X7822500Y-17783072D01*
X7822500Y-17711643D01*
X7808214Y-17683072D01*
X7793928Y-17668786D01*
X7765357Y-17654500D01*
X7708214Y-17654500D01*
X7679643Y-17668786D01*
X7665357Y-17683072D01*
X7651071Y-17711643D01*
X7936786Y-17540214D02*
X7936786Y-17597357D01*
X8051071Y-17540214D02*
X8051071Y-17597357D01*
X8493928Y-17954500D02*
X8479643Y-17940214D01*
X8451071Y-17897357D01*
X8436786Y-17868786D01*
X8422500Y-17825929D01*
X8408214Y-17754500D01*
X8408214Y-17697357D01*
X8422500Y-17625929D01*
X8436786Y-17583072D01*
X8451071Y-17554500D01*
X8479643Y-17511643D01*
X8493928Y-17497357D01*
X8593928Y-17568786D02*
X8608214Y-17554500D01*
X8636786Y-17540214D01*
X8708214Y-17540214D01*
X8736786Y-17554500D01*
X8751071Y-17568786D01*
X8765357Y-17597357D01*
X8765357Y-17625929D01*
X8751071Y-17668786D01*
X8579643Y-17840214D01*
X8765357Y-17840214D01*
X9122500Y-17840214D02*
X9122500Y-17540214D01*
X9251071Y-17840214D02*
X9251071Y-17683072D01*
X9236786Y-17654500D01*
X9208214Y-17640214D01*
X9165357Y-17640214D01*
X9136786Y-17654500D01*
X9122500Y-17668786D01*
X9436786Y-17840214D02*
X9408214Y-17825929D01*
X9393928Y-17811643D01*
X9379643Y-17783072D01*
X9379643Y-17697357D01*
X9393928Y-17668786D01*
X9408214Y-17654500D01*
X9436786Y-17640214D01*
X9479643Y-17640214D01*
X9508214Y-17654500D01*
X9522500Y-17668786D01*
X9536786Y-17697357D01*
X9536786Y-17783072D01*
X9522500Y-17811643D01*
X9508214Y-17825929D01*
X9479643Y-17840214D01*
X9436786Y-17840214D01*
X9708214Y-17840214D02*
X9679643Y-17825929D01*
X9665357Y-17797357D01*
X9665357Y-17540214D01*
X9936786Y-17825929D02*
X9908214Y-17840214D01*
X9851071Y-17840214D01*
X9822500Y-17825929D01*
X9808214Y-17797357D01*
X9808214Y-17683072D01*
X9822500Y-17654500D01*
X9851071Y-17640214D01*
X9908214Y-17640214D01*
X9936786Y-17654500D01*
X9951071Y-17683072D01*
X9951071Y-17711643D01*
X9808214Y-17740214D01*
X10065357Y-17825929D02*
X10093928Y-17840214D01*
X10151071Y-17840214D01*
X10179643Y-17825929D01*
X10193928Y-17797357D01*
X10193928Y-17783072D01*
X10179643Y-17754500D01*
X10151071Y-17740214D01*
X10108214Y-17740214D01*
X10079643Y-17725929D01*
X10065357Y-17697357D01*
X10065357Y-17683072D01*
X10079643Y-17654500D01*
X10108214Y-17640214D01*
X10151071Y-17640214D01*
X10179643Y-17654500D01*
X10293928Y-17954500D02*
X10308214Y-17940214D01*
X10336786Y-17897357D01*
X10351071Y-17868786D01*
X10365357Y-17825929D01*
X10379643Y-17754500D01*
X10379643Y-17697357D01*
X10365357Y-17625929D01*
X10351071Y-17583072D01*
X10336786Y-17554500D01*
X10308214Y-17511643D01*
X10293928Y-17497357D01*
M02*
